<svg width="30" height="30" viewBox="0 0 30 30" fill="none" xmlns="http://www.w3.org/2000/svg">
<path d="M18.0475 0C18.2803 7.14818e-06 18.5071 0.0720082 18.6951 0.205634C18.8832 0.33926 19.023 0.527614 19.0942 0.743571L20.3035 4.40571C20.8114 4.64786 21.2974 4.92 21.7613 5.22643L25.6224 4.41643C25.8501 4.36906 26.0873 4.39334 26.2999 4.48576C26.5125 4.57818 26.6895 4.73398 26.8054 4.93071L29.8529 10.0714C29.9693 10.268 30.0186 10.4956 29.9937 10.7213C29.9688 10.947 29.871 11.1591 29.7144 11.3271L27.0648 14.1771C27.1034 14.7236 27.1034 15.2721 27.0648 15.8186L29.7144 18.6729C29.871 18.8409 29.9688 19.053 29.9937 19.2787C30.0186 19.5044 29.9693 19.732 29.8529 19.9286L26.8054 25.0714C26.6892 25.2678 26.512 25.4231 26.2994 25.5152C26.0869 25.6072 25.8498 25.6311 25.6224 25.5836L21.7613 24.7736C21.2996 25.0779 20.8114 25.3521 20.3057 25.5943L19.0942 29.2564C19.023 29.4724 18.8832 29.6607 18.6951 29.7944C18.5071 29.928 18.2803 30 18.0475 30H11.9525C11.7197 30 11.4929 29.928 11.3049 29.7944C11.1168 29.6607 10.977 29.4724 10.9058 29.2564L9.69868 25.5964C9.19212 25.355 8.70352 25.0793 8.23647 24.7714L4.37757 25.5836C4.14992 25.6309 3.91271 25.6067 3.70012 25.5142C3.48753 25.4218 3.31053 25.266 3.19461 25.0693L0.147069 19.9286C0.0306957 19.732 -0.0185963 19.5044 0.00630011 19.2787C0.0311965 19.053 0.128995 18.8409 0.285593 18.6729L2.93515 15.8186C2.89677 15.2735 2.89677 14.7265 2.93515 14.1814L0.285593 11.3271C0.128995 11.1591 0.0311965 10.947 0.00630011 10.7213C-0.0185963 10.4956 0.0306957 10.268 0.147069 10.0714L3.19461 4.92857C3.31085 4.73223 3.48799 4.57687 3.70055 4.48485C3.91312 4.39282 4.15015 4.36887 4.37757 4.41643L8.23647 5.22857C8.70262 4.92214 9.19076 4.64571 9.69868 4.40357L10.908 0.743571C10.979 0.52831 11.1181 0.340454 11.3053 0.206893C11.4925 0.0733316 11.7182 0.000912144 11.9503 0H18.0453H18.0475ZM17.2428 2.14286H12.7572L11.5083 5.92929L10.6662 6.33C10.2522 6.52744 9.85251 6.75225 9.47 7.00286L8.69163 7.51714L4.6986 6.67714L2.45581 10.4657L5.19333 13.4186L5.12736 14.3271C5.09577 14.7752 5.09577 15.2248 5.12736 15.6729L5.19333 16.5814L2.45142 19.5343L4.6964 23.3229L8.68943 22.485L9.46781 22.9971C9.85031 23.2478 10.25 23.4726 10.664 23.67L11.5061 24.0707L12.7572 27.8571H17.2472L18.5005 24.0686L19.3404 23.67C19.754 23.473 20.1529 23.2482 20.5344 22.9971L21.3106 22.485L25.3058 23.3229L27.5486 19.5343L24.8089 16.5814L24.8748 15.6729C24.9065 15.2241 24.9065 14.7738 24.8748 14.325L24.8089 13.4164L27.5508 10.4657L25.3058 6.67714L21.3106 7.51286L20.5344 7.00286C20.153 6.75174 19.754 6.52691 19.3404 6.33L18.5005 5.93143L17.245 2.14286H17.2428ZM15 8.57143C16.7495 8.57143 18.4273 9.24872 19.6644 10.4543C20.9014 11.6599 21.5964 13.295 21.5964 15C21.5964 16.705 20.9014 18.3401 19.6644 19.5457C18.4273 20.7513 16.7495 21.4286 15 21.4286C13.2505 21.4286 11.5727 20.7513 10.3356 19.5457C9.09856 18.3401 8.40358 16.705 8.40358 15C8.40358 13.295 9.09856 11.6599 10.3356 10.4543C11.5727 9.24872 13.2505 8.57143 15 8.57143ZM15 10.7143C13.8337 10.7143 12.7151 11.1658 11.8904 11.9695C11.0657 12.7733 10.6024 13.8634 10.6024 15C10.6024 16.1366 11.0657 17.2267 11.8904 18.0305C12.7151 18.8342 13.8337 19.2857 15 19.2857C16.1663 19.2857 17.2849 18.8342 18.1096 18.0305C18.9343 17.2267 19.3976 16.1366 19.3976 15C19.3976 13.8634 18.9343 12.7733 18.1096 11.9695C17.2849 11.1658 16.1663 10.7143 15 10.7143Z" fill="#BBBBBB"/>
</svg>
