<svg width="40" height="40" viewBox="0 0 40 40" fill="none" xmlns="http://www.w3.org/2000/svg">
<path d="M9.73165 16.8925C6.06248 17.765 3.33331 21.0642 3.33331 25C3.33331 29.6025 7.06415 33.3333 11.6666 33.3333C12.4558 33.3333 13.22 33.2233 13.9441 33.0183M30.0458 16.8925C33.715 17.765 36.4433 21.0642 36.4433 25C36.4433 29.6025 32.7125 33.3333 28.11 33.3333C27.3208 33.3333 26.5566 33.2233 25.8333 33.0183M30 16.6667C30 11.1442 25.5225 6.66666 20 6.66666C14.4775 6.66666 9.99998 11.1442 9.99998 16.6667M14.2208 25.0992L20 30.8967L25.9433 25M20 16.6667V27.9483" stroke="#D9D9D9" stroke-width="4" stroke-linecap="round" stroke-linejoin="round"/>
<path d="M9.73165 16.8925C6.06248 17.765 3.33331 21.0642 3.33331 25C3.33331 29.6025 7.06415 33.3333 11.6666 33.3333C12.4558 33.3333 13.22 33.2233 13.9441 33.0183M30.0458 16.8925C33.715 17.765 36.4433 21.0642 36.4433 25C36.4433 29.6025 32.7125 33.3333 28.11 33.3333C27.3208 33.3333 26.5566 33.2233 25.8333 33.0183M30 16.6667C30 11.1442 25.5225 6.66666 20 6.66666C14.4775 6.66666 9.99998 11.1442 9.99998 16.6667M14.2208 25.0992L20 30.8967L25.9433 25M20 16.6667V27.9483" stroke="black" stroke-opacity="0.2" stroke-width="4" stroke-linecap="round" stroke-linejoin="round"/>
</svg>
