<svg width="30" height="22" viewBox="0 0 30 22" fill="none" xmlns="http://www.w3.org/2000/svg">
<path d="M28.5 0.00965198C28.3722 -0.00321733 28.2434 -0.00321733 28.1157 0.00965198H1.86565C1.69741 0.0121856 1.53028 0.0368407 1.36877 0.0829535L14.9156 13.2681L28.5 0.00965198Z" fill="#D9D9D9"/>
<path d="M28.5 0.00965198C28.3722 -0.00321733 28.2434 -0.00321733 28.1157 0.00965198H1.86565C1.69741 0.0121856 1.53028 0.0368407 1.36877 0.0829535L14.9156 13.2681L28.5 0.00965198Z" fill="black" fill-opacity="0.2"/>
<path d="M29.8875 1.28314L16.2375 14.5691C15.8862 14.9104 15.411 15.1019 14.9156 15.1019C14.4203 15.1019 13.9451 14.9104 13.5938 14.5691L0.065625 1.38393C0.024037 1.53332 0.00198627 1.68726 0 1.84207V20.1675C0 20.6535 0.197544 21.1196 0.549175 21.4633C0.900806 21.8069 1.37772 22 1.875 22H28.125C28.6223 22 29.0992 21.8069 29.4508 21.4633C29.8025 21.1196 30 20.6535 30 20.1675V1.84207C29.9925 1.65117 29.9546 1.46258 29.8875 1.28314ZM3.15938 20.1675H1.85625V18.8572L8.67188 12.2509L9.99375 13.5428L3.15938 20.1675ZM28.1062 20.1675H26.7938L19.9594 13.5428L21.2812 12.2509L28.0969 18.8572L28.1062 20.1675Z" fill="#D9D9D9"/>
<path d="M29.8875 1.28314L16.2375 14.5691C15.8862 14.9104 15.411 15.1019 14.9156 15.1019C14.4203 15.1019 13.9451 14.9104 13.5938 14.5691L0.065625 1.38393C0.024037 1.53332 0.00198627 1.68726 0 1.84207V20.1675C0 20.6535 0.197544 21.1196 0.549175 21.4633C0.900806 21.8069 1.37772 22 1.875 22H28.125C28.6223 22 29.0992 21.8069 29.4508 21.4633C29.8025 21.1196 30 20.6535 30 20.1675V1.84207C29.9925 1.65117 29.9546 1.46258 29.8875 1.28314ZM3.15938 20.1675H1.85625V18.8572L8.67188 12.2509L9.99375 13.5428L3.15938 20.1675ZM28.1062 20.1675H26.7938L19.9594 13.5428L21.2812 12.2509L28.0969 18.8572L28.1062 20.1675Z" fill="black" fill-opacity="0.2"/>
</svg>
