<svg width="50" height="50" viewBox="0 0 50 50" fill="none" xmlns="http://www.w3.org/2000/svg">
<g clip-path="url(#clip0_382_1633)">
<path d="M44 47C46.7614 47 49 44.7614 49 42C49 39.2386 46.7614 37 44 37C41.2386 37 39 39.2386 39 42C39 44.7614 41.2386 47 44 47Z" fill="#F4F4F4" stroke="#45126B" stroke-width="2"/>
<path d="M15 47C17.7614 47 20 44.7614 20 42C20 39.2386 17.7614 37 15 37C12.2386 37 10 39.2386 10 42C10 44.7614 12.2386 47 15 47Z" fill="#F4F4F4" stroke="#45126B" stroke-width="2"/>
<path d="M47 32H17.5139C17.7561 31.4051 17.8023 30.7436 17.6389 30.1138L17.6389 30.1136L17.2961 28.794L45.0539 27.3517C45.0541 27.3517 45.0544 27.3517 45.0546 27.3517C45.0547 27.3517 45.0548 27.3517 45.0549 27.3517C46.6864 27.268 48 25.881 48 24.25V11C48 9.34772 46.6523 8 45 8H11.8921L11.6959 7.2455C11.6958 7.24541 11.6958 7.24532 11.6958 7.24523C11.5287 6.60233 11.1529 6.03308 10.6274 5.62674C10.1019 5.22037 9.45631 4.99994 8.792 5C8.79195 5 8.7919 5 8.79186 5L2 5C1.20435 5 0.441289 5.31607 -0.12132 5.87868L-0.12132 5.87868C-0.683929 6.44129 -1 7.20435 -1 8C-1 8.79565 -0.683929 9.55871 -0.12132 10.1213C0.441288 10.6839 1.20435 11 2 11H6.47269L11.5108 30.3834L9.63486 33.4251L9.63448 33.4257C9.35459 33.8802 9.20106 34.4012 9.18972 34.9349C9.17839 35.4683 9.30952 35.9951 9.5696 36.461C9.82954 36.9272 10.2091 37.3156 10.6693 37.5861C11.1294 37.8566 11.6533 37.9995 12.1871 38H12.188H47C47.7956 38 48.5587 37.6839 49.1213 37.1213C49.6839 36.5587 50 35.7956 50 35C50 34.2043 49.6839 33.4413 49.1213 32.8787C48.5587 32.3161 47.7956 32 47 32Z" fill="#F4F4F4" stroke="#45126B" stroke-width="2"/>
</g>
<defs>
<clipPath id="clip0_382_1633">
<rect width="50" height="50" fill="white"/>
</clipPath>
</defs>
</svg>
