<svg width="39" height="39" viewBox="0 0 39 39" fill="none" xmlns="http://www.w3.org/2000/svg">
<path d="M19.5 4.875C10.7494 4.875 3.65625 10.5056 3.65625 17.4362C3.65625 21.8156 6.5 25.6669 10.7981 27.9094L9.36812 33.6456C9.34977 33.7172 9.35307 33.7927 9.3776 33.8624C9.40212 33.9321 9.44678 33.993 9.50592 34.0374C9.56506 34.0817 9.63603 34.1076 9.70985 34.1116C9.78367 34.1156 9.85702 34.0976 9.92063 34.06L17.0625 29.8187C17.8708 29.9238 18.6849 29.9781 19.5 29.9812C28.2506 29.9812 35.3438 24.3669 35.3438 17.4362C35.3438 10.5056 28.2506 4.875 19.5 4.875Z" stroke="#F4F4F4" stroke-width="1.45833" stroke-linecap="round" stroke-linejoin="round"/>
<path d="M19.427 19.6381C20.643 19.6381 21.6288 18.6523 21.6288 17.4362C21.6288 16.2202 20.643 15.2344 19.427 15.2344C18.2109 15.2344 17.2251 16.2202 17.2251 17.4362C17.2251 18.6523 18.2109 19.6381 19.427 19.6381Z" stroke="#F4F4F4" stroke-width="1.45833" stroke-linecap="round" stroke-linejoin="round"/>
<path d="M27.3405 19.6381C28.5566 19.6381 29.5424 18.6523 29.5424 17.4362C29.5424 16.2202 28.5566 15.2344 27.3405 15.2344C26.1245 15.2344 25.1387 16.2202 25.1387 17.4362C25.1387 18.6523 26.1245 19.6381 27.3405 19.6381Z" stroke="#F4F4F4" stroke-width="1.45833" stroke-linecap="round" stroke-linejoin="round"/>
<path d="M11.5212 19.6381C12.7373 19.6381 13.7231 18.6523 13.7231 17.4362C13.7231 16.2202 12.7373 15.2344 11.5212 15.2344C10.3051 15.2344 9.31934 16.2202 9.31934 17.4362C9.31934 18.6523 10.3051 19.6381 11.5212 19.6381Z" stroke="#F4F4F4" stroke-width="1.45833" stroke-linecap="round" stroke-linejoin="round"/>
</svg>
