<svg width="50" height="54" viewBox="0 0 50 54" fill="none" xmlns="http://www.w3.org/2000/svg">
<path d="M41.6667 0.779999C39.4565 0.779999 37.3369 1.70711 35.7741 3.35739C34.2113 5.00766 33.3333 7.24592 33.3333 9.57976C33.337 10.1983 33.4025 10.8147 33.5286 11.4188L14.6077 21.4087C13.8274 20.46 12.8636 19.6988 11.7813 19.1763C10.6991 18.6538 9.52336 18.3821 8.33333 18.3795C6.1232 18.3795 4.00358 19.3066 2.44078 20.9569C0.877973 22.6072 0 24.8454 0 27.1793C0 29.5131 0.877973 31.7514 2.44078 33.4016C4.00358 35.0519 6.1232 35.979 8.33333 35.979C9.52374 35.9776 10.7 35.7069 11.783 35.1851C12.866 34.6633 13.8306 33.9026 14.6118 32.9541L33.5205 42.9398C33.3971 43.5441 33.3344 44.1606 33.3333 44.7788C33.3333 47.1126 34.2113 49.3509 35.7741 51.0012C37.3369 52.6514 39.4565 53.5786 41.6667 53.5786C43.8768 53.5786 45.9964 52.6514 47.5592 51.0012C49.122 49.3509 50 47.1126 50 44.7788C50 42.445 49.122 40.2067 47.5592 38.5564C45.9964 36.9062 43.8768 35.979 41.6667 35.979C40.4763 35.9805 39.3 36.2512 38.217 36.7729C37.134 37.2947 36.1694 38.0555 35.3882 39.004L16.4795 29.0183C16.6029 28.4139 16.6656 27.7975 16.6667 27.1793C16.6627 26.5622 16.5972 25.9472 16.4714 25.3446L35.3923 15.3546C36.173 16.3025 37.1369 17.063 38.2192 17.5847C39.3014 18.1065 40.4769 18.3775 41.6667 18.3795C43.8768 18.3795 45.9964 17.4524 47.5592 15.8021C49.122 14.1519 50 11.9136 50 9.57976C50 7.24592 49.122 5.00766 47.5592 3.35739C45.9964 1.70711 43.8768 0.779999 41.6667 0.779999Z" fill="#F4F4F4"/>
</svg>
