<svg width="134" height="100" viewBox="0 0 134 100" fill="none" xmlns="http://www.w3.org/2000/svg">
<path d="M122.091 30.3276L122.091 30.3276L122.093 30.3413C122.142 30.741 122.167 31.1825 122.167 31.6668V66.3328C122.161 71.1466 120.164 75.7681 116.603 79.1888C113.082 82.5577 108.165 84.5 103.125 84.5C98.2057 84.5 94.8476 83.201 92.0246 80.6303C89.1695 78.0305 86.8322 74.1065 84.0263 68.7675L84.0244 68.7639C83.1951 67.1848 78.2835 57.8334 66.8337 57.8334C55.3625 57.8334 50.5052 67.1161 49.6528 68.7451L49.6407 68.7682L49.6403 68.7689C46.8574 74.1069 44.52 78.0306 41.66 80.63C38.8314 83.2008 35.4623 84.4999 30.5426 84.5C25.482 84.4945 20.6331 82.5786 17.0512 79.1765C13.525 75.8131 11.5004 71.1273 11.5004 66.3334L11.5004 31.6135L11.5004 31.6097C11.4968 31.1449 11.5201 30.7174 11.5691 30.3263L11.5714 30.3076L11.5724 30.2887C11.9011 23.5966 14.9237 17.2795 20.0168 12.6584C25.1105 8.03663 31.8809 5.4699 38.9149 5.50027H38.917H94.7498C101.687 5.5172 108.357 8.04173 113.419 12.5608C118.481 17.0794 121.56 23.2561 122.046 29.8476L122.045 29.8476L122.046 29.8582L122.091 30.3276ZM34.3912 42.2255C35.835 42.7695 37.3773 43.0322 38.9278 42.9987C41.969 42.933 44.8669 41.7328 46.9998 39.6482C47.1728 39.4792 47.3067 39.2833 47.377 39.0578C47.4483 38.8289 47.4445 38.5996 47.3865 38.383C47.2764 37.9723 46.9739 37.6133 46.6387 37.3076C45.9604 36.689 44.8755 36.0528 43.7963 35.429C43.7285 35.3898 43.6605 35.3506 43.5926 35.3113C42.5528 34.7109 41.512 34.11 40.7107 33.5C40.2851 33.176 39.9499 32.8661 39.7247 32.5723C39.4988 32.2775 39.4115 32.0359 39.4115 31.8374C39.4114 31.6389 39.4986 31.3972 39.7244 31.1022C39.9495 30.808 40.2845 30.4978 40.7099 30.1733C41.5108 29.5626 42.5509 28.9607 43.5902 28.3593C43.6584 28.3199 43.7265 28.2804 43.7946 28.241C44.8735 27.616 45.958 26.9786 46.636 26.3591C46.971 26.053 47.2733 25.6936 47.3831 25.2828C47.441 25.0661 47.4446 24.8368 47.3732 24.6079C47.3028 24.3825 47.1688 24.1866 46.9957 24.0176C44.8617 21.9341 41.9633 20.7352 38.922 20.671C37.3715 20.6382 35.8293 20.9017 34.3858 21.4463C32.9422 21.991 31.6257 22.8062 30.5139 23.8452C29.4022 24.8842 28.5175 26.1262 27.9133 27.499C27.309 28.8718 26.9975 30.347 26.9979 31.8377C26.9983 33.3285 27.3105 34.8035 27.9155 36.176C28.5205 37.5485 29.4058 38.7901 30.5181 39.8285C31.6304 40.867 32.9474 41.6816 34.3912 42.2255ZM99.0438 17.0328C97.9013 15.9415 96.3566 15.3322 94.7504 15.3322C93.1442 15.3322 91.5994 15.9415 90.457 17.0328C89.3138 18.1248 88.667 19.6109 88.667 21.1656C88.667 22.7202 89.3138 24.2063 90.457 25.2983C91.5994 26.3896 93.1442 26.9989 94.7504 26.9989C96.3566 26.9989 97.9013 26.3896 99.0438 25.2983C100.187 24.2063 100.834 22.7202 100.834 21.1656C100.834 19.6109 100.187 18.1248 99.0438 17.0328ZM79.2903 35.965C80.4327 37.0562 81.9775 37.6655 83.5837 37.6655C85.1899 37.6655 86.7347 37.0562 87.8771 35.965C89.0203 34.873 89.667 33.3869 89.667 31.8322C89.667 30.2775 89.0203 28.7914 87.8771 27.6994C86.7347 26.6081 85.1899 25.9989 83.5837 25.9989C81.9775 25.9989 80.4327 26.6081 79.2903 27.6994C78.1471 28.7914 77.5004 30.2775 77.5004 31.8322C77.5004 33.3869 78.1471 34.873 79.2903 35.965ZM90.457 46.6316C91.5994 47.7229 93.1442 48.3321 94.7504 48.3321C96.3566 48.3321 97.9013 47.7229 99.0438 46.6316C100.187 45.5396 100.834 44.0535 100.834 42.4988C100.834 40.9441 100.187 39.458 99.0438 38.366C97.9013 37.2748 96.3566 36.6655 94.7504 36.6655C93.1442 36.6655 91.5994 37.2748 90.457 38.366C89.3138 39.458 88.667 40.9441 88.667 42.4988C88.667 44.0535 89.3138 45.5396 90.457 46.6316ZM101.624 35.965C102.766 37.0562 104.311 37.6655 105.917 37.6655C107.523 37.6655 109.068 37.0562 110.21 35.965C111.354 34.873 112 33.3869 112 31.8322C112 30.2775 111.354 28.7914 110.21 27.6994C109.068 26.6081 107.523 25.9989 105.917 25.9989C104.311 25.9989 102.766 26.6081 101.624 27.6994C100.48 28.7914 99.8337 30.2775 99.8337 31.8322C99.8337 33.3869 100.48 34.873 101.624 35.965Z" fill="#00CCFF" stroke="#131313"/>
<circle cx="35.5" cy="26.5" r="2" fill="#FFE600" stroke="#131313"/>
<path d="M100.1 21.5C100.1 24.5376 97.6377 27 94.6001 27C91.5625 27 89.1001 24.5376 89.1001 21.5C89.1001 18.4624 91.5625 16 94.6001 16C97.6377 16 100.1 18.4624 100.1 21.5Z" fill="#00FFFF" stroke="#131313"/>
<circle cx="83.5" cy="32" r="5.5" fill="#00FFFF" stroke="#131313"/>
<path d="M111.5 32C111.5 35.0376 109.038 37.5 106 37.5C102.962 37.5 100.5 35.0376 100.5 32C100.5 28.9624 102.962 26.5 106 26.5C109.038 26.5 111.5 28.9624 111.5 32Z" fill="#00FFFF" stroke="#131313"/>
<circle cx="94.8" cy="42.7998" r="5.5" fill="#00FFFF" stroke="#131313"/>
</svg>
