<svg width="40" height="40" viewBox="0 0 40 40" fill="none" xmlns="http://www.w3.org/2000/svg">
<path fill-rule="evenodd" clip-rule="evenodd" d="M14.2741 9.16988C13.2414 10.1888 12.4205 11.402 11.8586 12.7395C11.2967 14.077 11.0049 15.5124 11.0001 16.9631C10.9952 18.4139 11.2774 19.8513 11.8303 21.1925C12.3832 22.5337 13.196 23.7523 14.2218 24.7782C15.2477 25.804 16.4663 26.6168 17.8075 27.1697C19.1488 27.7226 20.5861 28.0048 22.0369 27.9999C23.4876 27.9951 24.923 27.7033 26.2605 27.1414C27.598 26.5795 28.8112 25.7586 29.8301 24.7259C31.8702 22.6583 33.0097 19.8677 32.9999 16.9631C32.9902 14.0586 31.832 11.2757 29.7782 9.22183C27.7243 7.16795 24.9414 6.00979 22.0369 6.00006C19.1323 5.99033 16.3417 7.12982 14.2741 9.16988ZM27.0021 21.8979C26.3521 22.5479 25.5804 23.0636 24.731 23.4154C23.8817 23.7672 22.9714 23.9482 22.0521 23.9482C21.1328 23.9482 20.2225 23.7672 19.3732 23.4154C18.5239 23.0636 17.7522 22.5479 17.1021 21.8979C16.4521 21.2478 15.9364 20.4761 15.5846 19.6268C15.2328 18.7775 15.0518 17.8672 15.0518 16.9479C15.0518 16.0286 15.2328 15.1183 15.5846 14.269C15.9364 13.4196 16.4521 12.6479 17.1021 11.9979C18.4149 10.6851 20.1955 9.94753 22.0521 9.94753C23.9087 9.94753 25.6893 10.6851 27.0021 11.9979C28.3149 13.3107 29.0525 15.0913 29.0525 16.9479C29.0525 18.8045 28.3149 20.5851 27.0021 21.8979Z" fill="black"/>
<path d="M27.7081 26.8478C27.4294 26.5691 27.2083 26.2383 27.0575 25.8742C26.9067 25.5101 26.8291 25.1199 26.8291 24.7258C26.8291 24.3317 26.9067 23.9415 27.0575 23.5774C27.2083 23.2133 27.4294 22.8825 27.7081 22.6038C27.9867 22.3252 28.3176 22.1041 28.6816 21.9533C29.0457 21.8025 29.436 21.7249 29.8301 21.7249C30.2242 21.7249 30.6144 21.8025 30.9785 21.9533C31.3426 22.1041 31.6734 22.3252 31.9521 22.6038L39.0221 29.6758C39.3086 29.9526 39.5371 30.2836 39.6944 30.6496C39.8516 31.0156 39.9344 31.4093 39.9378 31.8076C39.9413 32.2059 39.8654 32.601 39.7145 32.9697C39.5637 33.3384 39.3409 33.6733 39.0592 33.955C38.7776 34.2367 38.4426 34.4594 38.0739 34.6103C37.7052 34.7611 37.3102 34.837 36.9119 34.8336C36.5135 34.8301 36.1199 34.7473 35.7538 34.5901C35.3878 34.4329 35.0568 34.2043 34.7801 33.9178L27.7081 26.8478Z" fill="black"/>
</svg>
