<svg width="34" height="30" viewBox="0 0 34 30" fill="none" xmlns="http://www.w3.org/2000/svg">
<g clip-path="url(#clip0_617_470)">
<path d="M1.93207 30.0017C1.83049 30.0013 1.73261 29.9635 1.65718 29.8955C1.58176 29.8274 1.53409 29.7339 1.52332 29.6329L-0.00167969 14.1717L-0.00292969 14.1329C-0.00292969 13.9054 0.18082 13.7217 0.40832 13.7217H10.6996V30.0029L1.93207 30.0017ZM6.13207 25.9204C6.13207 26.2421 6.22745 26.5577 6.40614 26.8252C6.58484 27.0926 6.83882 27.3011 7.13598 27.4241C7.43314 27.5472 7.76012 27.5794 8.07558 27.5167C8.39105 27.4539 8.68082 27.2991 8.90825 27.0716C9.13569 26.8442 9.29057 26.5544 9.35332 26.2389C9.41607 25.9235 9.38386 25.5965 9.26078 25.2993C9.13769 25.0022 8.92925 24.7482 8.66181 24.5695C8.39438 24.3908 8.07996 24.2954 7.75832 24.2954H7.75582C6.85707 24.2954 6.12957 25.0229 6.12832 25.9217L6.13207 25.9204ZM6.73207 15.9204C6.73207 16.1467 6.91582 16.3304 7.14332 16.3304H8.09832C8.20706 16.3304 8.31134 16.2872 8.38823 16.2103C8.46512 16.1335 8.50832 16.0292 8.50832 15.9204C8.50832 15.8117 8.46512 15.7074 8.38823 15.6305C8.31134 15.5536 8.20706 15.5104 8.09832 15.5104H7.13582C7.02685 15.5108 6.92244 15.5542 6.84539 15.6312C6.76833 15.7083 6.7249 15.8127 6.72457 15.9217V15.9254L6.73207 15.9204ZM2.21957 15.9204C2.21957 16.1467 2.40332 16.3304 2.62957 16.3304H5.76082C5.86956 16.3304 5.97384 16.2872 6.05073 16.2103C6.12762 16.1335 6.17082 16.0292 6.17082 15.9204C6.17082 15.8117 6.12762 15.7074 6.05073 15.6305C5.97384 15.5536 5.86956 15.5104 5.76082 15.5104H2.62207C2.51353 15.5111 2.40963 15.5545 2.33288 15.6312C2.25613 15.708 2.21273 15.8119 2.21207 15.9204V15.9242L2.21957 15.9204ZM14.4696 27.6554C14.2494 27.5808 14.0413 27.4743 13.8521 27.3392L13.8596 27.3442L13.7346 27.2654C13.4434 27.0828 13.1558 26.8944 12.8721 26.7004L12.7458 26.6117C12.5808 26.4929 12.5033 26.4404 12.4183 26.4454L11.5183 26.4579V15.0142L11.5021 14.0517C12.0658 13.6929 12.5858 13.3517 12.7421 13.2217C12.9546 12.7942 13.1646 12.4367 13.3971 12.0942L13.3758 12.1279C13.4842 11.9613 13.5875 11.7963 13.6858 11.6329L15.8408 8.01543C15.9425 7.84543 16.0483 7.67543 16.1583 7.50543C16.3396 7.23543 16.5321 6.91293 16.7083 6.58043L16.7383 6.51918C16.8355 6.31681 16.8699 6.09 16.8371 5.86793L16.8383 5.87418L16.8308 1.97418C16.9096 1.40668 17.2296 0.92668 17.6808 0.63418L17.6883 0.62918C18.0906 0.266834 18.6011 0.0471707 19.1408 0.00417969H19.1496L19.2283 0.00292969C19.6546 0.00292969 20.0571 0.10418 20.4146 0.28293L20.3996 0.27543C20.6383 0.39043 20.8421 0.51293 21.0333 0.65043L21.0208 0.64168L21.1533 0.72918C21.4546 0.88793 21.6796 1.15543 21.7796 1.47918L21.7821 1.48793C22.0158 2.35793 22.2296 3.14918 22.4283 3.94293L22.5108 4.26668C22.6371 4.69168 22.7458 5.20543 22.8158 5.73168L22.8221 5.78418C22.6083 7.75168 22.1971 9.54668 21.6021 11.2567L21.6546 11.0842L31.2708 11.0704H31.3058C31.5971 11.0705 31.8851 11.1325 32.1506 11.2523C32.4161 11.3722 32.6531 11.5472 32.8458 11.7656C33.0385 11.9841 33.1826 12.2411 33.2683 12.5195C33.3541 12.7979 33.3797 13.0914 33.3433 13.3804L33.3446 13.3704C33.3717 13.8072 33.2826 14.2433 33.0863 14.6344C32.89 15.0255 32.5935 15.3575 32.2271 15.5967L32.2171 15.6029C32.5679 16.1158 32.7321 16.7336 32.6821 17.3529V17.3442C32.7255 17.8349 32.611 18.3267 32.3553 18.7478C32.0997 19.169 31.7162 19.4975 31.2608 19.6854L31.2458 19.6904C31.5238 20.1895 31.6534 20.7576 31.6196 21.3279V21.3204C31.6474 21.7478 31.5592 22.1748 31.3643 22.5561C31.1693 22.9375 30.8748 23.259 30.5121 23.4867L30.5021 23.4929C30.7568 24.0649 30.8535 24.6947 30.7821 25.3167L30.7833 25.3004V25.5354C30.7654 25.8433 30.6856 26.1444 30.5485 26.4207C30.4115 26.697 30.2202 26.9428 29.986 27.1434C29.7518 27.344 29.4795 27.4953 29.1854 27.5882C28.8913 27.6812 28.5815 27.7138 28.2746 27.6842L28.2833 27.6854H22.7471L22.7283 27.6867L22.7083 27.6854H22.7096H15.3221C15.2583 27.6854 15.1921 27.6854 15.1221 27.6954C15.0371 27.7004 14.9471 27.7079 14.8546 27.7079H14.8358C14.7095 27.7085 14.5838 27.6917 14.4621 27.6579L14.4721 27.6604L14.4696 27.6554ZM6.95082 25.9217C6.9509 25.8165 6.97169 25.7124 7.012 25.6153C7.05231 25.5182 7.11136 25.43 7.18576 25.3557C7.26016 25.2815 7.34847 25.2225 7.44564 25.1824C7.5428 25.1422 7.64693 25.1216 7.75207 25.1217C7.85721 25.1218 7.9613 25.1426 8.05841 25.1829C8.15551 25.2232 8.24373 25.2822 8.31801 25.3566C8.3923 25.431 8.4512 25.5193 8.49136 25.6165C8.53152 25.7137 8.55215 25.8178 8.55207 25.9229C8.5519 26.1353 8.46739 26.3388 8.31713 26.4889C8.16687 26.6389 7.96316 26.7231 7.75082 26.7229C7.53848 26.7228 7.3349 26.6383 7.18487 26.488C7.03485 26.3377 6.95065 26.134 6.95082 25.9217Z" fill="#F4F4F4"/>
</g>
<defs>
<clipPath id="clip0_617_470">
<rect width="33.75" height="30" fill="white"/>
</clipPath>
</defs>
</svg>
