<svg width="59" height="48" viewBox="0 0 59 48" fill="none" xmlns="http://www.w3.org/2000/svg">
<g clip-path="url(#clip0_366_2470)">
<path fill-rule="evenodd" clip-rule="evenodd" d="M34.8476 28.2035C35.8423 29.2909 38.117 35.7161 39.5153 35.1924C41.0942 34.601 41.4739 29.4251 40.3633 23.6317C39.2528 17.8383 38.5964 13.3499 36.8262 12.6114C36.145 12.3272 34.7599 11.7458 33.2909 12.974C31.8219 14.2021 27.1781 14.2021 25.7091 12.974C24.2401 11.7458 22.855 12.3272 22.1738 12.6114C20.4036 13.3499 19.7472 17.8383 18.6367 23.6317C17.5261 29.4251 17.9058 34.601 19.4847 35.1924C20.883 35.7161 23.1577 29.2909 24.1524 28.2035C24.8414 27.4503 26.8025 27.3744 28.0873 27.3988L31.4171 27.3954C32.6635 27.4035 34.2439 27.5436 34.8476 28.2035Z" fill="#595959"/>
<path d="M29.4692 19.4626C29.8779 19.4626 30.2091 18.9995 30.2091 18.4283C30.2091 17.8571 29.8779 17.394 29.4692 17.394C29.0605 17.394 28.7292 17.8571 28.7292 18.4283C28.7292 18.9995 29.0605 19.4626 29.4692 19.4626Z" fill="#ED9111"/>
<path fill-rule="evenodd" clip-rule="evenodd" d="M26.8793 22.0485V20.4971H25.7693V22.0485H24.6594V23.5999H25.7693V25.1513H26.8793V23.5999H27.9892V22.0485H26.8793Z" fill="#FFDD95"/>
<path d="M23.1796 19.9799C23.9969 19.9799 24.6595 19.0538 24.6595 17.9113C24.6595 16.7689 23.9969 15.8428 23.1796 15.8428C22.3623 15.8428 21.6997 16.7689 21.6997 17.9113C21.6997 19.0538 22.3623 19.9799 23.1796 19.9799Z" fill="#E43535"/>
<path d="M32.059 25.1513C32.8763 25.1513 33.5389 24.2252 33.5389 23.0827C33.5389 21.9403 32.8763 21.0142 32.059 21.0142C31.2417 21.0142 30.5791 21.9403 30.5791 23.0827C30.5791 24.2252 31.2417 25.1513 32.059 25.1513Z" fill="#80D25B"/>
<path fill-rule="evenodd" clip-rule="evenodd" d="M34.2788 14.8086H35.7587V16.8772L35.0188 17.4631L34.2788 16.8772V14.8086Z" fill="#ED9111"/>
<path fill-rule="evenodd" clip-rule="evenodd" d="M37.6575 16.877V18.9455H36.1776L35.7588 17.9112L36.1776 16.877H37.6575Z" fill="#E43535"/>
<path fill-rule="evenodd" clip-rule="evenodd" d="M32.429 16.877V18.9455H33.9089L34.3277 17.9112L33.9089 16.877H32.429Z" fill="#5EA7FF"/>
<path fill-rule="evenodd" clip-rule="evenodd" d="M34.2788 21.083H35.7587V19.0144L35.0188 18.4285L34.2788 19.0144V21.083Z" fill="#22BA8E"/>
</g>
<defs>
<clipPath id="clip0_366_2470">
<rect width="23" height="23" fill="white" transform="translate(18 12.2227)"/>
</clipPath>
</defs>
</svg>
