<svg width="59" height="48" viewBox="0 0 59 48" fill="none" xmlns="http://www.w3.org/2000/svg">
<g clip-path="url(#clip0_366_2434)">
<path d="M25.5659 30.4863L23.1833 27.9204L18.9962 32.43L21.3787 34.9959L25.5659 30.4863Z" fill="#BD7575"/>
<path fill-rule="evenodd" clip-rule="evenodd" d="M36.179 11.229L41.413 10.8532L41.0641 16.4901L27.8646 29.2025L24.3753 25.4446L36.179 11.229Z" fill="#B4DFFB"/>
<path d="M26.0872 27.5626L39.8958 12.6909" stroke="#5EA7FF" stroke-width="0.782701" stroke-linecap="round"/>
<path d="M18.0936 35.9677C19.2499 37.2129 20.8121 37.5494 21.583 36.7193C22.3538 35.8891 22.0414 34.2066 20.8851 32.9613C19.7288 31.716 18.1666 31.3795 17.3958 32.2097C16.6249 33.0399 16.9374 34.7224 18.0936 35.9677Z" fill="#9C4D4D"/>
<path d="M29.6083 31.0823L22.6296 23.5664L20.885 25.4454L27.8636 32.9613L29.6083 31.0823Z" fill="#9C4D4D"/>
<path d="M34.4341 30.4863L36.8167 27.9204L41.0038 32.43L38.6213 34.9959L34.4341 30.4863Z" fill="#BD7575"/>
<path fill-rule="evenodd" clip-rule="evenodd" d="M23.821 11.229L18.587 10.8532L18.9359 16.4901L32.1354 29.2025L35.6247 25.4446L23.821 11.229Z" fill="#B4DFFB"/>
<path d="M33.9128 27.5626L20.1042 12.6909" stroke="#5EA7FF" stroke-width="0.782701" stroke-linecap="round"/>
<path d="M41.9064 35.9677C40.7501 37.2129 39.1879 37.5494 38.417 36.7193C37.6462 35.8891 37.9586 34.2066 39.1149 32.9613C40.2712 31.716 41.8334 31.3795 42.6042 32.2097C43.3751 33.0399 43.0626 34.7224 41.9064 35.9677Z" fill="#9C4D4D"/>
<path d="M30.3917 31.0823L37.3704 23.5664L39.115 25.4454L32.1364 32.9613L30.3917 31.0823Z" fill="#9C4D4D"/>
</g>
<defs>
<clipPath id="clip0_366_2434">
<rect width="28" height="30" fill="white" transform="translate(16 8.22266)"/>
</clipPath>
</defs>
</svg>
