<svg width="59" height="48" viewBox="0 0 59 48" fill="none" xmlns="http://www.w3.org/2000/svg">
<g clip-path="url(#clip0_366_2484)">
<path d="M30.4556 21.2523C29.3177 21.2523 28.3951 20.2605 28.3951 19.0372C28.3951 17.8138 29.3177 16.822 30.4556 16.822C30.881 16.822 31.2762 16.9607 31.6046 17.1982V13.1301H27.821C28.0416 12.7773 28.1704 12.3527 28.1704 11.8958C28.1704 10.6724 27.2479 9.68066 26.1099 9.68066C24.972 9.68066 24.0494 10.6724 24.0494 11.8958C24.0494 12.3528 24.1782 12.7774 24.3988 13.1301H20.6153V17.1844C20.291 16.9556 19.9032 16.822 19.4863 16.822C18.3483 16.822 17.4258 17.8138 17.4258 19.0372C17.4258 20.2605 18.3483 21.2523 19.4863 21.2523C19.9032 21.2523 20.291 21.1188 20.6153 20.8899V24.9442H24.3948C24.1768 24.5929 24.0494 24.1708 24.0494 23.7166C24.0494 22.4933 24.972 21.5015 26.1099 21.5015C27.2479 21.5015 28.1704 22.4933 28.1704 23.7166C28.1704 24.1708 28.0431 24.5928 27.825 24.9442H31.6046V20.8761C31.2764 21.1136 30.881 21.2523 30.4556 21.2523Z" fill="#62DCD2"/>
<path d="M41.4252 21.2523C40.2872 21.2523 39.3647 20.2605 39.3647 19.0372C39.3647 17.8138 40.2872 16.822 41.4252 16.822C41.8506 16.822 42.2458 16.9607 42.5741 17.1982V13.1301H38.7906C39.0111 12.7773 39.1399 12.3527 39.1399 11.8958C39.1399 10.6724 38.2174 9.68066 37.0794 9.68066C35.9415 9.68066 35.019 10.6724 35.019 11.8958C35.019 12.3528 35.1478 12.7774 35.3683 13.1301H31.5847V17.1844C31.2605 16.9556 30.8727 16.822 30.4557 16.822C29.3178 16.822 28.3953 17.8138 28.3953 19.0372C28.3953 20.2605 29.3178 21.2523 30.4557 21.2523C30.8727 21.2523 31.2605 21.1188 31.5847 20.8899V24.9442H35.3642C35.1462 24.5929 35.0189 24.1708 35.0189 23.7166C35.0189 22.4933 35.9414 21.5015 37.0793 21.5015C38.2173 21.5015 39.1398 22.4933 39.1398 23.7166C39.1398 24.1708 39.0125 24.5928 38.7945 24.9442H42.574V20.8761C42.2459 21.1136 41.8506 21.2523 41.4252 21.2523Z" fill="#FD5D65"/>
<path d="M38.2994 11.8958C38.2994 12.3528 38.1706 12.7774 37.95 13.13H38.7906C39.0112 12.7773 39.14 12.3527 39.14 11.8958C39.14 10.6724 38.2175 9.68066 37.0795 9.68066C36.9355 9.68066 36.7949 9.69663 36.6592 9.72693C37.5956 9.93562 38.2994 10.8273 38.2994 11.8958Z" fill="#F98F9B"/>
<path d="M41.7336 13.1299V16.8466C42.0414 16.8963 42.3269 17.0189 42.5743 17.1979V13.1299H41.7336Z" fill="#F98F9B"/>
<path d="M41.7336 24.9441H42.5743V20.876C42.3268 21.055 42.0414 21.1777 41.7336 21.2273V24.9441Z" fill="#F98F9B"/>
<path d="M41.4252 33.073C40.2872 33.073 39.3647 32.0813 39.3647 30.8579C39.3647 29.6345 40.2872 28.6428 41.4252 28.6428C41.8506 28.6428 42.2458 28.7815 42.5741 29.019V24.9509H38.7906C39.0111 24.5981 39.1399 24.1735 39.1399 23.7166C39.1399 22.4932 38.2174 21.5015 37.0794 21.5015C35.9415 21.5015 35.019 22.4932 35.019 23.7166C35.019 24.1736 35.1478 24.5982 35.3683 24.9509H31.5847V29.0052C31.2605 28.7764 30.8727 28.6428 30.4557 28.6428C29.3178 28.6428 28.3953 29.6346 28.3953 30.858C28.3953 32.0813 29.3178 33.0731 30.4557 33.0731C30.8727 33.0731 31.2605 32.9396 31.5847 32.7107V36.7651H35.3642C35.1462 36.4137 35.0189 35.9916 35.0189 35.5375C35.0189 34.3141 35.9414 33.3224 37.0793 33.3224C38.2173 33.3224 39.1398 34.3141 39.1398 35.5375C39.1398 35.9916 39.0125 36.4137 38.7945 36.7651H42.574V32.6968C42.2459 32.9344 41.8506 33.073 41.4252 33.073Z" fill="#72CDED"/>
<path d="M30.4556 33.073C29.3177 33.073 28.3951 32.0813 28.3951 30.8579C28.3951 29.6345 29.3177 28.6428 30.4556 28.6428C30.881 28.6428 31.2762 28.7815 31.6046 29.019V24.9509H27.821C28.0416 24.5981 28.1704 24.1735 28.1704 23.7166C28.1704 22.4932 27.2479 21.5015 26.1099 21.5015C24.972 21.5015 24.0494 22.4932 24.0494 23.7166C24.0494 24.1736 24.1782 24.5982 24.3988 24.9509H20.6153V29.0052C20.291 28.7764 19.9032 28.6428 19.4863 28.6428C18.3483 28.6428 17.4258 29.6346 17.4258 30.858C17.4258 32.0813 18.3483 33.0731 19.4863 33.0731C19.9032 33.0731 20.291 32.9396 20.6153 32.7107V36.7651H24.3948C24.1768 36.4137 24.0494 35.9916 24.0494 35.5375C24.0494 34.3141 24.972 33.3224 26.1099 33.3224C27.2479 33.3224 28.1704 34.3141 28.1704 35.5375C28.1704 35.9916 28.0431 36.4137 27.825 36.7651H31.6046V32.6968C31.2764 32.9344 30.881 33.073 30.4556 33.073Z" fill="#FEC95B"/>
<path d="M38.2994 23.7098C38.2994 24.1667 38.1706 24.5913 37.95 24.944H38.7906C39.0112 24.5913 39.14 24.1667 39.14 23.7098C39.14 22.4864 38.2175 21.4946 37.0795 21.4946C36.9355 21.4946 36.7949 21.5106 36.6592 21.5409C37.5956 21.7496 38.2994 22.6413 38.2994 23.7098Z" fill="#A3DFEF"/>
<path d="M41.7334 24.944V28.6607C42.0411 28.7104 42.3266 28.833 42.574 29.012V24.9438H41.7334V24.944Z" fill="#A3DFEF"/>
<path d="M41.7334 36.7586H42.574V32.6904C42.3266 32.8694 42.0412 32.9921 41.7334 33.0417V36.7586Z" fill="#A3DFEF"/>
<path d="M27.3299 23.7166C27.3299 24.1736 27.2011 24.5982 26.9805 24.9509H27.8211C28.0417 24.5981 28.1705 24.1735 28.1705 23.7166C28.1705 22.4932 27.248 21.5015 26.11 21.5015C25.966 21.5015 25.8254 21.5174 25.6897 21.5477C26.6261 21.7564 27.3299 22.6481 27.3299 23.7166Z" fill="#FCE481"/>
<path d="M30.7642 24.9508V28.6675C31.0719 28.7172 31.3574 28.8398 31.6048 29.0188V24.9507H30.7642V24.9508Z" fill="#FCE481"/>
<path d="M30.7642 36.7649H31.6048V32.6968C31.3574 32.8758 31.0719 32.9985 30.7642 33.0481V36.7649Z" fill="#FCE481"/>
<path d="M27.3099 11.8958C27.3099 12.3528 27.1811 12.7774 26.9605 13.13H27.8011C28.0217 12.7773 28.1505 12.3527 28.1505 11.8958C28.1505 10.6724 27.228 9.68066 26.09 9.68066C25.946 9.68066 25.8054 9.69663 25.6697 9.72693C26.606 9.93562 27.3099 10.8273 27.3099 11.8958Z" fill="#92F4EA"/>
<path d="M30.7441 13.1299V16.8466C31.0519 16.8963 31.3374 17.0189 31.5848 17.1979V13.1299H30.7441Z" fill="#92F4EA"/>
<path d="M30.7441 24.9441H31.5848V20.876C31.3373 21.055 31.0519 21.1777 30.7441 21.2273V24.9441Z" fill="#92F4EA"/>
<path d="M41.4251 17.2797C41.7516 17.2797 42.0667 17.3828 42.3363 17.5779C42.4668 17.6724 42.6352 17.6818 42.7742 17.6022C42.9132 17.5228 43 17.3673 43 17.1981V13.1299C43 12.8771 42.8094 12.6721 42.5741 12.6721H39.4593C39.5297 12.4224 39.5658 12.1613 39.5658 11.8956C39.5658 10.4217 38.4504 9.22266 37.0794 9.22266C35.7084 9.22266 34.5931 10.4217 34.5931 11.8956C34.5931 12.1613 34.6293 12.4223 34.6996 12.6721H31.6048H31.5848H28.4898C28.5602 12.4224 28.5964 12.1613 28.5964 11.8956C28.5964 10.4217 27.481 9.22266 26.11 9.22266C24.7389 9.22266 23.6236 10.4217 23.6236 11.8956C23.6236 12.1613 23.6598 12.4223 23.7302 12.6721H20.6154C20.3801 12.6721 20.1895 12.8771 20.1895 13.1299V16.4727C19.9628 16.4009 19.7264 16.364 19.4864 16.364C18.1154 16.364 17 17.5631 17 19.037C17 20.5109 18.1154 21.71 19.4864 21.71C19.7264 21.71 19.9628 21.6731 20.1895 21.6013V24.9441C20.1895 24.9453 20.1896 24.9463 20.1896 24.9475C20.1896 24.9486 20.1895 24.9496 20.1895 24.9508V26.5426C20.1895 26.7955 20.3801 27.0004 20.6154 27.0004C20.8506 27.0004 21.0412 26.7955 21.0412 26.5426V25.4019H24.3949C24.552 25.4019 24.6963 25.3089 24.7704 25.16C24.8445 25.0111 24.8363 24.8304 24.7492 24.69C24.5701 24.4013 24.4754 24.0647 24.4754 23.7165C24.4754 22.7475 25.2087 21.9592 26.11 21.9592C27.0113 21.9592 27.7446 22.7475 27.7446 23.7165C27.7446 24.0647 27.6499 24.4013 27.4708 24.69C27.3836 24.8305 27.3755 25.0112 27.4496 25.16C27.5238 25.3089 27.6681 25.4019 27.8251 25.4019H31.1788V28.2997C30.9463 28.2238 30.7031 28.1848 30.4558 28.1848C29.0848 28.1848 27.9694 29.3839 27.9694 30.8578C27.9694 32.3317 29.0848 33.5308 30.4558 33.5308C30.7031 33.5308 30.9464 33.4918 31.1788 33.4159V36.307H28.4915C28.5608 36.0592 28.5964 35.8004 28.5964 35.5373C28.5964 34.0634 27.481 32.8643 26.11 32.8643C24.7391 32.8643 23.6237 34.0634 23.6237 35.5373C23.6237 35.8004 23.6592 36.0592 23.7285 36.307H21.0412V32.7105C21.0412 32.5423 20.9554 32.3875 20.8176 32.3076C20.6799 32.2277 20.5124 32.2354 20.3816 32.3278C20.1153 32.5158 19.8057 32.6151 19.4863 32.6151C18.5849 32.6151 17.8517 31.8268 17.8517 30.8578C17.8517 29.8888 18.585 29.1005 19.4863 29.1005C19.8057 29.1005 20.1153 29.1998 20.3816 29.3878C20.5125 29.4802 20.6799 29.4879 20.8176 29.408C20.9554 29.3281 21.0412 29.1733 21.0412 29.0051V28.0687C21.0412 27.8158 20.8506 27.6108 20.6154 27.6108C20.3801 27.6108 20.1895 27.8158 20.1895 28.0687V28.2935C19.9628 28.2216 19.7264 28.1848 19.4864 28.1848C18.1154 28.1848 17 29.3839 17 30.8577C17 32.3316 18.1154 33.5307 19.4864 33.5307C19.7264 33.5307 19.9628 33.4939 20.1895 33.422V36.7648C20.1895 37.0177 20.3801 37.2227 20.6154 37.2227H24.3949C24.552 37.2227 24.6963 37.1297 24.7704 36.9808C24.8445 36.8319 24.8363 36.6512 24.7492 36.5107C24.5701 36.222 24.4754 35.8854 24.4754 35.5372C24.4754 34.5682 25.2087 33.7799 26.11 33.7799C27.0113 33.7799 27.7446 34.5682 27.7446 35.5372C27.7446 35.8854 27.6499 36.222 27.4708 36.5107C27.3836 36.6512 27.3755 36.8319 27.4496 36.9808C27.5238 37.1297 27.6681 37.2227 27.8251 37.2227H31.5848H31.6048H35.3642C35.5214 37.2227 35.6656 37.1297 35.7398 36.9808C35.8139 36.8319 35.8057 36.6512 35.7185 36.5107C35.5394 36.222 35.4448 35.8854 35.4448 35.5372C35.4448 34.5682 36.178 33.7799 37.0794 33.7799C37.9807 33.7799 38.714 34.5682 38.714 35.5372C38.714 35.8854 38.6193 36.222 38.4402 36.5107C38.353 36.6512 38.3449 36.8319 38.419 36.9808C38.4931 37.1297 38.6374 37.2227 38.7945 37.2227H42.5741C42.8093 37.2227 42.9999 37.0177 42.9999 36.7648V32.6967C42.9999 32.5275 42.9132 32.3721 42.7742 32.2925C42.6352 32.213 42.4668 32.2224 42.3363 32.3168C42.0666 32.5118 41.7516 32.615 41.4251 32.615C40.5237 32.615 39.7905 31.8267 39.7905 30.8577C39.7905 29.8887 40.5237 29.1004 41.4251 29.1004C41.7515 29.1004 42.0666 29.2035 42.3363 29.3986C42.4668 29.493 42.6352 29.5024 42.7742 29.4228C42.9132 29.3434 42.9999 29.188 42.9999 29.0187V26.4407C42.9999 26.1878 42.8093 25.9829 42.5741 25.9829C42.3388 25.9829 42.1482 26.1878 42.1482 26.4407V28.2996C41.9157 28.2237 41.6725 28.1848 41.4251 28.1848C40.0541 28.1848 38.9388 29.3839 38.9388 30.8577C38.9388 32.3316 40.0542 33.5307 41.4251 33.5307C41.6725 33.5307 41.9157 33.4917 42.1482 33.4159V36.307H39.4609C39.5302 36.0592 39.5658 35.8004 39.5658 35.5372C39.5658 34.0633 38.4504 32.8642 37.0794 32.8642C35.7085 32.8642 34.5931 34.0633 34.5931 35.5372C34.5931 35.8003 34.6286 36.0592 34.6979 36.307H32.0306V32.6967C32.0306 32.5275 31.9439 32.3721 31.8049 32.2925C31.6659 32.213 31.4975 32.2224 31.3669 32.3168C31.0973 32.5118 30.7822 32.615 30.4558 32.615C29.5544 32.615 28.8212 31.8267 28.8212 30.8577C28.8212 29.8887 29.5544 29.1004 30.4558 29.1004C30.7822 29.1004 31.0973 29.2035 31.3669 29.3986C31.4975 29.493 31.6659 29.5025 31.8049 29.4228C31.9439 29.3434 32.0306 29.188 32.0306 29.0187V25.4018H35.3642C35.5214 25.4018 35.6656 25.3088 35.7398 25.1599C35.8139 25.011 35.8057 24.8303 35.7185 24.6898C35.5394 24.4011 35.4448 24.0645 35.4448 23.7163C35.4448 22.7473 36.178 21.959 37.0794 21.959C37.2154 21.959 37.3506 21.977 37.4809 22.0124C37.709 22.0741 37.9405 21.9257 37.9981 21.6805C38.0556 21.4353 37.9174 21.1864 37.6893 21.1245C37.4909 21.0706 37.2856 21.0433 37.0793 21.0433C35.7083 21.0433 34.593 22.2424 34.593 23.7163C34.593 23.9794 34.6285 24.2383 34.6978 24.4861H32.0305V20.8758C32.0305 20.7066 31.9438 20.5512 31.8048 20.4716C31.6658 20.3921 31.4974 20.4015 31.3668 20.4959C31.0972 20.691 30.7821 20.7941 30.4557 20.7941C29.5543 20.7941 28.8211 20.0057 28.8211 19.0368C28.8211 18.0678 29.5543 17.2795 30.4557 17.2795C30.7821 17.2795 31.0972 17.3826 31.3668 17.5777C31.4974 17.6722 31.6658 17.6816 31.8048 17.602C31.9438 17.5225 32.0305 17.3671 32.0305 17.1979V13.5878H35.3682C35.5256 13.5878 35.6701 13.4945 35.7441 13.3452C35.8181 13.1959 35.8095 13.0149 35.7217 12.8746C35.5405 12.5848 35.4447 12.2463 35.4447 11.8957C35.4447 10.9267 36.178 10.1385 37.0793 10.1385C37.9807 10.1385 38.7139 10.9268 38.7139 11.8957C38.7139 12.2465 38.6181 12.5849 38.437 12.8746C38.3492 13.0149 38.3406 13.196 38.4145 13.3453C38.4886 13.4946 38.633 13.5879 38.7904 13.5879H42.1481V16.479C41.9156 16.4031 41.6725 16.3641 41.4251 16.3641C40.0541 16.3641 38.9387 17.5632 38.9387 19.0371C38.9387 20.511 40.0541 21.71 41.4251 21.71C41.6724 21.71 41.9157 21.6711 42.1481 21.5952V24.4863H39.4609C39.5302 24.2385 39.5657 23.9796 39.5657 23.7165C39.5657 23.1639 39.4101 22.6334 39.1156 22.1824C38.9805 21.9754 38.7149 21.9255 38.5224 22.0707C38.3298 22.216 38.2833 22.5015 38.4185 22.7085C38.6118 23.0046 38.7139 23.3532 38.7139 23.7166C38.7139 24.0648 38.6192 24.4014 38.4401 24.6901C38.3529 24.8306 38.3448 25.0113 38.4189 25.1601C38.4931 25.3091 38.6374 25.402 38.7944 25.402H42.574C42.8093 25.402 42.9999 25.1971 42.9999 24.9442V20.8761C42.9999 20.7069 42.9131 20.5515 42.7741 20.472C42.6351 20.3924 42.4668 20.4018 42.3362 20.4962C42.0666 20.6913 41.7515 20.7944 41.425 20.7944C40.5237 20.7944 39.7904 20.0061 39.7904 19.0371C39.7904 18.0682 40.5238 17.2797 41.4251 17.2797ZM31.1788 16.4789C30.9463 16.403 30.7031 16.364 30.4558 16.364C29.0848 16.364 27.9694 17.5631 27.9694 19.037C27.9694 20.5108 29.0848 21.7099 30.4558 21.7099C30.7031 21.7099 30.9464 21.6709 31.1788 21.5951V24.4862H28.4916C28.5609 24.2384 28.5964 23.9795 28.5964 23.7164C28.5964 22.2425 27.481 21.0435 26.1101 21.0435C24.7391 21.0435 23.6237 22.2425 23.6237 23.7164C23.6237 23.9795 23.6593 24.2384 23.7285 24.4862H21.0412V20.8897C21.0412 20.7214 20.9554 20.5667 20.8176 20.4868C20.6799 20.4069 20.5124 20.4145 20.3816 20.507C20.1153 20.6949 19.8057 20.7942 19.4863 20.7942C18.5849 20.7942 17.8517 20.006 17.8517 19.037C17.8517 18.0679 18.585 17.2797 19.4863 17.2797C19.8057 17.2797 20.1152 17.379 20.3816 17.567C20.5125 17.6594 20.6799 17.6671 20.8176 17.5871C20.9554 17.5072 21.0412 17.3525 21.0412 17.1842V13.5878H24.3989C24.5562 13.5878 24.7007 13.4945 24.7747 13.3452C24.8487 13.1959 24.8401 13.0149 24.7523 12.8746C24.5712 12.5848 24.4754 12.2463 24.4754 11.8957C24.4754 10.9267 25.2087 10.1385 26.11 10.1385C27.0113 10.1385 27.7446 10.9268 27.7446 11.8957C27.7446 12.2465 27.6488 12.5849 27.4677 12.8746C27.3798 13.0149 27.3713 13.196 27.4452 13.3453C27.5192 13.4946 27.6637 13.5879 27.8211 13.5879H31.1788V16.4789L31.1788 16.4789Z" fill="black"/>
</g>
<defs>
<clipPath id="clip0_366_2484">
<rect width="26" height="28" fill="white" transform="translate(17 9.22266)"/>
</clipPath>
</defs>
</svg>
