<svg width="43" height="43" viewBox="0 0 43 43" fill="none" xmlns="http://www.w3.org/2000/svg">
<path fill-rule="evenodd" clip-rule="evenodd" d="M9.116 1.72C7.22428 1.72 5.35913 2.65808 3.94967 4.4199C2.53624 6.18669 1.72 8.6166 1.72 11.18V31.82C1.72 34.3834 2.53624 36.8133 3.94967 38.5801C5.35913 40.3419 7.22428 41.28 9.116 41.28H33.884C35.7757 41.28 37.6409 40.3419 39.0503 38.5801C40.4638 36.8133 41.28 34.3834 41.28 31.82V11.18C41.28 8.6166 40.4638 6.18669 39.0503 4.4199C37.6409 2.65808 35.7757 1.72 33.884 1.72H9.116ZM2.60658 3.34542C4.29373 1.23649 6.62847 0 9.116 0H33.884C36.3715 0 38.7063 1.23649 40.3934 3.34542C42.0766 5.44937 43 8.26933 43 11.18V31.82C43 34.7307 42.0766 37.5506 40.3934 39.6546C38.7063 41.7635 36.3715 43 33.884 43H9.116C6.62847 43 4.29373 41.7635 2.60658 39.6546C0.923417 37.5506 0 34.7307 0 31.82V11.18C0 8.26934 0.923417 5.44937 2.60658 3.34542Z" fill="#00CCFF"/>
</svg>
