<svg width="35" height="35" viewBox="0 0 35 35" fill="none" xmlns="http://www.w3.org/2000/svg">
<path d="M31.8965 1.3208H3.10623C2.1201 1.3208 1.32068 2.12022 1.32068 3.10635V31.8966C1.32068 32.8827 2.1201 33.6821 3.10623 33.6821H31.8965C32.8826 33.6821 33.682 32.8827 33.682 31.8966V3.10635C33.682 2.12022 32.8826 1.3208 31.8965 1.3208Z" fill="#3D5A98"/>
<path d="M23.6469 33.6793V21.1476H27.8524L28.4813 16.264H23.6469V13.1468C23.6469 11.7332 24.0407 10.7679 26.0668 10.7679H28.6535V6.39293C27.4009 6.26263 26.1422 6.20056 24.8828 6.207C21.1586 6.207 18.5938 8.47653 18.5938 12.6629V16.264H14.3883V21.1476H18.5938V33.6793H23.6469Z" fill="white"/>
</svg>

