<svg width="43" height="43" viewBox="0 0 43 43" fill="none" xmlns="http://www.w3.org/2000/svg">
<path d="M29.627 43V26.359H35.2003L36.034 19.8899H29.627V15.7619C29.627 13.889 30.1478 12.6109 32.8329 12.6109H36.2586V6.82506C34.6002 6.6491 32.9334 6.56377 31.2658 6.56944C26.3279 6.56944 22.9477 9.58422 22.9477 15.1217V19.8899H17.3624V26.359H22.9477V43H2.38889C1.75532 43 1.14769 42.7483 0.699689 42.3003C0.251686 41.8523 0 41.2447 0 40.6111V2.38889C0 1.75532 0.251686 1.14769 0.699689 0.699689C1.14769 0.251686 1.75532 0 2.38889 0H40.6111C41.2447 0 41.8523 0.251686 42.3003 0.699689C42.7483 1.14769 43 1.75532 43 2.38889V40.6111C43 41.2447 42.7483 41.8523 42.3003 42.3003C41.8523 42.7483 41.2447 43 40.6111 43H29.627Z" fill="#00CCFF"/>
</svg>
