<svg width="35" height="35" viewBox="0 0 35 35" fill="none" xmlns="http://www.w3.org/2000/svg">
<g clip-path="url(#clip0_263_1969)">
<path d="M12.1926 1.15099C8.69557 2.36415 5.67973 4.66676 3.58806 7.72061C1.49639 10.7745 0.439155 14.4186 0.571638 18.1177C0.704121 21.8168 2.01934 25.376 4.32412 28.2724C6.62889 31.1687 9.80173 33.2497 13.3766 34.2096C16.2748 34.9574 19.3113 34.9903 22.225 34.3053C24.8646 33.7124 27.3049 32.4442 29.3071 30.6248C31.3909 28.6734 32.9034 26.191 33.6821 23.4444C34.5284 20.4575 34.679 17.3164 34.1223 14.2623H17.8473V21.0135H27.2727C27.0843 22.0903 26.6806 23.1179 26.0858 24.0351C25.491 24.9522 24.7173 25.7399 23.811 26.351C22.66 27.1123 21.3626 27.6246 20.002 27.8549C18.6374 28.1086 17.2377 28.1086 15.8731 27.8549C14.49 27.5689 13.1816 26.9981 12.0313 26.1787C10.1833 24.8706 8.79564 23.0121 8.06644 20.8686C7.32492 18.6849 7.32492 16.3175 8.06644 14.1338C8.5855 12.6031 9.44357 11.2095 10.5766 10.0569C11.8732 8.71358 13.5148 7.7534 15.3212 7.28167C17.1276 6.80993 19.029 6.84486 20.8168 7.38263C22.2135 7.81136 23.4906 8.56043 24.5465 9.57013C25.6093 8.51284 26.6702 7.45281 27.7293 6.39005C28.2762 5.81857 28.8723 5.27443 29.411 4.68927C27.7992 3.1894 25.9074 2.02232 23.8438 1.2549C20.0859 -0.109583 15.9742 -0.146253 12.1926 1.15099Z" fill="white"/>
<path d="M12.1925 1.15134C15.9738 -0.146782 20.0855 -0.111078 23.8437 1.25252C25.9076 2.02515 27.7987 3.19785 29.4082 4.7033C28.8613 5.28845 28.2843 5.83533 27.7265 6.40408C26.6656 7.46319 25.6055 8.51866 24.5464 9.57048C23.4905 8.56078 22.2134 7.81171 20.8167 7.38298C19.0295 6.84333 17.1281 6.80638 15.3213 7.27619C13.5144 7.74599 11.8718 8.7044 10.5738 10.0463C9.44075 11.1989 8.58268 12.5926 8.06362 14.1232L2.39526 9.73455C4.42419 5.71108 7.93716 2.63344 12.1925 1.15134Z" fill="#E33629"/>
<path d="M0.891423 14.082C1.19609 12.5721 1.7019 11.1098 2.39533 9.73438L8.06369 14.134C7.32217 16.3177 7.32217 18.6851 8.06369 20.8688C6.17515 22.3271 4.28569 23.7927 2.39533 25.2656C0.659413 21.8102 0.129989 17.8732 0.891423 14.082Z" fill="#F8BD00"/>
<path d="M17.8473 14.2598H34.1223C34.679 17.3139 34.5284 20.455 33.6821 23.4418C32.9034 26.1884 31.3909 28.6709 29.3071 30.6223C27.4778 29.1949 25.6403 27.7785 23.811 26.3512C24.7179 25.7394 25.492 24.9509 26.0868 24.0328C26.6816 23.1147 27.085 22.0859 27.2727 21.0082H17.8473C17.8446 18.7605 17.8473 16.5102 17.8473 14.2598Z" fill="#587DBD"/>
<path d="M2.39258 25.2655C4.28294 23.8072 6.1724 22.3416 8.06094 20.8687C8.79158 23.0129 10.1812 24.8715 12.0312 26.1788C13.1852 26.9944 14.4964 27.5606 15.8813 27.8413C17.2459 28.095 18.6455 28.095 20.0102 27.8413C21.3708 27.611 22.6682 27.0987 23.8191 26.3374C25.6484 27.7647 27.4859 29.1812 29.3152 30.6085C27.3134 32.4288 24.873 33.698 22.2332 34.2917C19.3195 34.9767 16.283 34.9438 13.3848 34.196C11.0925 33.584 8.95146 32.505 7.0957 31.0269C5.1315 29.4674 3.52722 27.5022 2.39258 25.2655Z" fill="#319F43"/>
</g>
<defs>
<clipPath id="clip0_263_1969">
<rect width="35" height="35" fill="white"/>
</clipPath>
</defs>
</svg>
