<svg width="43" height="43" viewBox="0 0 43 43" fill="none" xmlns="http://www.w3.org/2000/svg">
<g clip-path="url(#clip0_336_2392)">
<path d="M21.5 0C15.656 0 14.9277 0.0282188 12.6407 0.124969C10.3442 0.237844 8.79081 0.593938 7.42019 1.12606C5.98568 1.66762 4.68655 2.51552 3.61334 3.61066C2.51515 4.68135 1.66678 5.98121 1.12875 7.4175C0.596623 8.78813 0.240529 10.3415 0.127654 12.638C0.0241856 14.9264 0.00268555 15.6533 0.00268555 21.4973C0.00268555 27.3413 0.0309043 28.0696 0.127654 30.3567C0.240529 32.6464 0.596623 34.2065 1.12875 35.5771C1.67031 37.0116 2.51821 38.3108 3.61334 39.384C4.68404 40.4822 5.9839 41.3305 7.42019 41.8686C8.79081 42.394 10.3509 42.7568 12.6407 42.8697C14.9291 42.9731 15.656 42.9946 21.5 42.9946C27.344 42.9946 28.0723 42.9664 30.3593 42.8697C32.6491 42.7568 34.2092 42.3926 35.5798 41.8686C37.0143 41.327 38.3135 40.4791 39.3867 39.384C40.4863 38.3144 41.3349 37.0142 41.8713 35.5771C42.3967 34.2065 42.7595 32.6464 42.8723 30.3567C42.9758 28.0683 42.9973 27.3413 42.9973 21.4973C42.9973 15.6533 42.9691 14.925 42.8723 12.638C42.7595 10.3482 42.3953 8.78006 41.8713 7.4175C41.3297 5.983 40.4818 4.68386 39.3867 3.61066C38.3171 2.51105 37.0169 1.66246 35.5798 1.12606C34.2092 0.593938 32.6491 0.237844 30.3593 0.124969C28.0709 0.0215 27.344 0 21.5 0ZM21.5 3.87C27.2392 3.87 27.9245 3.89822 30.1927 3.99497C32.2849 4.09306 33.4244 4.44244 34.181 4.73806C35.1163 5.0833 35.9628 5.6328 36.6588 6.34653C37.3714 7.03967 37.9188 7.88425 38.2606 8.81769C38.5562 9.57422 38.9056 10.7137 39.0037 12.8059C39.1004 15.0742 39.1287 15.7608 39.1287 21.4987C39.1287 27.2365 39.1004 27.9231 38.9956 30.1914C38.8828 32.2836 38.5334 33.4231 38.2391 34.1796C37.8319 35.1888 37.3778 35.8943 36.6279 36.6575C35.9295 37.3668 35.0835 37.9136 34.1501 38.2593C33.4029 38.5549 32.2473 38.9043 30.147 39.0023C27.8667 39.0991 27.1948 39.1273 21.4409 39.1273C15.6869 39.1273 15.0164 39.0991 12.7334 38.9943C10.6412 38.8814 9.48688 38.532 8.73034 38.2378C7.70909 37.8306 7.009 37.3764 6.25919 36.6266C5.50266 35.8701 5.02159 35.1498 4.65072 34.1487C4.34972 33.4016 4.00572 32.246 3.89419 30.1457C3.81759 27.8922 3.78131 27.1935 3.78131 21.4664C3.78131 15.742 3.81759 15.0419 3.89419 12.7603C4.00572 10.66 4.34972 9.50703 4.65072 8.75722C5.02159 7.73463 5.504 7.03588 6.25919 6.27934C7.00766 5.53088 7.70909 5.04713 8.73034 4.66819C9.48688 4.37391 10.6129 4.02453 12.7132 3.91972C14.9936 3.83775 15.6654 3.80819 21.4113 3.80819L21.5 3.87ZM21.5 10.4638C20.0506 10.4633 18.6152 10.7484 17.276 11.3028C15.9368 11.8572 14.7199 12.6701 13.695 13.695C12.6701 14.7199 11.8572 15.9368 11.3028 17.276C10.7483 18.6152 10.4633 20.0506 10.4638 21.5C10.4633 22.9494 10.7483 24.3848 11.3028 25.724C11.8572 27.0632 12.6701 28.2801 13.695 29.305C14.7199 30.3299 15.9368 31.1428 17.276 31.6972C18.6152 32.2517 20.0506 32.5368 21.5 32.5362C22.9494 32.5368 24.3848 32.2517 25.724 31.6972C27.0632 31.1428 28.2801 30.3299 29.305 29.305C30.3299 28.2801 31.1428 27.0632 31.6972 25.724C32.2517 24.3848 32.5368 22.9494 32.5362 21.5C32.5368 20.0506 32.2517 18.6152 31.6972 17.276C31.1428 15.9368 30.3299 14.7199 29.305 13.695C28.2801 12.6701 27.0632 11.8572 25.724 11.3028C24.3848 10.7484 22.9494 10.4633 21.5 10.4638ZM21.5 28.6662C17.5386 28.6662 14.3338 25.4614 14.3338 21.5C14.3338 17.5386 17.5386 14.3338 21.5 14.3338C25.4614 14.3338 28.6662 17.5386 28.6662 21.5C28.6662 25.4614 25.4614 28.6662 21.5 28.6662ZM35.561 10.023C35.5603 10.7079 35.2877 11.3645 34.8032 11.8485C34.3187 12.3325 33.6618 12.6044 32.977 12.6044C32.6383 12.6044 32.303 12.5377 31.9902 12.4081C31.6773 12.2785 31.393 12.0886 31.1536 11.8491C30.9141 11.6097 30.7242 11.3254 30.5946 11.0125C30.465 10.6997 30.3983 10.3644 30.3983 10.0257C30.3983 9.68709 30.465 9.35177 30.5946 9.03891C30.7242 8.72605 30.9141 8.44178 31.1536 8.20233C31.393 7.96288 31.6773 7.77294 31.9902 7.64335C32.303 7.51376 32.6383 7.44706 32.977 7.44706C34.3973 7.44706 35.561 8.60269 35.561 10.023Z" fill="#00CCFF"/>
</g>
<defs>
<clipPath id="clip0_336_2392">
<rect width="43" height="43" fill="white"/>
</clipPath>
</defs>
</svg>
