<svg width="60" height="49" viewBox="0 0 60 49" fill="none" xmlns="http://www.w3.org/2000/svg">
<path d="M44.7678 19.418L34.9322 11.1653L45.9909 1.91047L45.9924 1.90926C46.3216 1.63302 46.814 1.45833 47.3545 1.45833C47.8971 1.45833 48.3556 1.63335 48.6395 1.88449L48.6538 1.89706L48.6683 1.90926L56.2205 8.24603L56.2349 8.25812L56.2496 8.26983C56.7561 8.673 56.8034 9.34093 56.2205 9.83L56.1788 9.86496C55.6608 10.2995 55.0553 10.8075 54.5799 11.3327C54.1286 11.8314 53.5625 12.5892 53.5083 13.5489C53.4133 14.6167 54.0372 15.4553 54.4702 15.9385C54.9406 16.4634 55.5506 16.9591 56.0366 17.354L56.0566 17.3702C56.1599 17.4605 56.2608 17.5483 56.3592 17.6339C57.0332 18.2205 57.5896 18.7047 58.0091 19.18C58.5083 19.7454 58.545 20.0093 58.5414 20.0836C58.5354 20.2068 58.4199 20.5565 57.839 21.1885C57.2947 21.7807 56.5538 22.4002 55.715 23.0902L55.7089 23.0953L55.7028 23.1004L43.311 33.523L40.9996 31.5836L53.3819 21.2185L54.7162 20.1016L53.3832 18.9831L50.2849 16.3834L49.3508 15.5997L48.414 16.3802L44.7678 19.418ZM1.45833 47.2928V39.2756L30.8548 14.5844L40.689 22.836L11.5717 47.2928H1.45833Z" stroke="#131313" stroke-width="2.91667"/>
</svg>
