<svg width="55" height="55" viewBox="0 0 55 55" fill="none" xmlns="http://www.w3.org/2000/svg">
<path d="M48.125 8.59375C48.8085 8.59298 49.4638 8.32111 49.9472 7.83779C50.4305 7.35446 50.7024 6.69915 50.7031 6.01562V1.71875H47.2656V5.15625H28.3594C27.6758 5.15702 27.0205 5.42889 26.5372 5.91221C26.0539 6.39554 25.782 7.05085 25.7812 7.73438V12.0312H22.4109C19.8868 12.0341 17.467 13.038 15.6822 14.8228C13.8974 16.6076 12.8935 19.0275 12.8906 21.5515V38.7332C12.8906 46.7551 19.4168 53.2812 27.4387 53.2812H27.5613C35.5832 53.2812 42.1094 46.7551 42.1094 38.7332V21.5515C42.1065 19.0275 41.1026 16.6076 39.3178 14.8228C37.533 13.038 35.1132 12.0341 32.5891 12.0312H29.2188V8.59375H48.125ZM16.3281 21.5515C16.33 19.9388 16.9714 18.3927 18.1118 17.2524C19.2521 16.1121 20.7982 15.4706 22.4109 15.4688H25.7812V24.9219H16.3281V21.5515ZM38.6719 38.7332C38.6686 41.6789 37.4969 44.503 35.414 46.5859C33.3311 48.6688 30.507 49.8405 27.5613 49.8438H27.4387C24.493 49.8405 21.6689 48.6688 19.586 46.5859C17.5031 44.503 16.3314 41.6789 16.3281 38.7332V28.3594H38.6719V38.7332ZM32.5891 15.4688C34.2018 15.4706 35.7479 16.1121 36.8882 17.2524C38.0286 18.3927 38.67 19.9388 38.6719 21.5515V24.9219H29.2188V15.4688H32.5891Z" fill="#F4F4F4"/>
</svg>
