<svg width="59" height="48" viewBox="0 0 59 48" fill="none" xmlns="http://www.w3.org/2000/svg">
<path fill-rule="evenodd" clip-rule="evenodd" d="M34.8401 14.5967H41.0001L40.6882 21.476C40.6175 23.0374 39.1827 24.3031 37.4824 24.3031H34.8401V14.5967Z" stroke="#ED9111" stroke-width="1.77642" stroke-linecap="round"/>
<path fill-rule="evenodd" clip-rule="evenodd" d="M25.1599 14.5967H18.9999L19.3118 21.476C19.3825 23.0374 20.8173 24.3031 22.5176 24.3031H25.1599V14.5967Z" stroke="#ED9111" stroke-width="1.77642" stroke-linecap="round"/>
<path fill-rule="evenodd" clip-rule="evenodd" d="M29.1201 27.9429H30.8801V31.1783H29.1201V27.9429Z" fill="#ED9111"/>
<path fill-rule="evenodd" clip-rule="evenodd" d="M21.1554 12.2227C20.8983 13.3746 20.76 14.5967 20.76 15.8626C20.76 22.7868 24.8969 28.4 30 28.4C35.1031 28.4 39.24 22.7868 39.24 15.8626C39.24 14.5967 39.1017 13.3746 38.8446 12.2227H21.1554Z" fill="#FCC24C"/>
<path fill-rule="evenodd" clip-rule="evenodd" d="M24.72 31.1782H35.28V34.8181H24.72V31.1782Z" fill="#D8D8D8"/>
<path fill-rule="evenodd" clip-rule="evenodd" d="M26.48 31.9873H33.52V34.0095H26.48V31.9873Z" fill="#5EA7FF"/>
<path d="M23.8401 35.2227H36.1679" stroke="#979797" stroke-width="1.77642" stroke-linecap="square"/>
</svg>
