<svg width="59" height="48" viewBox="0 0 59 48" fill="none" xmlns="http://www.w3.org/2000/svg">
<g clip-path="url(#clip0_366_2463)">
<path d="M34.1507 37.2227C34.0604 37.2227 33.9249 37.1761 33.8346 37.1294C33.654 36.9894 33.5637 36.8027 33.6089 36.6161C33.6089 36.5694 34.7377 31.5761 28.0553 26.1161C27.8296 25.9294 27.8296 25.6027 28.0102 25.4161C28.1908 25.1827 28.552 25.1827 28.7326 25.3694C34.0604 29.7561 34.7828 33.8161 34.7377 35.7761C39.027 32.9294 41.42 29.9894 41.9167 27.0027C42.323 24.2494 40.8782 22.5694 40.833 22.4761C40.6524 22.2427 40.6976 21.9627 40.8782 21.7761C41.1039 21.5894 41.42 21.6361 41.6006 21.8227C41.6909 21.9161 43.4066 23.9227 42.91 27.0961C42.3682 30.5494 39.5237 33.9561 34.3313 37.1761C34.3764 37.1761 34.241 37.2227 34.1507 37.2227Z" fill="#D0D0D0"/>
<path d="M29.455 37.2227C29.3195 37.2227 29.2292 37.176 29.0938 37.0827C28.9132 36.9427 28.868 36.7093 28.9583 36.476C29.0486 36.2893 30.945 32.136 25.8429 26.5827C25.6623 26.3493 25.6623 26.0693 25.8881 25.8827C26.1138 25.696 26.4299 25.696 26.6105 25.9293C30.4032 30.0827 30.6289 33.5827 30.3129 35.4493C38.9367 29.1027 38.124 23.7827 38.124 23.736C38.0788 23.5027 38.2143 23.316 38.3949 23.176C38.6206 23.0827 38.8464 23.1293 39.027 23.2693C44.8063 29.336 40.833 33.0227 40.833 33.0693C40.6073 33.256 40.2912 33.256 40.0655 33.0693C39.8849 32.8827 39.8849 32.556 40.0655 32.3693C40.2009 32.2293 42.8648 29.6627 39.1173 25.0427C38.8464 27.3293 37.3113 31.996 29.6808 37.1293C29.6356 37.176 29.5453 37.2227 29.455 37.2227Z" fill="#D0D0D0"/>
<path d="M38.2594 37.223H38.1239C37.853 37.1296 37.6724 36.8496 37.7627 36.6163C37.8078 36.4296 39.0721 31.8563 33.1573 26.583C32.7058 28.2163 31.261 31.763 27.0619 35.2163C26.8362 35.403 26.5201 35.3563 26.3395 35.1696C26.1589 34.9363 26.1589 34.6563 26.3847 34.4696C31.6222 30.1763 32.3446 25.603 32.3446 25.5563C32.3897 25.3696 32.48 25.2296 32.6606 25.1363C32.8412 25.0896 33.0218 25.0896 33.2024 25.2296C40.4266 31.1563 38.8915 36.6163 38.8012 36.8496C38.7109 37.083 38.4851 37.223 38.2594 37.223Z" fill="#D0D0D0"/>
<path d="M28.8681 27.5159C23.1339 27.5159 23.8563 24.6226 24.6239 23.5492C26.746 20.6092 34.7829 17.6226 39.0271 17.6226C43.9034 17.6226 43.1358 20.4226 42.0973 21.8226C39.7946 25.0426 33.1123 27.5159 28.8681 27.5159ZM39.0271 19.0692C35.5504 19.0692 29.139 21.4959 27.0169 23.5959C26.6106 24.0159 25.843 25.1359 28.9133 25.1359C32.7059 25.1359 38.4852 22.7092 40.2461 20.5626C40.8331 19.7692 41.1492 19.0692 39.0271 19.0692Z" fill="#ED4C5C"/>
<path d="M25.0302 27.8893C30.0174 27.8893 34.0604 23.7106 34.0604 18.556C34.0604 13.4013 30.0174 9.22266 25.0302 9.22266C20.043 9.22266 16 13.4013 16 18.556C16 23.7106 20.043 27.8893 25.0302 27.8893Z" fill="#FF8736"/>
<path d="M18.6188 12.0226C18.7994 12.8159 19.1154 13.5159 19.4766 14.2159C19.8378 14.9159 20.2442 15.6159 20.6505 16.2692C21.5084 17.5759 22.4114 18.8826 23.4048 20.0959C24.3981 21.3092 25.4365 22.4759 26.5653 23.5492C27.1523 24.0626 27.7392 24.5759 28.3714 24.9959C29.0035 25.4626 29.6807 25.7892 30.4483 26.0226C29.6807 25.9759 28.9132 25.6492 28.1908 25.2759C27.4683 24.9026 26.8362 24.4359 26.2041 23.9226C24.985 22.8959 23.8563 21.7292 22.8629 20.5159C21.8696 19.2559 20.9666 17.9492 20.199 16.5026C19.8378 15.8492 19.4766 15.1026 19.1606 14.3559C18.8897 13.6092 18.6639 12.8159 18.6188 12.0226ZM16 18.3226C16.5418 19.4892 17.2191 20.5626 18.0318 21.4492C18.8897 22.3359 19.883 23.0359 21.0118 23.5492C22.0954 24.0626 23.3145 24.4359 24.4432 24.9492C25.0302 25.2292 25.6171 25.5092 26.1138 25.9759C26.6105 26.3959 26.9717 27.0492 27.062 27.6559C26.8362 27.0492 26.4299 26.5826 25.9332 26.2559C25.4365 25.9292 24.8496 25.6959 24.2626 25.5092C23.0887 25.0892 21.8696 24.7626 20.6957 24.2026C19.5218 23.6426 18.4381 22.8959 17.6254 21.8692C16.8127 20.7959 16.2709 19.5826 16 18.3226ZM32.2995 24.1092C31.5771 24.4359 30.7192 24.5759 29.9065 24.2026C29.0938 23.8292 28.6423 22.9892 28.3262 22.2426C27.6941 20.6559 27.4683 19.0226 27.1523 17.4359C26.8362 15.8492 26.475 14.2626 25.7978 12.8626C25.1205 11.4626 23.9917 10.2026 22.5017 9.64258C23.2693 9.82924 24.0369 10.2026 24.669 10.7159C25.3011 11.2292 25.8429 11.9292 26.2493 12.6292C27.062 14.0759 27.4683 15.7559 27.8295 17.3426L28.2811 19.7692C28.4165 20.5626 28.5971 21.3559 28.868 22.1026C29.1389 22.8492 29.455 23.5492 30.0871 23.9692C30.6741 24.3426 31.5319 24.2959 32.2995 24.1092Z" fill="#231F20"/>
<path d="M30.2678 10.9492C30.6741 11.2292 30.9902 11.6492 31.2159 12.1159C31.4417 12.5826 31.6674 13.0492 31.8029 13.5626C32.1189 14.5426 32.2544 15.5692 32.2995 16.6426C32.3898 18.6959 31.8932 20.8892 30.7644 22.6626C30.1775 23.5492 29.455 24.2959 28.5972 24.9026C27.7393 25.5092 26.7911 25.9292 25.7978 26.1626C23.8563 26.6759 21.7794 26.6292 19.8379 26.3026C21.8245 26.3492 23.8112 26.2559 25.6172 25.6492C27.4684 25.0426 29.0938 23.9226 30.1323 22.2892C31.2159 20.6559 31.6674 18.6492 31.7126 16.6892C31.7126 15.7092 31.6223 14.6826 31.4417 13.7026C31.2611 12.6759 30.9902 11.6492 30.2678 10.9492Z" fill="#231F20"/>
</g>
<defs>
<clipPath id="clip0_366_2463">
<rect width="27" height="28" fill="white" transform="translate(16 9.22266)"/>
</clipPath>
</defs>
</svg>
