<svg width="59" height="48" viewBox="0 0 59 48" fill="none" xmlns="http://www.w3.org/2000/svg">
<g clip-path="url(#clip0_366_2491)">
<path d="M43.0023 18.2637C42.8358 17.8599 42.648 17.4644 42.4388 17.0771C42.3212 16.8578 42.1963 16.6399 42.0641 16.4264C41.4962 15.5057 40.8035 14.6357 39.9858 13.818C37.3091 11.1413 34.0761 9.80225 30.2898 9.80225C26.5035 9.80225 23.2721 11.1413 20.5954 13.818C17.9187 16.4947 16.5796 19.7262 16.5796 23.5125C16.5796 27.2988 17.9187 30.5317 20.5954 33.2084C23.2721 35.8851 26.5035 37.2228 30.2898 37.2228C34.0761 37.2228 37.3091 35.8851 39.9858 33.2084C41.4599 31.7328 42.5289 30.0888 43.1911 28.2777C43.73 26.8006 44.0001 25.2132 44.0001 23.5125C44.0001 22.2083 43.8418 20.9694 43.5237 19.7959C43.4874 19.6638 43.4497 19.5316 43.4104 19.4009C43.2913 19.0145 43.1548 18.6355 43.0023 18.2637Z" fill="black" fill-opacity="0.098039"/>
<path d="M39.4063 13.2385L39.4056 13.2378L37.5749 15.0685C39.7461 17.2398 40.8325 19.8613 40.8325 22.933C40.8325 26.0047 39.7461 28.6262 37.5749 30.7975C35.9903 32.382 34.1676 33.3885 32.1038 33.817C31.3384 33.9753 30.5411 34.0552 29.7103 34.0552C26.6386 34.0552 24.0171 32.9688 21.8458 30.7975L20.0151 32.6282L20.0159 32.6289C21.6628 34.2745 23.5175 35.4146 25.5668 36.0434C26.6343 36.3702 27.7395 36.5619 28.8999 36.6229H28.9116C29.1585 36.636 29.3937 36.6433 29.6232 36.6433H29.7103C30.0095 36.6433 30.3058 36.6345 30.5847 36.62C30.6573 36.6157 30.7226 36.6113 30.7865 36.607C31.3733 36.5648 31.9455 36.4893 32.4916 36.3833C32.7225 36.3383 32.9506 36.2874 33.1713 36.2337C35.5183 35.644 37.5908 34.4444 39.4063 32.6289C39.6154 32.4198 39.8173 32.2063 40.0105 31.9899C41.1186 30.7496 41.9566 29.396 42.5245 27.9291C43.0604 26.545 43.3567 25.0593 43.4119 23.4704C43.4177 23.2946 43.4206 23.1145 43.4206 22.933C43.4206 22.9141 43.4206 22.8938 43.4206 22.8749C43.4206 22.8647 43.4206 22.856 43.4206 22.8459C43.4148 21.6651 43.2768 20.5366 43.0052 19.4473C42.9733 19.321 42.937 19.1859 42.8992 19.0523C42.8702 18.9535 42.8411 18.8533 42.8077 18.7473C42.7612 18.5977 42.7089 18.4423 42.6538 18.2869C42.4664 17.7568 42.2427 17.2398 41.9813 16.7285C41.8709 16.5136 41.7504 16.2943 41.624 16.0779C41.0344 15.0758 40.2937 14.1259 39.4063 13.2385Z" fill="#51545A"/>
<path d="M37.5748 15.0684L39.4055 13.2377L39.4062 13.2384C38.0889 11.9211 36.6365 10.9292 35.052 10.2596C34.1022 9.85879 33.0942 9.57122 32.0384 9.40275C31.5664 9.32723 31.0856 9.27494 30.5846 9.24735C30.3028 9.23137 30.008 9.22266 29.7103 9.22266C29.4387 9.22266 29.17 9.22992 28.8998 9.24444C25.4621 9.42163 22.5008 10.7534 20.0158 13.2384C17.3386 15.9156 16 19.1471 16 22.9329C16 26.7192 17.3391 29.9522 20.0158 32.6288L20.015 32.6281L21.8457 30.7974C19.6745 28.6262 18.5881 26.0046 18.5881 22.9329C18.5881 19.8612 19.6745 17.2397 21.8457 15.0684C23.3867 13.5274 25.1528 12.534 27.1454 12.0867C27.9631 11.9023 28.8171 11.8108 29.7103 11.8108C32.782 11.8108 35.4035 12.8971 37.5748 15.0684Z" fill="#36373B"/>
<path d="M37.5748 30.7975C39.7461 28.6262 40.8324 26.0047 40.8324 22.9329C40.8324 19.8612 39.7461 17.2397 37.5748 15.0684C35.4035 12.8972 32.782 11.8108 29.7103 11.8108C28.8171 11.8108 27.9631 11.9023 27.1454 12.0867C25.1528 12.5341 23.3867 13.5275 21.8458 15.0684C19.6745 17.2397 18.5881 19.8612 18.5881 22.9329C18.5881 26.0047 19.6745 28.6262 21.8458 30.7975C24.017 32.9687 26.6386 34.0551 29.7103 34.0551C30.541 34.0551 31.3384 33.9752 32.1038 33.8169C34.1676 33.3885 35.9903 32.382 37.5748 30.7975Z" fill="#45474C"/>
<path d="M43.0051 19.4473C42.9732 19.3209 42.9369 19.1858 42.8991 19.0522C42.8701 18.9535 42.841 18.8532 42.8076 18.7472C42.7611 18.5976 42.7089 18.4422 42.6537 18.2868C42.4663 17.7567 42.2426 17.2397 41.9812 16.7284C41.8708 16.5135 41.7503 16.2942 41.6239 16.0778C41.0343 15.0757 40.2936 14.1258 39.4062 13.2384C38.0918 11.924 36.6424 10.9321 35.052 10.2596C34.1022 9.85879 33.0942 9.57122 32.0384 9.40275C31.5664 9.32723 31.0856 9.27494 30.5846 9.24735C30.3028 9.23137 30.008 9.22266 29.7103 9.22266C29.4387 9.22266 29.17 9.22992 28.8998 9.24444C25.4621 9.42163 22.5008 10.7534 20.0158 13.2384C17.3386 15.9156 16 19.1471 16 22.9329C16 26.7192 17.3391 29.9522 20.0158 32.6288C21.6627 34.2744 23.5174 35.4145 25.5667 36.0433C26.6342 36.3701 27.7394 36.5618 28.8998 36.6228H28.9115C29.1584 36.6359 29.3936 36.6432 29.6231 36.6432H29.7103C30.0094 36.6432 30.3057 36.6345 30.5846 36.6199C30.6572 36.6156 30.7225 36.6112 30.7865 36.6069C31.3732 36.5647 31.9454 36.4892 32.4915 36.3832C32.7224 36.3382 32.9505 36.2873 33.1712 36.2336C35.5182 35.6439 37.5907 34.4443 39.4062 32.6288C39.6153 32.4197 39.8172 32.2062 40.0104 31.9898C41.1185 30.7495 41.9565 29.3959 42.5244 27.929C43.0603 26.5449 43.3566 25.0592 43.4118 23.4703C43.4176 23.2945 43.4205 23.1145 43.4205 22.9329C43.4205 22.914 43.4205 22.8937 43.4205 22.8748C43.4205 22.8647 43.4205 22.8559 43.4205 22.8458C43.4147 21.665 43.2767 20.5365 43.0051 19.4473Z" fill="#45474C"/>
<path d="M24.5819 28.2543V29.4743H24.9886V29.6689L29.3471 25.3104V17.7915L27.8091 23.4252L22.98 28.2543H24.5819ZM34.8385 29.4743V28.2543H36.4404L31.6113 23.4252L30.0733 17.7915V25.3104L34.4318 29.6689V29.4743H34.8385Z" fill="white"/>
<path d="M36.2852 16.3885C36.2794 16.3827 36.275 16.3784 36.2707 16.374L36.2699 16.3733L34.7057 17.9375L34.7065 17.9382C34.7108 17.9426 34.7166 17.9484 34.721 17.9527C36.1036 19.3354 36.795 21.0056 36.7964 22.9619C36.795 24.9182 36.1036 26.5884 34.721 27.9725C33.3369 29.3552 31.6667 30.0465 29.7104 30.048C27.754 30.0465 26.0838 29.3552 24.7012 27.9725C23.3171 26.5884 22.6258 24.9182 22.6258 22.9619C22.6258 21.0056 23.3171 19.3354 24.7012 17.9527C24.7055 17.9484 24.7099 17.9426 24.7157 17.9382L24.715 17.9375L23.1508 16.3733L23.1515 16.374C23.1472 16.3784 23.1413 16.3827 23.137 16.3885C21.3201 18.204 20.4124 20.3956 20.4138 22.9619C20.4124 25.5282 21.3201 27.7198 23.137 29.5367C24.9524 31.3522 27.144 32.2599 29.7104 32.2599C32.2767 32.2599 34.4683 31.3522 36.2852 29.5367L36.2845 29.536C38.0999 27.7205 39.0077 25.5291 39.0076 22.9619H39.0084C39.0084 20.3956 38.1006 18.204 36.2852 16.3885Z" fill="white"/>
<path d="M34.7056 17.9374L36.2698 16.3732L36.2705 16.3739C34.4565 14.5672 32.2707 13.6638 29.7102 13.6653C27.1497 13.6638 24.9639 14.5672 23.1514 16.3739L23.1506 16.3732L24.7148 17.9374L24.7155 17.9381C26.0953 16.5642 27.7597 15.8772 29.7102 15.8772C31.6607 15.8772 33.3251 16.5642 34.7063 17.9381" fill="#E2A100"/>
</g>
<defs>
<clipPath id="clip0_366_2491">
<rect width="28" height="28" fill="white" transform="translate(16 9.22266)"/>
</clipPath>
</defs>
</svg>
