<svg width="59" height="48" viewBox="0 0 59 48" fill="none" xmlns="http://www.w3.org/2000/svg">
<g clip-path="url(#clip0_366_2498)">
<path fill-rule="evenodd" clip-rule="evenodd" d="M19.3809 30.8127C19.3809 26.2277 22.4785 22.2509 26.3056 21.9297L41.9999 20.6125L38.3278 31.6687C37.309 34.7361 34.2473 37.2227 31.4847 37.2227H23.2723C21.1231 37.2227 19.3809 35.1383 19.3809 32.5678V30.8127Z" fill="#FCC24C"/>
<path fill-rule="evenodd" clip-rule="evenodd" d="M28.5081 26.7819C28.5081 24.423 30.1082 22.5107 32.0783 22.5107H40.016L38.514 27.082C37.7934 29.2752 35.6133 31.0531 33.6387 31.0531H32.0785C30.1066 31.0531 28.5081 29.1414 28.5081 26.7819Z" fill="#ED9111"/>
<path fill-rule="evenodd" clip-rule="evenodd" d="M22.9524 15.8667H29.6984V23.9345H22.9524V15.8667Z" fill="#FCC24C"/>
<path d="M24.143 22.5108C27.2112 22.5108 29.6985 19.5361 29.6985 15.8667C29.6985 12.1973 27.2112 9.22266 24.143 9.22266C21.0747 9.22266 18.5874 12.1973 18.5874 15.8667C18.5874 19.5361 21.0747 22.5108 24.143 22.5108Z" fill="#FCC24C"/>
<path d="M24.9366 16.3414C25.5941 16.3414 26.127 15.7039 26.127 14.9176C26.127 14.1313 25.5941 13.4939 24.9366 13.4939C24.2791 13.4939 23.7461 14.1313 23.7461 14.9176C23.7461 15.7039 24.2791 16.3414 24.9366 16.3414Z" fill="#5B68C0"/>
<path d="M19.9762 15.3922C20.5241 15.3922 20.9683 14.861 20.9683 14.2057C20.9683 13.5505 20.5241 13.0193 19.9762 13.0193C19.4283 13.0193 18.9841 13.5505 18.9841 14.2057C18.9841 14.861 19.4283 15.3922 19.9762 15.3922Z" fill="#5B68C0"/>
<path fill-rule="evenodd" clip-rule="evenodd" d="M20.5036 16.7593L17 19.4525C17 19.4525 17.932 21.7064 22.0581 20.4294C26.1842 19.1523 20.5036 16.7593 20.5036 16.7593Z" fill="#ED9111"/>
</g>
<defs>
<clipPath id="clip0_366_2498">
<rect width="25" height="28" fill="white" transform="translate(17 9.22266)"/>
</clipPath>
</defs>
</svg>
