<svg width="59" height="48" viewBox="0 0 59 48" fill="none" xmlns="http://www.w3.org/2000/svg">
<g clip-path="url(#clip0_366_2456)">
<path d="M37.0132 9.60449C32.8839 7.78037 29.5205 13.0844 29.5205 13.0844C29.5205 13.0844 26.3007 8.02157 22.1027 9.59193C15.5237 12.0542 16.1128 21.891 19.3513 26.9462C22.4503 31.7829 28.8961 36.6925 29.5205 37.185V37.2151C29.5205 37.2201 29.5226 37.2227 29.5226 37.2227C29.5226 37.2227 29.5267 37.2151 29.5351 37.2076C29.5434 37.2151 29.5309 37.2227 29.5309 37.2227C29.5309 37.2227 29.5205 37.2201 29.5205 37.2151V37.185C30.1449 36.6925 36.5699 31.4035 39.6669 26.5668C42.9054 21.509 43.4132 12.4311 37.0132 9.60449Z" fill="url(#paint0_linear_366_2456)"/>
</g>
<defs>
<linearGradient id="paint0_linear_366_2456" x1="29.5002" y1="9.28833" x2="29.5002" y2="34.0878" gradientUnits="userSpaceOnUse">
<stop stop-color="#FF4D4A"/>
<stop offset="0.9693" stop-color="#E53935"/>
</linearGradient>
<clipPath id="clip0_366_2456">
<rect width="25" height="28" fill="white" transform="translate(17 9.22266)"/>
</clipPath>
</defs>
</svg>
