<svg width="59" height="42" viewBox="0 0 59 42" fill="none" xmlns="http://www.w3.org/2000/svg">
<g clip-path="url(#clip0_366_2505)">
<path d="M18.6109 20.8835L18.2156 16.2835C18.2156 16.2835 21.3421 14.9897 22.4203 14.8101C24.1453 14.5226 27.4515 14.0913 29.5 14.0913C31.5484 14.0913 34.8187 14.5226 36.5796 14.8101C37.6937 14.9897 40.7843 16.2835 40.7843 16.2835L40.389 20.8835L36.0406 21.2069C35.9687 26.1304 36.7234 32.1679 36.975 34.1804C36.975 34.1804 33.7765 34.3241 29.5 34.3601C25.2234 34.3241 22.025 34.1804 22.025 34.1804C22.2765 32.1679 23.0312 26.1304 22.9593 21.2069L18.6109 20.8835Z" fill="#FF99B6"/>
<path d="M29.5 16.679H29.9313V34.3602H29.5V16.679Z" fill="#FF78A5"/>
<path d="M27.4517 14.2351H31.5845V16.7507H27.4517V14.2351Z" fill="#FF78A5"/>
<path d="M25.8345 12.2227H33.1657V14.5945H25.8345V12.2227Z" fill="#FF99B6"/>
<path d="M33.1656 12.2227L34.5672 14.4508L31.9078 18.5836L29.5 16.7508L33.1656 12.2227Z" fill="#FFD2DF"/>
<path d="M25.8344 12.2227L24.4329 14.4508L27.0922 18.5836L29.5 16.7508L25.8344 12.2227Z" fill="#FFD2DF"/>
<path d="M28.386 20.4884C28.9021 20.4884 29.3204 20.07 29.3204 19.554C29.3204 19.038 28.9021 18.6196 28.386 18.6196C27.87 18.6196 27.4517 19.038 27.4517 19.554C27.4517 20.07 27.87 20.4884 28.386 20.4884Z" fill="#FF78A5"/>
<path d="M28.386 20.2728C28.8822 20.2728 29.2844 19.9027 29.2844 19.4462C29.2844 18.9897 28.8822 18.6196 28.386 18.6196C27.8898 18.6196 27.4875 18.9897 27.4875 19.4462C27.4875 19.9027 27.8898 20.2728 28.386 20.2728Z" fill="#FFF3F7"/>
<path d="M28.386 23.5431C28.9021 23.5431 29.3204 23.1247 29.3204 22.6087C29.3204 22.0927 28.9021 21.6743 28.386 21.6743C27.87 21.6743 27.4517 22.0927 27.4517 22.6087C27.4517 23.1247 27.87 23.5431 28.386 23.5431Z" fill="#FF78A5"/>
<path d="M28.386 23.3274C28.8822 23.3274 29.2844 22.9574 29.2844 22.5009C29.2844 22.0444 28.8822 21.6743 28.386 21.6743C27.8898 21.6743 27.4875 22.0444 27.4875 22.5009C27.4875 22.9574 27.8898 23.3274 28.386 23.3274Z" fill="#FFF3F7"/>
<path d="M28.386 26.5978C28.9021 26.5978 29.3204 26.1794 29.3204 25.6634C29.3204 25.1473 28.9021 24.729 28.386 24.729C27.87 24.729 27.4517 25.1473 27.4517 25.6634C27.4517 26.1794 27.87 26.5978 28.386 26.5978Z" fill="#FF78A5"/>
<path d="M28.386 26.3821C28.8822 26.3821 29.2844 26.0121 29.2844 25.5556C29.2844 25.0991 28.8822 24.729 28.386 24.729C27.8898 24.729 27.4875 25.0991 27.4875 25.5556C27.4875 26.0121 27.8898 26.3821 28.386 26.3821Z" fill="#FFF3F7"/>
<path d="M28.386 29.6524C28.9021 29.6524 29.3204 29.2341 29.3204 28.7181C29.3204 28.202 28.9021 27.7837 28.386 27.7837C27.87 27.7837 27.4517 28.202 27.4517 28.7181C27.4517 29.2341 27.87 29.6524 28.386 29.6524Z" fill="#FF78A5"/>
<path d="M28.386 29.4368C28.8822 29.4368 29.2844 29.0668 29.2844 28.6103C29.2844 28.1538 28.8822 27.7837 28.386 27.7837C27.8898 27.7837 27.4875 28.1538 27.4875 28.6103C27.4875 29.0668 27.8898 29.4368 28.386 29.4368Z" fill="#FFF3F7"/>
<path d="M28.386 32.7071C28.9021 32.7071 29.3204 32.2888 29.3204 31.7728C29.3204 31.2567 28.9021 30.8384 28.386 30.8384C27.87 30.8384 27.4517 31.2567 27.4517 31.7728C27.4517 32.2888 27.87 32.7071 28.386 32.7071Z" fill="#FF78A5"/>
<path d="M28.386 32.4915C28.8822 32.4915 29.2844 32.1214 29.2844 31.6649C29.2844 31.2084 28.8822 30.8384 28.386 30.8384C27.8898 30.8384 27.4875 31.2084 27.4875 31.6649C27.4875 32.1214 27.8898 32.4915 28.386 32.4915Z" fill="#FFF3F7"/>
<path d="M41 16.2117L39.8141 15.8164L39.3828 21.0633L40.6406 20.9555L41 16.2117ZM18 16.2117L19.1859 15.8164L19.6172 21.0633L18.3594 20.9555L18 16.2117ZM29.5 33.4617C33.3453 33.3898 36.4 32.8867 36.9031 32.5633C36.9391 33.2461 36.9391 33.8211 36.975 34.2883C36.975 34.2883 33.7766 35.1867 29.5 35.2586C25.2234 35.1867 22.025 34.2883 22.025 34.2883C22.0609 33.857 22.0969 33.2461 22.0969 32.5633C22.6 32.8508 25.6547 33.3898 29.5 33.4617Z" fill="#FFD2DF"/>
<path d="M29.5 33.4617H29.9313V35.2226H29.5V33.4617Z" fill="#FF99B6"/>
</g>
<defs>
<clipPath id="clip0_366_2505">
<rect width="23" height="23" fill="white" transform="translate(18 12.2227)"/>
</clipPath>
</defs>
</svg>
