<svg width="59" height="48" viewBox="0 0 59 48" fill="none" xmlns="http://www.w3.org/2000/svg">
<g clip-path="url(#clip0_366_2477)">
<path d="M29.9547 37.2228C37.1094 37.2228 42.9094 30.9606 42.9094 23.2357C42.9094 15.5108 37.1094 9.24854 29.9547 9.24854C22.8 9.24854 17 15.5108 17 23.2357C17 30.9606 22.8 37.2228 29.9547 37.2228Z" fill="url(#paint0_radial_366_2477)"/>
<path opacity="0.2" d="M29.9547 9.95C36.7396 9.95 42.2597 15.9101 42.2597 23.2357C42.2597 30.5613 36.7396 36.5214 29.9547 36.5214C23.1698 36.5214 17.6497 30.5613 17.6497 23.2357C17.6497 15.9101 23.1698 9.95 29.9547 9.95ZM29.9547 9.24854C22.7995 9.24854 17 15.5126 17 23.2357C17 30.9588 22.7995 37.2228 29.9547 37.2228C37.1099 37.2228 42.9094 30.9611 42.9094 23.2357C42.9094 15.5102 37.1077 9.24854 29.9547 9.24854Z" fill="#434343"/>
<path d="M29.9548 32.9766C34.9375 32.9766 38.9767 28.6154 38.9767 23.2356C38.9767 17.8558 34.9375 13.4946 29.9548 13.4946C24.9721 13.4946 20.9329 17.8558 20.9329 23.2356C20.9329 28.6154 24.9721 32.9766 29.9548 32.9766Z" fill="#FEFCE9"/>
<path d="M29.9548 29.4809C33.1494 29.4809 35.7391 26.6848 35.7391 23.2356C35.7391 19.7864 33.1494 16.9902 29.9548 16.9902C26.7602 16.9902 24.1704 19.7864 24.1704 23.2356C24.1704 26.6848 26.7602 29.4809 29.9548 29.4809Z" fill="url(#paint1_radial_366_2477)"/>
<path d="M29.9546 25.1086C30.9127 25.1086 31.6893 24.2701 31.6893 23.2357C31.6893 22.2013 30.9127 21.3628 29.9546 21.3628C28.9966 21.3628 28.22 22.2013 28.22 23.2357C28.22 24.2701 28.9966 25.1086 29.9546 25.1086Z" fill="#FEFCE9"/>
<path d="M39.9273 12.5379L40.0031 10.5644C40.0378 9.6759 39.3058 9.04693 38.4937 9.26672L36.9864 9.67123C36.4667 9.81152 36.0509 10.2675 35.9318 10.831L34.2881 18.6265L34.3011 18.6195L39.9317 12.5402L39.9273 12.5379Z" fill="#09BCD4"/>
<path d="M39.9295 12.5382L41.7573 12.4564C42.5802 12.4189 43.1628 13.2093 42.9592 14.0861L42.5846 15.7135C42.4546 16.2746 42.0323 16.7236 41.5104 16.8522L34.2903 18.6269L34.2968 18.6128L39.9274 12.5335L39.9295 12.5382Z" fill="#38A4DD"/>
<path d="M30.2427 23.4996C29.9395 23.7919 29.5172 23.3359 29.7858 23.0086L37.9133 13.3167C38.2706 12.9309 38.851 12.9309 39.2083 13.3167C39.5657 13.7025 39.5657 14.3291 39.2083 14.7149L30.2427 23.4996Z" fill="#1B87C9"/>
<path opacity="0.2" d="M38.8164 9.6903C39.0308 9.6903 39.2257 9.77681 39.3665 9.93581C39.5073 10.0925 39.5787 10.3099 39.5701 10.5461L39.4943 12.5148C39.4899 12.606 39.5116 12.6949 39.5527 12.7697C39.5722 12.8048 39.5939 12.8352 39.6199 12.8632C39.7 12.9521 39.8126 13.0059 39.9295 13.0059H39.9469L41.7703 12.924H41.8071C42.0497 12.924 42.2619 13.0316 42.4027 13.2257C42.5499 13.4267 42.5976 13.7003 42.5348 13.9715L42.1601 15.5989C42.0713 15.9847 41.7703 16.3051 41.4108 16.3939L35.4251 17.867C35.3514 17.8857 35.2843 17.9231 35.2302 17.9769L31.6179 21.5216L34.888 17.6215C34.9378 17.563 34.9725 17.4905 34.9898 17.411L36.3563 10.9342C36.4386 10.5461 36.7331 10.2211 37.0926 10.1252L38.5999 9.72069C38.6713 9.69965 38.745 9.6903 38.8164 9.6903ZM38.8164 9.22266C38.7103 9.22266 38.602 9.23669 38.4937 9.26708L36.9865 9.67159C36.4667 9.81188 36.0509 10.2678 35.9318 10.8313L34.5653 17.3082L29.7858 23.0064C29.5758 23.2612 29.7837 23.5909 30.0284 23.5909C30.0998 23.5909 30.1735 23.5629 30.2406 23.4974L35.5225 18.3253L41.5083 16.8522C42.028 16.7236 42.4525 16.2747 42.5824 15.7135L42.9571 14.0861C43.1541 13.228 42.6019 12.4564 41.8093 12.4564C41.792 12.4564 41.7725 12.4564 41.753 12.4587L39.9295 12.5406H39.9252V12.5359L40.001 10.5671C40.0313 9.79552 39.4899 9.22266 38.8164 9.22266Z" fill="#434343"/>
</g>
<defs>
<radialGradient id="paint0_radial_366_2477" cx="0" cy="0" r="1" gradientUnits="userSpaceOnUse" gradientTransform="translate(26.2526 16.6801) scale(13.4662 14.5394)">
<stop offset="0.4707" stop-color="#EF5451"/>
<stop offset="0.8338" stop-color="#E53A35"/>
</radialGradient>
<radialGradient id="paint1_radial_366_2477" cx="0" cy="0" r="1" gradientUnits="userSpaceOnUse" gradientTransform="translate(28.8369 20.824) scale(6.63803 7.16707)">
<stop offset="0.4707" stop-color="#EF5451"/>
<stop offset="0.8338" stop-color="#E53A35"/>
</radialGradient>
<clipPath id="clip0_366_2477">
<rect width="26" height="28" fill="white" transform="translate(17 9.22266)"/>
</clipPath>
</defs>
</svg>
