<svg width="59" height="48" viewBox="0 0 59 48" fill="none" xmlns="http://www.w3.org/2000/svg">
<g clip-path="url(#clip0_366_2427)">
<path d="M41.625 26.3632V29.1535H40.5V24.2705C41.1225 24.2705 41.625 25.2052 41.625 26.3632Z" fill="#EAC6BB"/>
<path d="M39.375 21.7036V24.2707C39.375 25.038 38.8725 25.6658 38.25 25.6658C37.6275 25.6658 37.125 25.038 37.125 24.2707V21.7036C37.4663 22.0098 37.845 22.178 38.25 22.178C38.655 22.178 39.0338 22.0105 39.375 21.7036Z" fill="#EAC6BB"/>
<path d="M40.875 15.2027V17.2954C40.875 19.2417 40.2638 20.9228 39.375 21.7041C39.0338 22.0103 38.655 22.1784 38.25 22.1784C37.845 22.1784 37.4663 22.011 37.125 21.7041C36.2363 20.9228 35.625 19.2417 35.625 17.2954V15.2167L36.375 13.8146L36.3787 13.8076C36.4537 13.8634 37.2563 14.5191 38.2279 14.5191C39.1804 14.5191 40.0129 13.892 40.1138 13.8146L40.125 13.8216L40.875 15.2027Z" fill="#EAC6BB"/>
<path d="M40.125 13.8219L40.1138 13.8149C40.0774 13.8421 39.9446 13.9419 39.7489 14.0563V17.2958C39.7489 19.242 39.1376 20.9231 38.2489 21.7044C38.0711 21.8642 37.8829 21.9834 37.6868 22.0644C37.8679 22.1376 38.0554 22.1788 38.25 22.1788C38.655 22.1788 39.0338 22.0113 39.375 21.7044C40.2638 20.9231 40.875 19.242 40.875 17.2958V15.2031L40.125 13.8219Z" fill="#D3B1A9"/>
<path d="M37.125 24.271C37.125 25.0383 37.6275 25.6661 38.25 25.6661C38.8725 25.6661 39.375 25.0383 39.375 24.271H40.5V29.154H36V24.271H37.125Z" fill="#AC92EC"/>
<path d="M36 24.271V29.154H34.875V26.3637C34.875 25.2057 35.3775 24.271 36 24.271Z" fill="#EAC6BB"/>
<path d="M36.3787 13.8078L36.375 13.8147L35.625 15.2168V13.8078C35.625 11.1152 36.7988 8.9248 38.25 8.9248C39.7013 8.9248 40.875 11.1152 40.875 13.8078V15.2029L40.125 13.8217L40.1138 13.8147C40.0125 13.8915 39.1804 14.5193 38.2279 14.5193C37.2563 14.5193 36.4537 13.8636 36.3787 13.8078Z" fill="#656D78"/>
<path d="M38.25 8.9248C38.0565 8.9248 37.8683 8.96666 37.6868 9.0406C38.8665 9.52053 39.7489 11.4737 39.7489 13.8078V14.0554C39.9443 13.941 40.0774 13.8412 40.1138 13.814L40.125 13.8217L40.875 15.2029V13.8078C40.875 11.1152 39.7013 8.9248 38.25 8.9248Z" fill="#545C66"/>
<path d="M34.5 34.0367V36.827C34.5 37.2106 34.3312 37.5246 34.125 37.5246H33V30.6187C33.855 30.9395 34.5 32.3486 34.5 34.0367Z" fill="#EAC6BB"/>
<path d="M33.375 20.0995V22.1783C33.375 24.6407 32.61 26.7752 31.5 27.8006C31.05 28.2199 30.5363 28.4564 30 28.4564C29.4638 28.4564 28.95 28.2192 28.5 27.8006C27.3938 26.7822 26.6325 24.6616 26.625 22.2131V22.1783V20.0995L27.75 18.6904C27.75 18.6904 28.8788 19.388 30.1875 19.388C31.4963 19.388 32.25 18.6904 32.25 18.6904L33.375 20.0995Z" fill="#EAC6BB"/>
<path d="M32.25 18.6904L32.2489 18.6911V22.1783C32.2489 24.6407 31.4839 26.7752 30.3739 27.8006C30.0848 28.0699 29.7679 28.2534 29.4368 28.3587C29.6209 28.4159 29.808 28.4564 30 28.4564C30.5363 28.4564 31.05 28.2192 31.5 27.8006C32.61 26.7752 33.375 24.6414 33.375 22.1783V20.0995L32.25 18.6904Z" fill="#D3B1A9"/>
<path d="M31.5 27.8013V30.5497C31.5 31.7007 30.8288 32.6424 30 32.6424C29.1712 32.6424 28.5 31.7007 28.5 30.5497V27.8013C28.95 28.2205 29.4638 28.457 30 28.457C30.5362 28.457 31.05 28.2198 31.5 27.8013Z" fill="#EAC6BB"/>
<path d="M28.5 30.5488C28.5 31.6998 29.1712 32.6415 30 32.6415C30.8288 32.6415 31.5 31.6998 31.5 30.5488H32.625C32.7525 30.5488 32.88 30.5698 33 30.6186V37.5245H27V30.6186C27.12 30.5705 27.2475 30.5488 27.375 30.5488H28.5Z" fill="#AC92EC"/>
<path d="M33.375 17.9928V20.0994L32.25 18.6903C32.25 18.6903 31.4963 19.3879 30.1875 19.3879C28.8788 19.3879 27.75 18.6903 27.75 18.6903L26.625 20.0994V17.9928C26.625 14.9026 27.9675 12.4053 29.625 12.4053H31.875V15.1955C32.7038 15.1955 33.375 16.4442 33.375 17.9928Z" fill="#965353"/>
<path d="M33.375 20.0994V17.9928C33.375 16.4442 32.7038 15.1955 31.875 15.1955V12.4053H30.75V15.1955C30.75 16.3514 31.2536 17.2882 31.875 17.2882C32.082 17.2882 32.25 17.6042 32.25 17.9928V18.6903L33.375 20.0994Z" fill="#844747"/>
<path d="M27 30.6187V37.5246H25.875C25.6687 37.5246 25.5 37.2106 25.5 36.827V34.0367C25.5 32.3486 26.145 30.9395 27 30.6187Z" fill="#EAC6BB"/>
<path d="M25.125 26.3637V29.154H24V24.271C24.6225 24.271 25.125 25.2057 25.125 26.3637Z" fill="#EAC6BB"/>
<path d="M24.375 17.2882V17.2952C24.375 19.2414 23.76 20.9225 22.875 21.6968C22.5338 22.0037 22.155 22.1718 21.75 22.1718C21.345 22.1718 20.9663 22.0044 20.625 21.6968C19.74 20.9225 19.125 19.2414 19.125 17.2952V17.2882V14.5956C21.3038 15.0699 22.1738 13.7097 22.875 13.4376C23.34 13.2562 23.73 13.5423 24.375 15.1118V17.2882Z" fill="#EAC6BB"/>
<path d="M23.2489 13.416V17.2882V17.2952C23.2489 19.2414 22.6339 20.9225 21.7489 21.6968C21.5711 21.8566 21.3829 21.9765 21.1868 22.0575C21.3679 22.1307 21.5554 22.1712 21.75 22.1712C22.155 22.1712 22.5338 22.0037 22.875 21.6961C23.76 20.9225 24.375 19.2407 24.375 17.2945V17.2875V15.1111C23.9078 13.9741 23.574 13.5165 23.2489 13.416Z" fill="#D3B1A9"/>
<path d="M19.5 24.271V29.154H18.375V26.3637C18.375 25.2057 18.8775 24.271 19.5 24.271Z" fill="#EAC6BB"/>
<path d="M24.375 14.1496V15.1122C23.73 13.5427 23.34 13.2567 22.875 13.4381L23.625 10.606C24.0938 11.5337 24.375 12.7824 24.375 14.1496Z" fill="#F6BB42"/>
<path d="M22.875 21.7033V24.2703C22.875 25.0376 22.3725 25.6654 21.75 25.6654C21.1275 25.6654 20.625 25.0376 20.625 24.2703V21.7033V21.6963C20.9663 22.0032 21.345 22.1713 21.75 22.1713C22.155 22.1713 22.5338 22.0039 22.875 21.6963V21.7033Z" fill="#EAC6BB"/>
<path d="M23.625 10.6061L22.875 13.4382C22.1738 13.7109 21.3038 15.0705 19.125 14.5962C19.005 14.5683 18.8813 14.5403 18.75 14.4985V14.1497C18.75 11.2611 20.01 8.91797 21.5625 8.91797C22.38 8.91797 23.115 9.5667 23.625 10.6061Z" fill="#FFCE54"/>
<path d="M20.625 24.271C20.625 25.0383 21.1275 25.6661 21.75 25.6661C22.3725 25.6661 22.875 25.0383 22.875 24.271H24V29.154H19.5V24.271H20.625Z" fill="#AC92EC"/>
<path d="M19.125 17.9893C18.9176 17.9893 18.75 17.6775 18.75 17.2917V14.5936C18.75 14.2085 18.9176 13.896 19.125 13.896C19.3324 13.896 19.5 14.2085 19.5 14.5936V17.2917C19.5 17.6775 19.3324 17.9893 19.125 17.9893Z" fill="black"/>
<path d="M24.375 17.9895C24.1676 17.9895 24 17.6777 24 17.2919V14.1522C24 13.7671 24.1676 13.4546 24.375 13.4546C24.5824 13.4546 24.75 13.7671 24.75 14.1522V17.2919C24.75 17.6777 24.5824 17.9895 24.375 17.9895Z" fill="black"/>
<path d="M24.375 14.8495C24.1676 14.8495 24 14.537 24 14.152C24 11.6519 22.9065 9.61779 21.5621 9.61779C20.2181 9.61779 19.125 11.6519 19.125 14.152C19.125 14.537 18.9574 14.8495 18.75 14.8495C18.5426 14.8495 18.375 14.537 18.375 14.152C18.375 10.8825 19.8049 8.22266 21.5621 8.22266C23.3201 8.22266 24.75 10.8825 24.75 14.152C24.75 14.537 24.5824 14.8495 24.375 14.8495Z" fill="black"/>
<path d="M24.3755 15.806C24.2626 15.806 24.1512 15.7118 24.0773 15.5325C23.3528 13.7733 23.1563 13.9198 22.4221 14.4597C21.7175 14.9787 20.6536 15.7634 18.6916 15.1865C18.4872 15.1265 18.3473 14.7694 18.38 14.3885C18.4122 14.0084 18.605 13.7489 18.809 13.8081C20.5688 14.325 21.4801 13.6526 22.1461 13.1622C23.0491 12.496 23.6551 12.2114 24.6728 14.6836C24.7988 14.9891 24.7677 15.4272 24.6031 15.6616C24.5352 15.7592 24.455 15.806 24.3755 15.806Z" fill="black"/>
<path d="M22.8747 14.1364C22.8195 14.1364 22.7629 14.1134 22.71 14.0646C22.524 13.8951 22.4475 13.4765 22.5387 13.1312L23.2887 10.2908C23.3794 9.94476 23.604 9.80106 23.7904 9.97197C23.9764 10.1415 24.0529 10.56 23.9618 10.9053L23.2118 13.7458C23.1465 13.9934 23.013 14.1364 22.8747 14.1364Z" fill="black"/>
<path d="M18.375 27.0581C18.1676 27.0581 18 26.7463 18 26.3606C18 24.8217 18.6727 23.5703 19.5 23.5703C19.7074 23.5703 19.875 23.8821 19.875 24.2679C19.875 24.6536 19.7074 24.9654 19.5 24.9654C19.0864 24.9654 18.75 25.5912 18.75 26.3606C18.75 26.7463 18.5824 27.0581 18.375 27.0581Z" fill="black"/>
<path d="M20.625 24.9689H19.5C19.2926 24.9689 19.125 24.6571 19.125 24.2713C19.125 23.8855 19.2926 23.5737 19.5 23.5737H20.625C20.8324 23.5737 21 23.8855 21 24.2713C21 24.6571 20.8324 24.9689 20.625 24.9689Z" fill="black"/>
<path d="M18.375 29.8503C18.1676 29.8503 18 29.5385 18 29.1527V26.3597C18 25.9739 18.1676 25.6621 18.375 25.6621C18.5824 25.6621 18.75 25.9739 18.75 26.3597V29.1527C18.75 29.5385 18.5824 29.8503 18.375 29.8503Z" fill="black"/>
<path d="M25.125 27.0581C24.9176 27.0581 24.75 26.7463 24.75 26.3606C24.75 25.5912 24.4136 24.9654 24 24.9654C23.7926 24.9654 23.625 24.6536 23.625 24.2679C23.625 23.8821 23.7926 23.5703 24 23.5703C24.8273 23.5703 25.5 24.8217 25.5 26.3606C25.5 26.7463 25.3324 27.0581 25.125 27.0581Z" fill="black"/>
<path d="M24 24.9689H22.875C22.6676 24.9689 22.5 24.6571 22.5 24.2713C22.5 23.8855 22.6676 23.5737 22.875 23.5737H24C24.2074 23.5737 24.375 23.8855 24.375 24.2713C24.375 24.6571 24.2074 24.9689 24 24.9689Z" fill="black"/>
<path d="M25.125 29.8503C24.9176 29.8503 24.75 29.5385 24.75 29.1527V26.3597C24.75 25.9739 24.9176 25.6621 25.125 25.6621C25.3324 25.6621 25.5 25.9739 25.5 26.3597V29.1527C25.5 29.5385 25.3324 29.8503 25.125 29.8503Z" fill="black"/>
<path d="M25.125 29.8507H18.375C18.1676 29.8507 18 29.5389 18 29.1531C18 28.7674 18.1676 28.4556 18.375 28.4556H25.125C25.3324 28.4556 25.5 28.7674 25.5 29.1531C25.5 29.5389 25.3324 29.8507 25.125 29.8507Z" fill="black"/>
<path d="M20.625 24.9691C20.4176 24.9691 20.25 24.6573 20.25 24.2715V21.701C20.25 21.3152 20.4176 21.0034 20.625 21.0034C20.8324 21.0034 21 21.3152 21 21.701V24.2715C21 24.6573 20.8324 24.9691 20.625 24.9691Z" fill="black"/>
<path d="M22.875 24.9649C22.6676 24.9649 22.5 24.6531 22.5 24.2673V21.701C22.5 21.3152 22.6676 21.0034 22.875 21.0034C23.0824 21.0034 23.25 21.3152 23.25 21.701V24.2673C23.25 24.6531 23.0824 24.9649 22.875 24.9649Z" fill="black"/>
<path d="M21.75 22.8687C20.0959 22.8687 18.75 20.3658 18.75 17.2889C18.75 16.9038 18.9176 16.5913 19.125 16.5913C19.3324 16.5913 19.5 16.9038 19.5 17.2889C19.5 19.5964 20.5091 21.4736 21.75 21.4736C22.9909 21.4736 24 19.5964 24 17.2889C24 16.9038 24.1676 16.5913 24.375 16.5913C24.5824 16.5913 24.75 16.9038 24.75 17.2889C24.75 20.3658 23.4041 22.8687 21.75 22.8687Z" fill="black"/>
<path d="M34.875 27.0581C34.6676 27.0581 34.5 26.7463 34.5 26.3606C34.5 24.8217 35.1727 23.5703 36 23.5703C36.2074 23.5703 36.375 23.8821 36.375 24.2679C36.375 24.6536 36.2074 24.9654 36 24.9654C35.5864 24.9654 35.25 25.5912 35.25 26.3606C35.25 26.7463 35.0824 27.0581 34.875 27.0581Z" fill="black"/>
<path d="M37.125 24.9689H36C35.7926 24.9689 35.625 24.6571 35.625 24.2713C35.625 23.8855 35.7926 23.5737 36 23.5737H37.125C37.3324 23.5737 37.5 23.8855 37.5 24.2713C37.5 24.6571 37.3324 24.9689 37.125 24.9689Z" fill="black"/>
<path d="M34.875 29.8503C34.6676 29.8503 34.5 29.5385 34.5 29.1527V26.3597C34.5 25.9739 34.6676 25.6621 34.875 25.6621C35.0824 25.6621 35.25 25.9739 35.25 26.3597V29.1527C35.25 29.5385 35.0824 29.8503 34.875 29.8503Z" fill="black"/>
<path d="M41.625 27.0581C41.4176 27.0581 41.25 26.7463 41.25 26.3606C41.25 25.5912 40.9136 24.9654 40.5 24.9654C40.2926 24.9654 40.125 24.6536 40.125 24.2679C40.125 23.8821 40.2926 23.5703 40.5 23.5703C41.3273 23.5703 42 24.8217 42 26.3606C42 26.7463 41.8324 27.0581 41.625 27.0581Z" fill="black"/>
<path d="M40.5 24.9689H39.375C39.1676 24.9689 39 24.6571 39 24.2713C39 23.8855 39.1676 23.5737 39.375 23.5737H40.5C40.7074 23.5737 40.875 23.8855 40.875 24.2713C40.875 24.6571 40.7074 24.9689 40.5 24.9689Z" fill="black"/>
<path d="M41.625 29.8503C41.4176 29.8503 41.25 29.5385 41.25 29.1527V26.3597C41.25 25.9739 41.4176 25.6621 41.625 25.6621C41.8324 25.6621 42 25.9739 42 26.3597V29.1527C42 29.5385 41.8324 29.8503 41.625 29.8503Z" fill="black"/>
<path d="M41.625 29.8507H34.875C34.6676 29.8507 34.5 29.5389 34.5 29.1531C34.5 28.7674 34.6676 28.4556 34.875 28.4556H41.625C41.8324 28.4556 42 28.7674 42 29.1531C42 29.5389 41.8324 29.8507 41.625 29.8507Z" fill="black"/>
<path d="M37.125 24.9691C36.9176 24.9691 36.75 24.6573 36.75 24.2715V21.701C36.75 21.3152 36.9176 21.0034 37.125 21.0034C37.3324 21.0034 37.5 21.3152 37.5 21.701V24.2715C37.5 24.6573 37.3324 24.9691 37.125 24.9691Z" fill="black"/>
<path d="M39.375 24.9649C39.1676 24.9649 39 24.6531 39 24.2673V21.701C39 21.3152 39.1676 21.0034 39.375 21.0034C39.5824 21.0034 39.75 21.3152 39.75 21.701V24.2673C39.75 24.6531 39.5824 24.9649 39.375 24.9649Z" fill="black"/>
<path d="M25.5 34.7335C25.2926 34.7335 25.125 34.4217 25.125 34.036C25.125 31.7277 26.1341 29.8506 27.375 29.8506C27.5824 29.8506 27.75 30.1624 27.75 30.5482C27.75 30.9339 27.5824 31.2457 27.375 31.2457C26.5478 31.2457 25.875 32.4972 25.875 34.036C25.875 34.4217 25.7074 34.7335 25.5 34.7335Z" fill="black"/>
<path d="M28.5 31.2457H27.375C27.1676 31.2457 27 30.9339 27 30.5482C27 30.1624 27.1676 29.8506 27.375 29.8506H28.5C28.7074 29.8506 28.875 30.1624 28.875 30.5482C28.875 30.9339 28.7074 31.2457 28.5 31.2457Z" fill="black"/>
<path d="M25.5 37.525C25.2926 37.525 25.125 37.2131 25.125 36.8274V34.0364C25.125 33.6507 25.2926 33.3389 25.5 33.3389C25.7074 33.3389 25.875 33.6507 25.875 34.0364V36.8274C25.875 37.2131 25.7074 37.525 25.5 37.525Z" fill="black"/>
<path d="M25.875 38.2219C25.4614 38.2219 25.125 37.5962 25.125 36.8268C25.125 36.4564 25.2818 36.1892 25.4805 36.169C25.6909 36.1543 25.8525 36.4592 25.875 36.8261C26.082 36.8261 26.25 37.1386 26.25 37.5236C26.25 37.9094 26.0824 38.2219 25.875 38.2219Z" fill="black"/>
<path d="M34.5 34.7335C34.2926 34.7335 34.125 34.4217 34.125 34.036C34.125 32.4972 33.4523 31.2457 32.625 31.2457C32.4176 31.2457 32.25 30.9339 32.25 30.5482C32.25 30.1624 32.4176 29.8506 32.625 29.8506C33.8659 29.8506 34.875 31.7277 34.875 34.036C34.875 34.4217 34.7074 34.7335 34.5 34.7335Z" fill="black"/>
<path d="M32.625 31.2457H31.5C31.2926 31.2457 31.125 30.9339 31.125 30.5482C31.125 30.1624 31.2926 29.8506 31.5 29.8506H32.625C32.8324 29.8506 33 30.1624 33 30.5482C33 30.9339 32.8324 31.2457 32.625 31.2457Z" fill="black"/>
<path d="M34.5 37.525C34.2926 37.525 34.125 37.2131 34.125 36.8274V34.0364C34.125 33.6507 34.2926 33.3389 34.5 33.3389C34.7074 33.3389 34.875 33.6507 34.875 34.0364V36.8274C34.875 37.2131 34.7074 37.525 34.5 37.525Z" fill="black"/>
<path d="M34.125 38.2226C33.9176 38.2226 33.75 37.9108 33.75 37.525C33.75 37.1393 33.9176 36.8274 34.125 36.8274C34.125 36.4417 34.2926 36.1299 34.5 36.1299C34.7074 36.1299 34.875 36.4417 34.875 36.8274C34.875 37.5969 34.5386 38.2226 34.125 38.2226Z" fill="black"/>
<path d="M34.125 38.2223H25.875C25.6676 38.2223 25.5 37.9105 25.5 37.5247C25.5 37.139 25.6676 36.8271 25.875 36.8271H34.125C34.3324 36.8271 34.5 37.139 34.5 37.5247C34.5 37.9105 34.3324 38.2223 34.125 38.2223Z" fill="black"/>
<path d="M28.5 31.2457C28.2926 31.2457 28.125 30.9339 28.125 30.5482V27.8025C28.125 27.4168 28.2926 27.105 28.5 27.105C28.7074 27.105 28.875 27.4168 28.875 27.8025V30.5482C28.875 30.9339 28.7074 31.2457 28.5 31.2457Z" fill="black"/>
<path d="M31.5 31.2457C31.2926 31.2457 31.125 30.9339 31.125 30.5482V27.8025C31.125 27.4168 31.2926 27.105 31.5 27.105C31.7074 27.105 31.875 27.4168 31.875 27.8025V30.5482C31.875 30.9339 31.7074 31.2457 31.5 31.2457Z" fill="black"/>
<path d="M29.9996 29.153C27.9319 29.153 26.25 26.0244 26.25 22.178C26.25 21.7923 26.4176 21.4805 26.625 21.4805C26.8324 21.4805 27 21.7923 27 22.178C27 25.255 28.3455 27.7579 29.9996 27.7579C31.6541 27.7579 33 25.255 33 22.178C33 21.7923 33.1676 21.4805 33.375 21.4805C33.5824 21.4805 33.75 21.7923 33.75 22.178C33.75 26.0244 32.0677 29.153 29.9996 29.153Z" fill="black"/>
<path d="M26.625 22.9107C26.4176 22.9107 26.25 22.5989 26.25 22.2131V17.99C26.25 17.6043 26.4176 17.2925 26.625 17.2925C26.8324 17.2925 27 17.6043 27 17.99V22.2131C27 22.5989 26.8324 22.9107 26.625 22.9107Z" fill="black"/>
<path d="M33.375 22.8765C33.1676 22.8765 33 22.5647 33 22.1789V17.99C33 17.6043 33.1676 17.2925 33.375 17.2925C33.5824 17.2925 33.75 17.6043 33.75 17.99V22.1789C33.75 22.5647 33.5824 22.8765 33.375 22.8765Z" fill="black"/>
<path d="M33.375 18.6876C33.1676 18.6876 33 18.3757 33 17.99C33 16.8355 32.4953 15.8966 31.875 15.8966C31.6676 15.8966 31.5 15.5841 31.5 15.199C31.5 14.814 31.6676 14.5015 31.875 14.5015C32.9089 14.5015 33.75 16.0668 33.75 17.99C33.75 18.3757 33.5824 18.6876 33.375 18.6876Z" fill="black"/>
<path d="M31.875 15.8958C31.6676 15.8958 31.5 15.5833 31.5 15.1983V12.408C31.5 12.023 31.6676 11.7104 31.875 11.7104C32.0824 11.7104 32.25 12.023 32.25 12.408V15.1983C32.25 15.5833 32.0824 15.8958 31.875 15.8958Z" fill="black"/>
<path d="M31.875 13.1056H29.625C29.4176 13.1056 29.25 12.7931 29.25 12.408C29.25 12.023 29.4176 11.7104 29.625 11.7104H31.875C32.0824 11.7104 32.25 12.023 32.25 12.408C32.25 12.7931 32.0824 13.1056 31.875 13.1056Z" fill="black"/>
<path d="M26.625 18.6868C26.4176 18.6868 26.25 18.375 26.25 17.9892C26.25 14.5272 27.7639 11.7104 29.625 11.7104C29.8324 11.7104 30 12.023 30 12.408C30 12.7931 29.8324 13.1056 29.625 13.1056C28.1779 13.1056 27 15.2966 27 17.9892C27 18.375 26.8324 18.6868 26.625 18.6868Z" fill="black"/>
<path d="M33.3746 20.7993C33.3026 20.7993 33.2295 20.7602 33.165 20.68L32.04 19.2667C31.8683 19.0505 31.8233 18.6166 31.9388 18.2978C32.0546 17.9783 32.2875 17.8953 32.4596 18.1095L33.5846 19.5227C33.7564 19.739 33.8014 20.1729 33.6859 20.4917C33.6135 20.6919 33.495 20.7993 33.3746 20.7993Z" fill="black"/>
<path d="M30.1874 20.0836C28.8329 20.0836 27.6798 19.3804 27.6318 19.3504C27.4356 19.2284 27.3291 18.8342 27.394 18.4687C27.4593 18.1039 27.6715 17.9058 27.868 18.0258C27.8789 18.0327 28.9585 18.6877 30.1878 18.6877C31.3795 18.6877 32.0778 18.0683 32.0849 18.062C32.2701 17.8953 32.4955 18.0355 32.5863 18.3808C32.6774 18.7254 32.6024 19.1412 32.4179 19.3128C32.383 19.3449 31.5696 20.0836 30.1874 20.0836Z" fill="black"/>
<path d="M26.6254 20.7989C26.505 20.7989 26.3865 20.6915 26.3142 20.492C26.1983 20.1732 26.2437 19.7393 26.4154 19.5231L27.5404 18.1098C27.7122 17.8949 27.945 17.9786 28.0613 18.2981C28.1772 18.6169 28.1318 19.0508 27.96 19.267L26.835 20.6803C26.7705 20.7605 26.6974 20.7989 26.6254 20.7989Z" fill="black"/>
<path d="M18.75 15.1957C18.5426 15.1957 18.375 14.8832 18.375 14.4981V14.1522C18.375 13.7671 18.5426 13.4546 18.75 13.4546C18.9574 13.4546 19.125 13.7671 19.125 14.1522V14.4981C19.125 14.8832 18.9574 15.1957 18.75 15.1957Z" fill="black"/>
<path d="M35.625 17.9949C35.4176 17.9949 35.25 17.6831 35.25 17.2974V13.8074C35.25 13.4224 35.4176 13.1099 35.625 13.1099C35.8324 13.1099 36 13.4224 36 13.8074V17.2974C36 17.6831 35.8324 17.9949 35.625 17.9949Z" fill="black"/>
<path d="M40.875 17.9949C40.6676 17.9949 40.5 17.6831 40.5 17.2974V13.8074C40.5 13.4224 40.6676 13.1099 40.875 13.1099C41.0824 13.1099 41.25 13.4224 41.25 13.8074V17.2974C41.25 17.6831 41.0824 17.9949 40.875 17.9949Z" fill="black"/>
<path d="M38.25 22.8724C36.5959 22.8724 35.25 20.3695 35.25 17.2933C35.25 16.9082 35.4176 16.5957 35.625 16.5957C35.8324 16.5957 36 16.9082 36 17.2933C36 19.6008 37.0091 21.4773 38.25 21.4773C39.4909 21.4773 40.5 19.6008 40.5 17.2933C40.5 16.9082 40.6676 16.5957 40.875 16.5957C41.0824 16.5957 41.25 16.9082 41.25 17.2933C41.25 20.3695 39.9041 22.8724 38.25 22.8724Z" fill="black"/>
<path d="M40.875 14.5053C40.6676 14.5053 40.5 14.1928 40.5 13.8077C40.5 11.5016 39.4909 9.62511 38.25 9.62511C37.0091 9.62511 36 11.5016 36 13.8077C36 14.1928 35.8324 14.5053 35.625 14.5053C35.4176 14.5053 35.25 14.1928 35.25 13.8077C35.25 10.7321 36.5959 8.22998 38.25 8.22998C39.9041 8.22998 41.25 10.7321 41.25 13.8077C41.25 14.1928 41.0824 14.5053 40.875 14.5053Z" fill="black"/>
<path d="M38.2265 15.2154C37.139 15.2154 36.2555 14.4691 36.2188 14.4377C36.0309 14.2772 35.9488 13.8636 36.035 13.5134C36.1209 13.1646 36.344 13.0118 36.5319 13.1695C36.5398 13.1758 37.3089 13.8203 38.2269 13.8203C39.1573 13.8203 39.9691 13.1772 39.977 13.1702C40.1668 13.016 40.388 13.1807 40.4698 13.5336C40.5515 13.8866 40.4641 14.2982 40.2744 14.4502C40.235 14.4823 39.3103 15.2154 38.2265 15.2154Z" fill="black"/>
<path d="M40.8749 15.9035C40.7797 15.9035 40.684 15.8366 40.6109 15.7012L39.8609 14.3201C39.7139 14.0487 39.7124 13.6078 39.8583 13.3337C40.0045 13.0603 40.2412 13.0575 40.3889 13.3288L41.1389 14.71C41.2859 14.9814 41.2874 15.4222 41.1415 15.6964C41.068 15.8345 40.9717 15.9035 40.8749 15.9035Z" fill="black"/>
<path d="M35.6251 15.9162C35.5295 15.9162 35.4335 15.8485 35.3607 15.7132C35.2137 15.4411 35.213 14.9996 35.3592 14.7261L36.1092 13.324C36.2555 13.0513 36.4932 13.0499 36.6395 13.3219C36.7865 13.594 36.7872 14.0355 36.641 14.309L35.891 15.7111C35.8178 15.8478 35.7215 15.9162 35.6251 15.9162Z" fill="black"/>
<path d="M19.4995 29.8504C19.2921 29.8504 19.1245 29.5386 19.1245 29.1529V24.2713C19.1245 23.8855 19.2921 23.5737 19.4995 23.5737C19.7069 23.5737 19.8745 23.8855 19.8745 24.2713V29.1529C19.8745 29.5386 19.7069 29.8504 19.4995 29.8504Z" fill="black"/>
<path d="M24.0005 29.8504C23.7931 29.8504 23.6255 29.5386 23.6255 29.1529V24.2713C23.6255 23.8855 23.7931 23.5737 24.0005 23.5737C24.2079 23.5737 24.3755 23.8855 24.3755 24.2713V29.1529C24.3755 29.5386 24.2079 29.8504 24.0005 29.8504Z" fill="black"/>
<path d="M21.75 26.3634C20.9089 26.3634 20.25 25.444 20.25 24.2693C20.25 23.8836 20.4176 23.5718 20.625 23.5718C20.8324 23.5718 21 23.8836 21 24.2693C21 24.554 21.2921 24.9683 21.75 24.9683C22.2079 24.9683 22.5 24.554 22.5 24.2693C22.5 23.8836 22.6676 23.5718 22.875 23.5718C23.0824 23.5718 23.25 23.8836 23.25 24.2693C23.25 25.444 22.5911 26.3634 21.75 26.3634Z" fill="black"/>
<path d="M35.9995 29.8504C35.7921 29.8504 35.6245 29.5386 35.6245 29.1529V24.2713C35.6245 23.8855 35.7921 23.5737 35.9995 23.5737C36.2069 23.5737 36.3745 23.8855 36.3745 24.2713V29.1529C36.3745 29.5386 36.2069 29.8504 35.9995 29.8504Z" fill="black"/>
<path d="M40.5005 29.8504C40.2931 29.8504 40.1255 29.5386 40.1255 29.1529V24.2713C40.1255 23.8855 40.2931 23.5737 40.5005 23.5737C40.7079 23.5737 40.8755 23.8855 40.8755 24.2713V29.1529C40.8755 29.5386 40.7079 29.8504 40.5005 29.8504Z" fill="black"/>
<path d="M38.25 26.3634C37.4089 26.3634 36.75 25.444 36.75 24.2693C36.75 23.8836 36.9176 23.5718 37.125 23.5718C37.3324 23.5718 37.5 23.8836 37.5 24.2693C37.5 24.554 37.7921 24.9683 38.25 24.9683C38.7079 24.9683 39 24.554 39 24.2693C39 23.8836 39.1676 23.5718 39.375 23.5718C39.5824 23.5718 39.75 23.8836 39.75 24.2693C39.75 25.444 39.0911 26.3634 38.25 26.3634Z" fill="black"/>
<path d="M27.0005 38.2224C26.7931 38.2224 26.6255 37.9106 26.6255 37.5249V30.619C26.6255 30.2332 26.7931 29.9214 27.0005 29.9214C27.2079 29.9214 27.3755 30.2332 27.3755 30.619V37.5249C27.3755 37.9106 27.2079 38.2224 27.0005 38.2224Z" fill="black"/>
<path d="M32.9995 38.2224C32.7921 38.2224 32.6245 37.9106 32.6245 37.5249V30.619C32.6245 30.2332 32.7921 29.9214 32.9995 29.9214C33.2069 29.9214 33.3745 30.2332 33.3745 30.619V37.5249C33.3745 37.9106 33.2069 38.2224 32.9995 38.2224Z" fill="black"/>
<path d="M30 33.3395C28.9661 33.3395 28.125 32.0859 28.125 30.5457C28.125 30.16 28.2926 29.8481 28.5 29.8481C28.7074 29.8481 28.875 30.16 28.875 30.5457C28.875 31.304 29.3902 31.9443 30 31.9443C30.6098 31.9443 31.125 31.304 31.125 30.5457C31.125 30.16 31.2926 29.8481 31.5 29.8481C31.7074 29.8481 31.875 30.16 31.875 30.5457C31.875 32.0859 31.0339 33.3395 30 33.3395Z" fill="black"/>
</g>
<defs>
<clipPath id="clip0_366_2427">
<rect width="24" height="30" fill="white" transform="translate(18 8.22266)"/>
</clipPath>
</defs>
</svg>
