<svg width="59" height="48" viewBox="0 0 59 48" fill="none" xmlns="http://www.w3.org/2000/svg">
<path d="M39.7152 23.1988C39.416 22.7011 39.075 22.1373 38.7439 21.4411C37.8749 19.6188 40.6513 17.6311 40.6777 17.6127L39.1223 16.525C38.9683 16.6327 35.357 19.2003 36.6561 21.9273C37.0147 22.6796 37.3733 23.2734 37.6879 23.7965C38.422 24.8108 38.8031 25.932 38.8 27.0688C38.6711 27.9851 38.168 28.8562 37.3508 29.5781C36.5336 30.3 35.4367 30.8423 34.191 31.1403C34.5845 30.0616 34.5787 28.9306 34.1739 27.8539C33.7692 26.7773 32.9789 25.7904 31.8777 24.9865L30.7293 24.1834L30.0891 25.2273C28.0695 28.5227 25.666 29.9611 24.2525 30.5611C23.3848 30.1895 22.6556 29.6791 22.1249 29.072C21.5942 28.4649 21.2772 27.7783 21.2 27.0688C21.2759 26.1005 21.6231 25.152 22.2219 24.2773C22.9321 23.2228 23.3327 22.0795 23.4 20.915V19.5473C24.3614 19.8242 25.6 20.5496 25.6 22.4534V24.4557L27.5173 22.968C30.9405 20.3111 30.2266 17.1473 28.8439 15.0388C29.8949 15.2838 30.7975 15.769 31.4063 16.4163C32.0151 17.0636 32.2946 17.8354 32.2 18.6073H34.4C34.4 14.348 29.3631 13.2227 26.7 13.2227H24.5L25.82 14.4527C25.9707 14.595 28.9682 17.4734 27.3083 20.3665C26.9389 19.6395 26.262 19.0082 25.3675 18.5566C24.4729 18.105 23.4031 17.8544 22.3 17.838H21.2V20.915C21.1241 21.8833 20.7769 22.8318 20.1781 23.7065C19.4679 24.7609 19.0673 25.9042 19 27.0688C19 30.0288 23.2053 33.2227 30 33.2227C36.7947 33.2227 41 30.0288 41 27.0688C41.0016 25.727 40.5621 24.4029 39.7152 23.1988ZM26.5185 31.3196C28.5476 30.145 30.1868 28.6756 31.3222 27.0134C31.9284 27.6979 32.2727 28.4798 32.3222 29.2841C32.3717 30.0884 32.1247 30.8882 31.6049 31.6065C31.0729 31.6566 30.5368 31.6825 30 31.6842C28.8195 31.6899 27.6449 31.5669 26.5185 31.3196Z" fill="#FF0000"/>
</svg>
