<svg width="34" height="37" viewBox="0 0 34 37" fill="none" xmlns="http://www.w3.org/2000/svg">
<path fill-rule="evenodd" clip-rule="evenodd" d="M0 2.06042C0 0.922709 0.922709 0 2.06042 0H31.0854C32.2231 0 33.1458 0.922709 33.1458 2.06042V22.6144C33.1458 23.1609 32.929 23.684 32.542 24.071L27.6651 28.948C27.2788 29.3344 26.7549 29.5516 26.2085 29.5517H18.0743L11.8931 35.7348C10.8181 36.808 8.987 36.0483 8.987 34.5308V29.55H2.06042C1.51396 29.55 0.989885 29.3329 0.603482 28.9465C0.217079 28.5601 0 28.036 0 27.4895V2.06042ZM2.6875 2.6875V26.8642H9.61408C10.7518 26.8642 11.6745 27.787 11.6745 28.9247V32.1532L16.3579 27.468C16.5494 27.2765 16.7768 27.1246 17.027 27.0209C17.2773 26.9173 17.5455 26.8641 17.8163 26.8642H25.9487L30.4583 22.3546V2.6875H2.6875ZM13.8299 8.42083C14.1863 8.42083 14.528 8.56241 14.7801 8.81441C15.0321 9.06641 15.1736 9.4082 15.1736 9.76458V17.4186C15.1736 17.775 15.0321 18.1168 14.7801 18.3688C14.528 18.6208 14.1863 18.7623 13.8299 18.7623C13.4735 18.7623 13.1317 18.6208 12.8797 18.3688C12.6277 18.1168 12.4861 17.775 12.4861 17.4186V9.76458C12.4861 9.4082 12.6277 9.06641 12.8797 8.81441C13.1317 8.56241 13.4735 8.42083 13.8299 8.42083ZM22.8169 8.42083C23.1733 8.42083 23.515 8.56241 23.767 8.81441C24.0191 9.06641 24.1606 9.4082 24.1606 9.76458V17.4186C24.1606 17.775 24.0191 18.1168 23.767 18.3688C23.515 18.6208 23.1733 18.7623 22.8169 18.7623C22.4605 18.7623 22.1187 18.6208 21.8667 18.3688C21.6147 18.1168 21.4731 17.775 21.4731 17.4186V9.76458C21.4731 9.4082 21.6147 9.06641 21.8667 8.81441C22.1187 8.56241 22.4605 8.42083 22.8169 8.42083Z" fill="#00CCFF"/>
</svg>
