<svg width="43" height="43" viewBox="0 0 43 43" fill="none" xmlns="http://www.w3.org/2000/svg">
<path d="M13.5235 38.3935C29.7479 38.3935 38.6247 25.3941 38.6247 14.12C38.6247 13.7518 38.6248 13.3837 38.5979 13.0182C40.3162 11.8187 41.8069 10.3226 43 8.59991C41.3875 9.28791 39.6809 9.7421 37.9341 9.94366C39.76 8.8961 41.1395 7.21648 41.8121 5.22172C40.0787 6.2161 38.184 6.91485 36.2087 7.2911C34.8618 5.91586 33.1065 5.01277 31.2046 4.71647C29.2914 4.41212 27.3311 4.7266 25.6092 5.6141C23.9116 6.48557 22.5492 7.89324 21.7338 9.61847C20.933 11.3207 20.7358 13.2449 21.1748 15.0741C17.6769 14.906 14.2502 14.0253 11.1047 12.486C7.99043 10.9645 5.22792 8.80977 2.99388 6.15966C1.86681 8.02498 1.51926 10.259 2.02638 12.3785C2.53431 14.4936 3.85388 16.3426 5.72438 17.5493C4.32448 17.5096 2.95322 17.1433 1.72 16.4797V16.5872C1.72 18.5598 2.42681 20.4679 3.71681 21.989C5.02391 23.5251 6.81555 24.5697 8.79619 24.9507C7.49812 25.2947 6.13556 25.343 4.81331 25.0985C5.38831 26.8059 6.48663 28.2889 7.95231 29.3367C9.44379 30.4038 11.2249 30.9916 13.0586 31.0217C9.32726 33.846 4.64679 35.1146 0 34.5612C4.06289 37.0724 8.7472 38.397 13.5235 38.3855" fill="#00CCFF"/>
</svg>
