<svg width="686" height="160" viewBox="0 0 686 160" fill="none" xmlns="http://www.w3.org/2000/svg">
<path d="M22.87 51.21C22.21 51.81 21.49 52.37 20.71 52.89C19.93 53.43 19.08 53.9 18.16 54.3C17.26 54.7 16.27 55.01 15.19 55.23C14.13 55.47 12.98 55.59 11.74 55.59C10.08 55.59 8.55 55.36 7.15 54.9C5.75 54.46 4.55 53.81 3.55 52.95C2.55 52.11 1.77 51.08 1.21 49.86C0.65 48.66 0.37 47.3 0.37 45.78C0.37 44.26 0.59 42.97 1.03 41.91C1.47 40.85 2.03 39.94 2.71 39.18C3.39 38.42 4.13 37.78 4.93 37.26C5.73 36.72 6.48 36.22 7.18 35.76C7.9 35.3 8.51 34.84 9.01 34.38C9.53 33.9 9.84 33.33 9.94 32.67L10.54 28.17H14.95L15.4 33.12C15.5 34.1 15.34 34.93 14.92 35.61C14.52 36.27 13.98 36.86 13.3 37.38C12.64 37.88 11.91 38.36 11.11 38.82C10.31 39.28 9.55 39.8 8.83 40.38C8.13 40.94 7.54 41.6 7.06 42.36C6.6 43.12 6.37 44.07 6.37 45.21C6.37 45.99 6.52 46.69 6.82 47.31C7.12 47.95 7.53 48.49 8.05 48.93C8.59 49.37 9.22 49.71 9.94 49.95C10.66 50.19 11.44 50.31 12.28 50.31C13.44 50.31 14.43 50.17 15.25 49.89C16.09 49.63 16.8 49.33 17.38 48.99C17.96 48.67 18.44 48.37 18.82 48.09C19.2 47.81 19.53 47.67 19.81 47.67C20.41 47.67 20.86 47.94 21.16 48.48L22.87 51.21ZM8.71 18.12C8.71 17.54 8.81 17 9.01 16.5C9.23 15.98 9.52 15.53 9.88 15.15C10.26 14.77 10.7 14.47 11.2 14.25C11.72 14.03 12.27 13.92 12.85 13.92C13.43 13.92 13.97 14.03 14.47 14.25C14.99 14.47 15.44 14.77 15.82 15.15C16.2 15.53 16.5 15.98 16.72 16.5C16.94 17 17.05 17.54 17.05 18.12C17.05 18.72 16.94 19.27 16.72 19.77C16.5 20.27 16.2 20.71 15.82 21.09C15.44 21.47 14.99 21.77 14.47 21.99C13.97 22.19 13.43 22.29 12.85 22.29C12.27 22.29 11.72 22.19 11.2 21.99C10.7 21.77 10.26 21.47 9.88 21.09C9.52 20.71 9.23 20.27 9.01 19.77C8.81 19.27 8.71 18.72 8.71 18.12ZM32.9439 23.4C32.9439 25.9 33.2839 28.14 33.9639 30.12C34.6439 32.1 35.6139 33.78 36.8739 35.16C38.1339 36.52 39.6539 37.57 41.4339 38.31C43.2139 39.03 45.2039 39.39 47.4039 39.39C49.6239 39.39 51.6239 39.03 53.4039 38.31C55.1839 37.57 56.6939 36.52 57.9339 35.16C59.1939 33.78 60.1539 32.1 60.8139 30.12C61.4939 28.14 61.8339 25.9 61.8339 23.4C61.8339 20.92 61.4939 18.69 60.8139 16.71C60.1539 14.73 59.1939 13.05 57.9339 11.67C56.6939 10.29 55.1839 9.23 53.4039 8.49C51.6239 7.75 49.6239 7.38 47.4039 7.38C45.2039 7.38 43.2139 7.75 41.4339 8.49C39.6539 9.23 38.1339 10.29 36.8739 11.67C35.6139 13.05 34.6439 14.73 33.9639 16.71C33.2839 18.69 32.9439 20.92 32.9439 23.4ZM71.1339 53.64H65.3739C64.5139 53.64 63.7539 53.52 63.0939 53.28C62.4339 53.06 61.8239 52.65 61.2639 52.05L54.3639 44.46C52.2039 45.12 49.8839 45.45 47.4039 45.45C44.1839 45.45 41.2439 44.9 38.5839 43.8C35.9439 42.7 33.6739 41.18 31.7739 39.24C29.8739 37.28 28.4039 34.95 27.3639 32.25C26.3239 29.55 25.8039 26.6 25.8039 23.4C25.8039 20.2 26.3239 17.25 27.3639 14.55C28.4039 11.85 29.8739 9.52 31.7739 7.56C33.6739 5.6 35.9439 4.07 38.5839 2.97C41.2439 1.87 44.1839 1.32 47.4039 1.32C50.6439 1.32 53.5839 1.87 56.2239 2.97C58.8839 4.07 61.1539 5.6 63.0339 7.56C64.9339 9.52 66.4039 11.85 67.4439 14.55C68.4839 17.25 69.0039 20.2 69.0039 23.4C69.0039 25.38 68.8039 27.27 68.4039 29.07C68.0039 30.85 67.4239 32.52 66.6639 34.08C65.9039 35.62 64.9739 37.04 63.8739 38.34C62.7739 39.62 61.5239 40.74 60.1239 41.7L71.1339 53.64ZM100.855 14.4V45H96.955C96.095 45 95.545 44.59 95.305 43.77L94.825 40.92C94.185 41.6 93.505 42.22 92.785 42.78C92.085 43.34 91.335 43.82 90.535 44.22C89.735 44.62 88.875 44.93 87.955 45.15C87.055 45.37 86.085 45.48 85.045 45.48C83.365 45.48 81.885 45.2 80.605 44.64C79.325 44.08 78.245 43.29 77.365 42.27C76.505 41.25 75.855 40.03 75.415 38.61C74.975 37.17 74.755 35.59 74.755 33.87V14.4H81.205V33.87C81.205 35.93 81.675 37.53 82.615 38.67C83.575 39.81 85.025 40.38 86.965 40.38C88.385 40.38 89.705 40.06 90.925 39.42C92.165 38.76 93.325 37.86 94.405 36.72V14.4H100.855ZM115.408 14.4V45H108.958V14.4H115.408ZM116.488 5.16C116.488 5.74 116.368 6.29 116.128 6.81C115.908 7.33 115.598 7.79 115.198 8.19C114.798 8.57 114.328 8.88 113.788 9.12C113.268 9.34 112.708 9.45 112.108 9.45C111.528 9.45 110.978 9.34 110.458 9.12C109.958 8.88 109.518 8.57 109.138 8.19C108.758 7.79 108.448 7.33 108.208 6.81C107.988 6.29 107.878 5.74 107.878 5.16C107.878 4.56 107.988 4 108.208 3.48C108.448 2.96 108.758 2.51 109.138 2.13C109.518 1.73 109.958 1.42 110.458 1.2C110.978 0.959997 111.528 0.839996 112.108 0.839996C112.708 0.839996 113.268 0.959997 113.788 1.2C114.328 1.42 114.798 1.73 115.198 2.13C115.598 2.51 115.908 2.96 116.128 3.48C116.368 4 116.488 4.56 116.488 5.16ZM143.582 26.25C143.582 25.17 143.422 24.17 143.102 23.25C142.802 22.31 142.352 21.5 141.752 20.82C141.152 20.12 140.402 19.58 139.502 19.2C138.622 18.8 137.602 18.6 136.442 18.6C134.102 18.6 132.262 19.27 130.922 20.61C129.582 21.95 128.732 23.83 128.372 26.25H143.582ZM128.192 30.21C128.272 31.95 128.542 33.46 129.002 34.74C129.462 36 130.072 37.05 130.832 37.89C131.612 38.73 132.532 39.36 133.592 39.78C134.672 40.18 135.872 40.38 137.192 40.38C138.452 40.38 139.542 40.24 140.462 39.96C141.382 39.66 142.182 39.34 142.862 39C143.542 38.64 144.122 38.32 144.602 38.04C145.082 37.74 145.522 37.59 145.922 37.59C146.442 37.59 146.842 37.79 147.122 38.19L148.952 40.56C148.192 41.46 147.332 42.22 146.372 42.84C145.412 43.46 144.392 43.97 143.312 44.37C142.232 44.75 141.122 45.02 139.982 45.18C138.842 45.36 137.732 45.45 136.652 45.45C134.532 45.45 132.562 45.1 130.742 44.4C128.942 43.68 127.372 42.63 126.032 41.25C124.712 39.87 123.672 38.16 122.912 36.12C122.172 34.08 121.802 31.73 121.802 29.07C121.802 26.95 122.132 24.97 122.792 23.13C123.472 21.29 124.432 19.69 125.672 18.33C126.932 16.97 128.452 15.9 130.232 15.12C132.032 14.32 134.062 13.92 136.322 13.92C138.202 13.92 139.942 14.23 141.542 14.85C143.142 15.45 144.522 16.34 145.682 17.52C146.842 18.7 147.742 20.15 148.382 21.87C149.042 23.57 149.372 25.51 149.372 27.69C149.372 28.69 149.262 29.36 149.042 29.7C148.822 30.04 148.422 30.21 147.842 30.21H128.192ZM161.477 20.07C162.437 18.13 163.597 16.61 164.957 15.51C166.317 14.39 167.947 13.83 169.847 13.83C170.507 13.83 171.127 13.91 171.707 14.07C172.287 14.21 172.807 14.43 173.267 14.73L172.817 19.59C172.737 19.93 172.607 20.17 172.427 20.31C172.267 20.43 172.047 20.49 171.767 20.49C171.467 20.49 171.037 20.44 170.477 20.34C169.917 20.22 169.327 20.16 168.707 20.16C167.807 20.16 167.007 20.29 166.307 20.55C165.627 20.81 165.007 21.19 164.447 21.69C163.907 22.19 163.427 22.8 163.007 23.52C162.587 24.24 162.197 25.06 161.837 25.98V45H155.387V14.4H159.137C159.817 14.4 160.287 14.53 160.547 14.79C160.807 15.03 160.987 15.46 161.087 16.08L161.477 20.07ZM196.551 26.25C196.551 25.17 196.391 24.17 196.071 23.25C195.771 22.31 195.321 21.5 194.721 20.82C194.121 20.12 193.371 19.58 192.471 19.2C191.591 18.8 190.571 18.6 189.411 18.6C187.071 18.6 185.231 19.27 183.891 20.61C182.551 21.95 181.701 23.83 181.341 26.25H196.551ZM181.161 30.21C181.241 31.95 181.511 33.46 181.971 34.74C182.431 36 183.041 37.05 183.801 37.89C184.581 38.73 185.501 39.36 186.561 39.78C187.641 40.18 188.841 40.38 190.161 40.38C191.421 40.38 192.511 40.24 193.431 39.96C194.351 39.66 195.151 39.34 195.831 39C196.511 38.64 197.091 38.32 197.571 38.04C198.051 37.74 198.491 37.59 198.891 37.59C199.411 37.59 199.811 37.79 200.091 38.19L201.921 40.56C201.161 41.46 200.301 42.22 199.341 42.84C198.381 43.46 197.361 43.97 196.281 44.37C195.201 44.75 194.091 45.02 192.951 45.18C191.811 45.36 190.701 45.45 189.621 45.45C187.501 45.45 185.531 45.1 183.711 44.4C181.911 43.68 180.341 42.63 179.001 41.25C177.681 39.87 176.641 38.16 175.881 36.12C175.141 34.08 174.771 31.73 174.771 29.07C174.771 26.95 175.101 24.97 175.761 23.13C176.441 21.29 177.401 19.69 178.641 18.33C179.901 16.97 181.421 15.9 183.201 15.12C185.001 14.32 187.031 13.92 189.291 13.92C191.171 13.92 192.911 14.23 194.511 14.85C196.111 15.45 197.491 16.34 198.651 17.52C199.811 18.7 200.711 20.15 201.351 21.87C202.011 23.57 202.341 25.51 202.341 27.69C202.341 28.69 202.231 29.36 202.011 29.7C201.791 30.04 201.391 30.21 200.811 30.21H181.161ZM226.626 19.95C226.466 20.23 226.286 20.43 226.086 20.55C225.886 20.67 225.636 20.73 225.336 20.73C224.996 20.73 224.626 20.63 224.226 20.43C223.826 20.21 223.356 19.97 222.816 19.71C222.276 19.45 221.636 19.22 220.896 19.02C220.176 18.8 219.326 18.69 218.346 18.69C217.546 18.69 216.816 18.79 216.156 18.99C215.516 19.17 214.966 19.44 214.506 19.8C214.066 20.14 213.726 20.55 213.486 21.03C213.246 21.49 213.126 21.99 213.126 22.53C213.126 23.25 213.346 23.85 213.786 24.33C214.226 24.81 214.806 25.23 215.526 25.59C216.246 25.93 217.066 26.24 217.986 26.52C218.906 26.8 219.846 27.1 220.806 27.42C221.766 27.74 222.706 28.11 223.626 28.53C224.546 28.95 225.366 29.47 226.086 30.09C226.806 30.69 227.386 31.43 227.826 32.31C228.266 33.17 228.486 34.22 228.486 35.46C228.486 36.9 228.226 38.23 227.706 39.45C227.186 40.67 226.426 41.73 225.426 42.63C224.426 43.53 223.176 44.23 221.676 44.73C220.196 45.23 218.496 45.48 216.576 45.48C215.516 45.48 214.486 45.38 213.486 45.18C212.506 45 211.566 44.75 210.666 44.43C209.786 44.09 208.956 43.69 208.176 43.23C207.416 42.77 206.736 42.27 206.136 41.73L207.636 39.27C207.816 38.97 208.036 38.74 208.296 38.58C208.576 38.4 208.916 38.31 209.316 38.31C209.736 38.31 210.146 38.45 210.546 38.73C210.966 38.99 211.446 39.28 211.986 39.6C212.546 39.92 213.216 40.22 213.996 40.5C214.776 40.76 215.746 40.89 216.906 40.89C217.866 40.89 218.696 40.78 219.396 40.56C220.096 40.32 220.676 40 221.136 39.6C221.596 39.2 221.936 38.75 222.156 38.25C222.376 37.73 222.486 37.18 222.486 36.6C222.486 35.82 222.266 35.18 221.826 34.68C221.386 34.18 220.796 33.75 220.056 33.39C219.336 33.03 218.506 32.71 217.566 32.43C216.646 32.15 215.706 31.85 214.746 31.53C213.786 31.21 212.836 30.84 211.896 30.42C210.976 30 210.146 29.47 209.406 28.83C208.686 28.17 208.106 27.38 207.666 26.46C207.226 25.52 207.006 24.38 207.006 23.04C207.006 21.82 207.246 20.66 207.726 19.56C208.226 18.46 208.946 17.49 209.886 16.65C210.846 15.81 212.016 15.15 213.396 14.67C214.796 14.17 216.406 13.92 218.226 13.92C220.286 13.92 222.156 14.25 223.836 14.91C225.516 15.57 226.926 16.47 228.066 17.61L226.626 19.95ZM267.759 19.95C267.599 20.23 267.419 20.43 267.219 20.55C267.019 20.67 266.769 20.73 266.469 20.73C266.129 20.73 265.759 20.63 265.359 20.43C264.959 20.21 264.489 19.97 263.949 19.71C263.409 19.45 262.769 19.22 262.029 19.02C261.309 18.8 260.459 18.69 259.479 18.69C258.679 18.69 257.949 18.79 257.289 18.99C256.649 19.17 256.099 19.44 255.639 19.8C255.199 20.14 254.859 20.55 254.619 21.03C254.379 21.49 254.259 21.99 254.259 22.53C254.259 23.25 254.479 23.85 254.919 24.33C255.359 24.81 255.939 25.23 256.659 25.59C257.379 25.93 258.199 26.24 259.119 26.52C260.039 26.8 260.979 27.1 261.939 27.42C262.899 27.74 263.839 28.11 264.759 28.53C265.679 28.95 266.499 29.47 267.219 30.09C267.939 30.69 268.519 31.43 268.959 32.31C269.399 33.17 269.619 34.22 269.619 35.46C269.619 36.9 269.359 38.23 268.839 39.45C268.319 40.67 267.559 41.73 266.559 42.63C265.559 43.53 264.309 44.23 262.809 44.73C261.329 45.23 259.629 45.48 257.709 45.48C256.649 45.48 255.619 45.38 254.619 45.18C253.639 45 252.699 44.75 251.799 44.43C250.919 44.09 250.089 43.69 249.309 43.23C248.549 42.77 247.869 42.27 247.269 41.73L248.769 39.27C248.949 38.97 249.169 38.74 249.429 38.58C249.709 38.4 250.049 38.31 250.449 38.31C250.869 38.31 251.279 38.45 251.679 38.73C252.099 38.99 252.579 39.28 253.119 39.6C253.679 39.92 254.349 40.22 255.129 40.5C255.909 40.76 256.879 40.89 258.039 40.89C258.999 40.89 259.829 40.78 260.529 40.56C261.229 40.32 261.809 40 262.269 39.6C262.729 39.2 263.069 38.75 263.289 38.25C263.509 37.73 263.619 37.18 263.619 36.6C263.619 35.82 263.399 35.18 262.959 34.68C262.519 34.18 261.929 33.75 261.189 33.39C260.469 33.03 259.639 32.71 258.699 32.43C257.779 32.15 256.839 31.85 255.879 31.53C254.919 31.21 253.969 30.84 253.029 30.42C252.109 30 251.279 29.47 250.539 28.83C249.819 28.17 249.239 27.38 248.799 26.46C248.359 25.52 248.139 24.38 248.139 23.04C248.139 21.82 248.379 20.66 248.859 19.56C249.359 18.46 250.079 17.49 251.019 16.65C251.979 15.81 253.149 15.15 254.529 14.67C255.929 14.17 257.539 13.92 259.359 13.92C261.419 13.92 263.289 14.25 264.969 14.91C266.649 15.57 268.059 16.47 269.199 17.61L267.759 19.95ZM295.75 26.25C295.75 25.17 295.59 24.17 295.27 23.25C294.97 22.31 294.52 21.5 293.92 20.82C293.32 20.12 292.57 19.58 291.67 19.2C290.79 18.8 289.77 18.6 288.61 18.6C286.27 18.6 284.43 19.27 283.09 20.61C281.75 21.95 280.9 23.83 280.54 26.25H295.75ZM280.36 30.21C280.44 31.95 280.71 33.46 281.17 34.74C281.63 36 282.24 37.05 283 37.89C283.78 38.73 284.7 39.36 285.76 39.78C286.84 40.18 288.04 40.38 289.36 40.38C290.62 40.38 291.71 40.24 292.63 39.96C293.55 39.66 294.35 39.34 295.03 39C295.71 38.64 296.29 38.32 296.77 38.04C297.25 37.74 297.69 37.59 298.09 37.59C298.61 37.59 299.01 37.79 299.29 38.19L301.12 40.56C300.36 41.46 299.5 42.22 298.54 42.84C297.58 43.46 296.56 43.97 295.48 44.37C294.4 44.75 293.29 45.02 292.15 45.18C291.01 45.36 289.9 45.45 288.82 45.45C286.7 45.45 284.73 45.1 282.91 44.4C281.11 43.68 279.54 42.63 278.2 41.25C276.88 39.87 275.84 38.16 275.08 36.12C274.34 34.08 273.97 31.73 273.97 29.07C273.97 26.95 274.3 24.97 274.96 23.13C275.64 21.29 276.6 19.69 277.84 18.33C279.1 16.97 280.62 15.9 282.4 15.12C284.2 14.32 286.23 13.92 288.49 13.92C290.37 13.92 292.11 14.23 293.71 14.85C295.31 15.45 296.69 16.34 297.85 17.52C299.01 18.7 299.91 20.15 300.55 21.87C301.21 23.57 301.54 25.51 301.54 27.69C301.54 28.69 301.43 29.36 301.21 29.7C300.99 30.04 300.59 30.21 300.01 30.21H280.36ZM313.645 20.07C314.605 18.13 315.765 16.61 317.125 15.51C318.485 14.39 320.115 13.83 322.015 13.83C322.675 13.83 323.295 13.91 323.875 14.07C324.455 14.21 324.975 14.43 325.435 14.73L324.985 19.59C324.905 19.93 324.775 20.17 324.595 20.31C324.435 20.43 324.215 20.49 323.935 20.49C323.635 20.49 323.205 20.44 322.645 20.34C322.085 20.22 321.495 20.16 320.875 20.16C319.975 20.16 319.175 20.29 318.475 20.55C317.795 20.81 317.175 21.19 316.615 21.69C316.075 22.19 315.595 22.8 315.175 23.52C314.755 24.24 314.365 25.06 314.005 25.98V45H307.555V14.4H311.305C311.985 14.4 312.455 14.53 312.715 14.79C312.975 15.03 313.155 15.46 313.255 16.08L313.645 20.07ZM363.426 26.25C363.426 25.17 363.266 24.17 362.946 23.25C362.646 22.31 362.196 21.5 361.596 20.82C360.996 20.12 360.246 19.58 359.346 19.2C358.466 18.8 357.446 18.6 356.286 18.6C353.946 18.6 352.106 19.27 350.766 20.61C349.426 21.95 348.576 23.83 348.216 26.25H363.426ZM348.036 30.21C348.116 31.95 348.386 33.46 348.846 34.74C349.306 36 349.916 37.05 350.676 37.89C351.456 38.73 352.376 39.36 353.436 39.78C354.516 40.18 355.716 40.38 357.036 40.38C358.296 40.38 359.386 40.24 360.306 39.96C361.226 39.66 362.026 39.34 362.706 39C363.386 38.64 363.966 38.32 364.446 38.04C364.926 37.74 365.366 37.59 365.766 37.59C366.286 37.59 366.686 37.79 366.966 38.19L368.796 40.56C368.036 41.46 367.176 42.22 366.216 42.84C365.256 43.46 364.236 43.97 363.156 44.37C362.076 44.75 360.966 45.02 359.826 45.18C358.686 45.36 357.576 45.45 356.496 45.45C354.376 45.45 352.406 45.1 350.586 44.4C348.786 43.68 347.216 42.63 345.876 41.25C344.556 39.87 343.516 38.16 342.756 36.12C342.016 34.08 341.646 31.73 341.646 29.07C341.646 26.95 341.976 24.97 342.636 23.13C343.316 21.29 344.276 19.69 345.516 18.33C346.776 16.97 348.296 15.9 350.076 15.12C351.876 14.32 353.906 13.92 356.166 13.92C358.046 13.92 359.786 14.23 361.386 14.85C362.986 15.45 364.366 16.34 365.526 17.52C366.686 18.7 367.586 20.15 368.226 21.87C368.886 23.57 369.216 25.51 369.216 27.69C369.216 28.69 369.106 29.36 368.886 29.7C368.666 30.04 368.266 30.21 367.686 30.21H348.036ZM381.801 0.599999V45H375.351V0.599999H381.801ZM411.153 37.32C412.053 38.48 413.033 39.3 414.093 39.78C415.173 40.24 416.363 40.47 417.663 40.47C420.183 40.47 422.143 39.55 423.543 37.71C424.963 35.87 425.673 33.13 425.673 29.49C425.673 27.61 425.513 26.01 425.193 24.69C424.873 23.35 424.413 22.26 423.813 21.42C423.213 20.58 422.483 19.97 421.623 19.59C420.763 19.21 419.793 19.02 418.713 19.02C417.073 19.02 415.653 19.38 414.453 20.1C413.273 20.8 412.173 21.81 411.153 23.13V37.32ZM410.823 18.84C412.103 17.34 413.553 16.13 415.173 15.21C416.813 14.29 418.713 13.83 420.873 13.83C422.593 13.83 424.153 14.18 425.553 14.88C426.953 15.56 428.153 16.56 429.153 17.88C430.153 19.2 430.923 20.84 431.463 22.8C432.023 24.74 432.303 26.97 432.303 29.49C432.303 31.75 431.993 33.86 431.373 35.82C430.773 37.76 429.903 39.45 428.763 40.89C427.623 42.31 426.243 43.43 424.623 44.25C423.003 45.05 421.173 45.45 419.133 45.45C417.333 45.45 415.803 45.16 414.543 44.58C413.303 44 412.173 43.2 411.153 42.18V55.17H404.703V14.4H408.603C409.483 14.4 410.043 14.81 410.283 15.63L410.823 18.84ZM444.661 20.07C445.621 18.13 446.781 16.61 448.141 15.51C449.501 14.39 451.131 13.83 453.031 13.83C453.691 13.83 454.311 13.91 454.891 14.07C455.471 14.21 455.991 14.43 456.451 14.73L456.001 19.59C455.921 19.93 455.791 20.17 455.611 20.31C455.451 20.43 455.231 20.49 454.951 20.49C454.651 20.49 454.221 20.44 453.661 20.34C453.101 20.22 452.511 20.16 451.891 20.16C450.991 20.16 450.191 20.29 449.491 20.55C448.811 20.81 448.191 21.19 447.631 21.69C447.091 22.19 446.611 22.8 446.191 23.52C445.771 24.24 445.381 25.06 445.021 25.98V45H438.571V14.4H442.321C443.001 14.4 443.471 14.53 443.731 14.79C443.991 15.03 444.171 15.46 444.271 16.08L444.661 20.07ZM467.439 14.4V45H460.989V14.4H467.439ZM468.519 5.16C468.519 5.74 468.399 6.29 468.159 6.81C467.939 7.33 467.629 7.79 467.229 8.19C466.829 8.57 466.359 8.88 465.819 9.12C465.299 9.34 464.739 9.45 464.139 9.45C463.559 9.45 463.009 9.34 462.489 9.12C461.989 8.88 461.549 8.57 461.169 8.19C460.789 7.79 460.479 7.33 460.239 6.81C460.019 6.29 459.909 5.74 459.909 5.16C459.909 4.56 460.019 4 460.239 3.48C460.479 2.96 460.789 2.51 461.169 2.13C461.549 1.73 461.989 1.42 462.489 1.2C463.009 0.959997 463.559 0.839996 464.139 0.839996C464.739 0.839996 465.299 0.959997 465.819 1.2C466.359 1.42 466.829 1.73 467.229 2.13C467.629 2.51 467.939 2.96 468.159 3.48C468.399 4 468.519 4.56 468.519 5.16ZM475.543 45V14.4H479.443C480.323 14.4 480.883 14.81 481.123 15.63L481.543 18.3C482.103 17.66 482.683 17.08 483.283 16.56C483.883 16.02 484.523 15.56 485.203 15.18C485.903 14.78 486.643 14.47 487.423 14.25C488.223 14.03 489.083 13.92 490.003 13.92C490.983 13.92 491.883 14.06 492.703 14.34C493.523 14.62 494.243 15.02 494.863 15.54C495.503 16.06 496.053 16.69 496.513 17.43C496.973 18.17 497.353 19 497.653 19.92C498.113 18.86 498.693 17.95 499.393 17.19C500.093 16.43 500.873 15.81 501.733 15.33C502.593 14.85 503.503 14.5 504.463 14.28C505.443 14.04 506.433 13.92 507.433 13.92C509.073 13.92 510.533 14.18 511.813 14.7C513.113 15.22 514.203 15.98 515.083 16.98C515.983 17.96 516.663 19.17 517.123 20.61C517.583 22.05 517.813 23.69 517.813 25.53V45H511.363V25.53C511.363 23.37 510.893 21.75 509.953 20.67C509.033 19.57 507.663 19.02 505.843 19.02C505.023 19.02 504.253 19.16 503.533 19.44C502.813 19.72 502.183 20.13 501.643 20.67C501.103 21.21 500.673 21.89 500.353 22.71C500.053 23.51 499.903 24.45 499.903 25.53V45H493.453V25.53C493.453 23.29 493.003 21.65 492.103 20.61C491.203 19.55 489.883 19.02 488.143 19.02C486.943 19.02 485.833 19.33 484.813 19.95C483.793 20.55 482.853 21.38 481.993 22.44V45H475.543ZM545.418 26.25C545.418 25.17 545.258 24.17 544.938 23.25C544.638 22.31 544.188 21.5 543.588 20.82C542.988 20.12 542.238 19.58 541.338 19.2C540.458 18.8 539.438 18.6 538.278 18.6C535.938 18.6 534.098 19.27 532.758 20.61C531.418 21.95 530.568 23.83 530.208 26.25H545.418ZM530.028 30.21C530.108 31.95 530.378 33.46 530.838 34.74C531.298 36 531.908 37.05 532.668 37.89C533.448 38.73 534.368 39.36 535.428 39.78C536.508 40.18 537.708 40.38 539.028 40.38C540.288 40.38 541.378 40.24 542.298 39.96C543.218 39.66 544.018 39.34 544.698 39C545.378 38.64 545.958 38.32 546.438 38.04C546.918 37.74 547.358 37.59 547.758 37.59C548.278 37.59 548.678 37.79 548.958 38.19L550.788 40.56C550.028 41.46 549.168 42.22 548.208 42.84C547.248 43.46 546.228 43.97 545.148 44.37C544.068 44.75 542.958 45.02 541.818 45.18C540.678 45.36 539.568 45.45 538.488 45.45C536.368 45.45 534.398 45.1 532.578 44.4C530.778 43.68 529.208 42.63 527.868 41.25C526.548 39.87 525.508 38.16 524.748 36.12C524.008 34.08 523.638 31.73 523.638 29.07C523.638 26.95 523.968 24.97 524.628 23.13C525.308 21.29 526.268 19.69 527.508 18.33C528.768 16.97 530.288 15.9 532.068 15.12C533.868 14.32 535.898 13.92 538.158 13.92C540.038 13.92 541.778 14.23 543.378 14.85C544.978 15.45 546.358 16.34 547.518 17.52C548.678 18.7 549.578 20.15 550.218 21.87C550.878 23.57 551.208 25.51 551.208 27.69C551.208 28.69 551.098 29.36 550.878 29.7C550.658 30.04 550.258 30.21 549.678 30.21H530.028ZM563.313 20.07C564.273 18.13 565.433 16.61 566.793 15.51C568.153 14.39 569.783 13.83 571.683 13.83C572.343 13.83 572.963 13.91 573.543 14.07C574.123 14.21 574.643 14.43 575.103 14.73L574.653 19.59C574.573 19.93 574.443 20.17 574.263 20.31C574.103 20.43 573.883 20.49 573.603 20.49C573.303 20.49 572.873 20.44 572.313 20.34C571.753 20.22 571.163 20.16 570.543 20.16C569.643 20.16 568.843 20.29 568.143 20.55C567.463 20.81 566.843 21.19 566.283 21.69C565.743 22.19 565.263 22.8 564.843 23.52C564.423 24.24 564.033 25.06 563.673 25.98V45H557.223V14.4H560.973C561.653 14.4 562.123 14.53 562.383 14.79C562.643 15.03 562.823 15.46 562.923 16.08L563.313 20.07ZM591.547 13.92C593.807 13.92 595.847 14.29 597.667 15.03C599.507 15.77 601.067 16.82 602.347 18.18C603.647 19.54 604.647 21.19 605.347 23.13C606.047 25.07 606.397 27.25 606.397 29.67C606.397 32.09 606.047 34.27 605.347 36.21C604.647 38.15 603.647 39.81 602.347 41.19C601.067 42.55 599.507 43.6 597.667 44.34C595.847 45.08 593.807 45.45 591.547 45.45C589.267 45.45 587.207 45.08 585.367 44.34C583.547 43.6 581.987 42.55 580.687 41.19C579.387 39.81 578.387 38.15 577.687 36.21C576.987 34.27 576.637 32.09 576.637 29.67C576.637 27.25 576.987 25.07 577.687 23.13C578.387 21.19 579.387 19.54 580.687 18.18C581.987 16.82 583.547 15.77 585.367 15.03C587.207 14.29 589.267 13.92 591.547 13.92ZM591.547 40.41C594.307 40.41 596.357 39.49 597.697 37.65C599.057 35.79 599.737 33.14 599.737 29.7C599.737 26.26 599.057 23.61 597.697 21.75C596.357 19.87 594.307 18.93 591.547 18.93C588.747 18.93 586.667 19.87 585.307 21.75C583.947 23.61 583.267 26.26 583.267 29.7C583.267 33.14 583.947 35.79 585.307 37.65C586.667 39.49 588.747 40.41 591.547 40.41ZM647.605 26.25C647.605 25.17 647.445 24.17 647.125 23.25C646.825 22.31 646.375 21.5 645.775 20.82C645.175 20.12 644.425 19.58 643.525 19.2C642.645 18.8 641.625 18.6 640.465 18.6C638.125 18.6 636.285 19.27 634.945 20.61C633.605 21.95 632.755 23.83 632.395 26.25H647.605ZM632.215 30.21C632.295 31.95 632.565 33.46 633.025 34.74C633.485 36 634.095 37.05 634.855 37.89C635.635 38.73 636.555 39.36 637.615 39.78C638.695 40.18 639.895 40.38 641.215 40.38C642.475 40.38 643.565 40.24 644.485 39.96C645.405 39.66 646.205 39.34 646.885 39C647.565 38.64 648.145 38.32 648.625 38.04C649.105 37.74 649.545 37.59 649.945 37.59C650.465 37.59 650.865 37.79 651.145 38.19L652.975 40.56C652.215 41.46 651.355 42.22 650.395 42.84C649.435 43.46 648.415 43.97 647.335 44.37C646.255 44.75 645.145 45.02 644.005 45.18C642.865 45.36 641.755 45.45 640.675 45.45C638.555 45.45 636.585 45.1 634.765 44.4C632.965 43.68 631.395 42.63 630.055 41.25C628.735 39.87 627.695 38.16 626.935 36.12C626.195 34.08 625.825 31.73 625.825 29.07C625.825 26.95 626.155 24.97 626.815 23.13C627.495 21.29 628.455 19.69 629.695 18.33C630.955 16.97 632.475 15.9 634.255 15.12C636.055 14.32 638.085 13.92 640.345 13.92C642.225 13.92 643.965 14.23 645.565 14.85C647.165 15.45 648.545 16.34 649.705 17.52C650.865 18.7 651.765 20.15 652.405 21.87C653.065 23.57 653.395 25.51 653.395 27.69C653.395 28.69 653.285 29.36 653.065 29.7C652.845 30.04 652.445 30.21 651.865 30.21H632.215ZM665.44 18.45C666.1 17.77 666.78 17.16 667.48 16.62C668.2 16.06 668.96 15.58 669.76 15.18C670.56 14.78 671.41 14.47 672.31 14.25C673.21 14.03 674.19 13.92 675.25 13.92C676.93 13.92 678.4 14.2 679.66 14.76C680.94 15.32 682.01 16.11 682.87 17.13C683.75 18.15 684.41 19.38 684.85 20.82C685.29 22.24 685.51 23.81 685.51 25.53V45H679.09V25.53C679.09 23.47 678.61 21.87 677.65 20.73C676.71 19.59 675.27 19.02 673.33 19.02C671.89 19.02 670.55 19.35 669.31 20.01C668.09 20.67 666.94 21.57 665.86 22.71V45H659.41V14.4H663.31C664.19 14.4 664.75 14.81 664.99 15.63L665.44 18.45ZM22 83.25C22 82.17 21.84 81.17 21.52 80.25C21.22 79.31 20.77 78.5 20.17 77.82C19.57 77.12 18.82 76.58 17.92 76.2C17.04 75.8 16.02 75.6 14.86 75.6C12.52 75.6 10.68 76.27 9.34 77.61C8 78.95 7.15 80.83 6.79 83.25H22ZM6.61 87.21C6.69 88.95 6.96 90.46 7.42 91.74C7.88 93 8.49 94.05 9.25 94.89C10.03 95.73 10.95 96.36 12.01 96.78C13.09 97.18 14.29 97.38 15.61 97.38C16.87 97.38 17.96 97.24 18.88 96.96C19.8 96.66 20.6 96.34 21.28 96C21.96 95.64 22.54 95.32 23.02 95.04C23.5 94.74 23.94 94.59 24.34 94.59C24.86 94.59 25.26 94.79 25.54 95.19L27.37 97.56C26.61 98.46 25.75 99.22 24.79 99.84C23.83 100.46 22.81 100.97 21.73 101.37C20.65 101.75 19.54 102.02 18.4 102.18C17.26 102.36 16.15 102.45 15.07 102.45C12.95 102.45 10.98 102.1 9.16 101.4C7.36 100.68 5.79 99.63 4.45 98.25C3.13 96.87 2.09 95.16 1.33 93.12C0.59 91.08 0.22 88.73 0.22 86.07C0.22 83.95 0.55 81.97 1.21 80.13C1.89 78.29 2.85 76.69 4.09 75.33C5.35 73.97 6.87 72.9 8.65 72.12C10.45 71.32 12.48 70.92 14.74 70.92C16.62 70.92 18.36 71.23 19.96 71.85C21.56 72.45 22.94 73.34 24.1 74.52C25.26 75.7 26.16 77.15 26.8 78.87C27.46 80.57 27.79 82.51 27.79 84.69C27.79 85.69 27.68 86.36 27.46 86.7C27.24 87.04 26.84 87.21 26.26 87.21H6.61ZM39.835 75.45C40.495 74.77 41.175 74.16 41.875 73.62C42.595 73.06 43.355 72.58 44.155 72.18C44.955 71.78 45.805 71.47 46.705 71.25C47.605 71.03 48.585 70.92 49.645 70.92C51.325 70.92 52.795 71.2 54.055 71.76C55.335 72.32 56.405 73.11 57.265 74.13C58.145 75.15 58.805 76.38 59.245 77.82C59.685 79.24 59.905 80.81 59.905 82.53V102H53.485V82.53C53.485 80.47 53.005 78.87 52.045 77.73C51.105 76.59 49.665 76.02 47.725 76.02C46.285 76.02 44.945 76.35 43.705 77.01C42.485 77.67 41.335 78.57 40.255 79.71V102H33.805V71.4H37.705C38.585 71.4 39.145 71.81 39.385 72.63L39.835 75.45ZM76.8377 102.48C74.2977 102.48 72.3377 101.77 70.9577 100.35C69.5977 98.91 68.9177 96.89 68.9177 94.29V76.47H65.5577C65.1977 76.47 64.8877 76.36 64.6277 76.14C64.3677 75.9 64.2377 75.55 64.2377 75.09V72.48L69.1877 71.76L70.5977 62.91C70.6977 62.57 70.8677 62.3 71.1077 62.1C71.3477 61.88 71.6677 61.77 72.0677 61.77H75.3677V71.82H83.8577V76.47H75.3677V93.84C75.3677 94.94 75.6377 95.78 76.1777 96.36C76.7177 96.94 77.4377 97.23 78.3377 97.23C78.8377 97.23 79.2677 97.17 79.6277 97.05C79.9877 96.91 80.2977 96.77 80.5577 96.63C80.8177 96.47 81.0377 96.33 81.2177 96.21C81.4177 96.07 81.6077 96 81.7877 96C82.1477 96 82.4377 96.2 82.6577 96.6L84.5777 99.75C83.5777 100.63 82.3977 101.31 81.0377 101.79C79.6777 102.25 78.2777 102.48 76.8377 102.48ZM108.777 83.25C108.777 82.17 108.617 81.17 108.297 80.25C107.997 79.31 107.547 78.5 106.947 77.82C106.347 77.12 105.597 76.58 104.697 76.2C103.817 75.8 102.797 75.6 101.637 75.6C99.2973 75.6 97.4573 76.27 96.1173 77.61C94.7773 78.95 93.9273 80.83 93.5673 83.25H108.777ZM93.3873 87.21C93.4673 88.95 93.7373 90.46 94.1973 91.74C94.6573 93 95.2673 94.05 96.0273 94.89C96.8073 95.73 97.7273 96.36 98.7873 96.78C99.8673 97.18 101.067 97.38 102.387 97.38C103.647 97.38 104.737 97.24 105.657 96.96C106.577 96.66 107.377 96.34 108.057 96C108.737 95.64 109.317 95.32 109.797 95.04C110.277 94.74 110.717 94.59 111.117 94.59C111.637 94.59 112.037 94.79 112.317 95.19L114.147 97.56C113.387 98.46 112.527 99.22 111.567 99.84C110.607 100.46 109.587 100.97 108.507 101.37C107.427 101.75 106.317 102.02 105.177 102.18C104.037 102.36 102.927 102.45 101.847 102.45C99.7273 102.45 97.7573 102.1 95.9373 101.4C94.1373 100.68 92.5673 99.63 91.2273 98.25C89.9073 96.87 88.8673 95.16 88.1073 93.12C87.3673 91.08 86.9973 88.73 86.9973 86.07C86.9973 83.95 87.3273 81.97 87.9873 80.13C88.6673 78.29 89.6273 76.69 90.8673 75.33C92.1273 73.97 93.6473 72.9 95.4273 72.12C97.2273 71.32 99.2573 70.92 101.517 70.92C103.397 70.92 105.137 71.23 106.737 71.85C108.337 72.45 109.717 73.34 110.877 74.52C112.037 75.7 112.937 77.15 113.577 78.87C114.237 80.57 114.567 82.51 114.567 84.69C114.567 85.69 114.457 86.36 114.237 86.7C114.017 87.04 113.617 87.21 113.037 87.21H93.3873ZM126.672 77.07C127.632 75.13 128.792 73.61 130.152 72.51C131.512 71.39 133.142 70.83 135.042 70.83C135.702 70.83 136.322 70.91 136.902 71.07C137.482 71.21 138.002 71.43 138.462 71.73L138.012 76.59C137.932 76.93 137.802 77.17 137.622 77.31C137.462 77.43 137.242 77.49 136.962 77.49C136.662 77.49 136.232 77.44 135.672 77.34C135.112 77.22 134.522 77.16 133.902 77.16C133.002 77.16 132.202 77.29 131.502 77.55C130.822 77.81 130.202 78.19 129.642 78.69C129.102 79.19 128.622 79.8 128.202 80.52C127.782 81.24 127.392 82.06 127.032 82.98V102H120.582V71.4H124.332C125.012 71.4 125.482 71.53 125.742 71.79C126.002 72.03 126.182 72.46 126.282 73.08L126.672 77.07ZM158.612 88.62C156.312 88.7 154.372 88.89 152.792 89.19C151.212 89.47 149.932 89.84 148.952 90.3C147.972 90.74 147.262 91.27 146.822 91.89C146.402 92.51 146.192 93.19 146.192 93.93C146.192 94.65 146.302 95.27 146.522 95.79C146.762 96.29 147.082 96.71 147.482 97.05C147.902 97.37 148.382 97.61 148.922 97.77C149.482 97.91 150.092 97.98 150.752 97.98C152.432 97.98 153.872 97.67 155.072 97.05C156.292 96.41 157.472 95.49 158.612 94.29V88.62ZM141.512 75.66C144.972 72.44 149.092 70.83 153.872 70.83C155.632 70.83 157.192 71.12 158.552 71.7C159.932 72.26 161.082 73.06 162.002 74.1C162.942 75.14 163.652 76.38 164.132 77.82C164.632 79.24 164.882 80.82 164.882 82.56V102H162.002C161.382 102 160.912 101.91 160.592 101.73C160.272 101.53 160.002 101.14 159.782 100.56L159.152 98.07C158.372 98.77 157.602 99.4 156.842 99.96C156.082 100.5 155.292 100.96 154.472 101.34C153.672 101.72 152.802 102 151.862 102.18C150.942 102.38 149.922 102.48 148.802 102.48C147.562 102.48 146.402 102.31 145.322 101.97C144.262 101.63 143.342 101.12 142.562 100.44C141.782 99.74 141.162 98.88 140.702 97.86C140.262 96.84 140.042 95.64 140.042 94.26C140.042 93.08 140.352 91.93 140.972 90.81C141.612 89.69 142.652 88.69 144.092 87.81C145.552 86.91 147.462 86.17 149.822 85.59C152.202 85.01 155.132 84.68 158.612 84.6V82.56C158.612 80.36 158.142 78.72 157.202 77.64C156.262 76.56 154.882 76.02 153.062 76.02C151.822 76.02 150.782 76.18 149.942 76.5C149.102 76.8 148.372 77.13 147.752 77.49C147.132 77.85 146.582 78.19 146.102 78.51C145.622 78.81 145.112 78.96 144.572 78.96C144.132 78.96 143.752 78.85 143.432 78.63C143.132 78.39 142.882 78.1 142.682 77.76L141.512 75.66ZM178.528 77.07C179.488 75.13 180.648 73.61 182.008 72.51C183.368 71.39 184.998 70.83 186.898 70.83C187.558 70.83 188.178 70.91 188.758 71.07C189.338 71.21 189.858 71.43 190.318 71.73L189.868 76.59C189.788 76.93 189.658 77.17 189.478 77.31C189.318 77.43 189.098 77.49 188.818 77.49C188.518 77.49 188.088 77.44 187.528 77.34C186.968 77.22 186.378 77.16 185.758 77.16C184.858 77.16 184.058 77.29 183.358 77.55C182.678 77.81 182.058 78.19 181.498 78.69C180.958 79.19 180.478 79.8 180.058 80.52C179.638 81.24 179.248 82.06 178.888 82.98V102H172.438V71.4H176.188C176.868 71.4 177.338 71.53 177.598 71.79C177.858 72.03 178.038 72.46 178.138 73.08L178.528 77.07ZM212.68 76.95C212.52 77.23 212.34 77.43 212.14 77.55C211.94 77.67 211.69 77.73 211.39 77.73C211.05 77.73 210.68 77.63 210.28 77.43C209.88 77.21 209.41 76.97 208.87 76.71C208.33 76.45 207.69 76.22 206.95 76.02C206.23 75.8 205.38 75.69 204.4 75.69C203.6 75.69 202.87 75.79 202.21 75.99C201.57 76.17 201.02 76.44 200.56 76.8C200.12 77.14 199.78 77.55 199.54 78.03C199.3 78.49 199.18 78.99 199.18 79.53C199.18 80.25 199.4 80.85 199.84 81.33C200.28 81.81 200.86 82.23 201.58 82.59C202.3 82.93 203.12 83.24 204.04 83.52C204.96 83.8 205.9 84.1 206.86 84.42C207.82 84.74 208.76 85.11 209.68 85.53C210.6 85.95 211.42 86.47 212.14 87.09C212.86 87.69 213.44 88.43 213.88 89.31C214.32 90.17 214.54 91.22 214.54 92.46C214.54 93.9 214.28 95.23 213.76 96.45C213.24 97.67 212.48 98.73 211.48 99.63C210.48 100.53 209.23 101.23 207.73 101.73C206.25 102.23 204.55 102.48 202.63 102.48C201.57 102.48 200.54 102.38 199.54 102.18C198.56 102 197.62 101.75 196.72 101.43C195.84 101.09 195.01 100.69 194.23 100.23C193.47 99.77 192.79 99.27 192.19 98.73L193.69 96.27C193.87 95.97 194.09 95.74 194.35 95.58C194.63 95.4 194.97 95.31 195.37 95.31C195.79 95.31 196.2 95.45 196.6 95.73C197.02 95.99 197.5 96.28 198.04 96.6C198.6 96.92 199.27 97.22 200.05 97.5C200.83 97.76 201.8 97.89 202.96 97.89C203.92 97.89 204.75 97.78 205.45 97.56C206.15 97.32 206.73 97 207.19 96.6C207.65 96.2 207.99 95.75 208.21 95.25C208.43 94.73 208.54 94.18 208.54 93.6C208.54 92.82 208.32 92.18 207.88 91.68C207.44 91.18 206.85 90.75 206.11 90.39C205.39 90.03 204.56 89.71 203.62 89.43C202.7 89.15 201.76 88.85 200.8 88.53C199.84 88.21 198.89 87.84 197.95 87.42C197.03 87 196.2 86.47 195.46 85.83C194.74 85.17 194.16 84.38 193.72 83.46C193.28 82.52 193.06 81.38 193.06 80.04C193.06 78.82 193.3 77.66 193.78 76.56C194.28 75.46 195 74.49 195.94 73.65C196.9 72.81 198.07 72.15 199.45 71.67C200.85 71.17 202.46 70.92 204.28 70.92C206.34 70.92 208.21 71.25 209.89 71.91C211.57 72.57 212.98 73.47 214.12 74.61L212.68 76.95ZM240.672 83.25C240.672 82.17 240.512 81.17 240.192 80.25C239.892 79.31 239.442 78.5 238.842 77.82C238.242 77.12 237.492 76.58 236.592 76.2C235.712 75.8 234.692 75.6 233.532 75.6C231.192 75.6 229.352 76.27 228.012 77.61C226.672 78.95 225.822 80.83 225.462 83.25H240.672ZM225.282 87.21C225.362 88.95 225.632 90.46 226.092 91.74C226.552 93 227.162 94.05 227.922 94.89C228.702 95.73 229.622 96.36 230.682 96.78C231.762 97.18 232.962 97.38 234.282 97.38C235.542 97.38 236.632 97.24 237.552 96.96C238.472 96.66 239.272 96.34 239.952 96C240.632 95.64 241.212 95.32 241.692 95.04C242.172 94.74 242.612 94.59 243.012 94.59C243.532 94.59 243.932 94.79 244.212 95.19L246.042 97.56C245.282 98.46 244.422 99.22 243.462 99.84C242.502 100.46 241.482 100.97 240.402 101.37C239.322 101.75 238.212 102.02 237.072 102.18C235.932 102.36 234.822 102.45 233.742 102.45C231.622 102.45 229.652 102.1 227.832 101.4C226.032 100.68 224.462 99.63 223.122 98.25C221.802 96.87 220.762 95.16 220.002 93.12C219.262 91.08 218.892 88.73 218.892 86.07C218.892 83.95 219.222 81.97 219.882 80.13C220.562 78.29 221.522 76.69 222.762 75.33C224.022 73.97 225.542 72.9 227.322 72.12C229.122 71.32 231.152 70.92 233.412 70.92C235.292 70.92 237.032 71.23 238.632 71.85C240.232 72.45 241.612 73.34 242.772 74.52C243.932 75.7 244.832 77.15 245.472 78.87C246.132 80.57 246.462 82.51 246.462 84.69C246.462 85.69 246.352 86.36 246.132 86.7C245.912 87.04 245.512 87.21 244.932 87.21H225.282ZM286.948 78.93C286.048 77.77 285.058 76.96 283.978 76.5C282.898 76.04 281.728 75.81 280.468 75.81C277.948 75.81 275.978 76.74 274.558 78.6C273.138 80.44 272.428 83.17 272.428 86.79C272.428 88.67 272.588 90.28 272.908 91.62C273.228 92.94 273.688 94.02 274.288 94.86C274.888 95.7 275.618 96.31 276.478 96.69C277.338 97.07 278.308 97.26 279.388 97.26C281.028 97.26 282.438 96.91 283.618 96.21C284.818 95.49 285.928 94.48 286.948 93.18V78.93ZM293.398 57.6V102H289.498C288.638 102 288.088 101.59 287.848 100.77L287.278 97.44C285.998 98.94 284.538 100.15 282.898 101.07C281.278 101.99 279.388 102.45 277.228 102.45C275.508 102.45 273.948 102.11 272.548 101.43C271.148 100.73 269.948 99.72 268.948 98.4C267.948 97.08 267.168 95.45 266.608 93.51C266.068 91.55 265.798 89.31 265.798 86.79C265.798 84.51 266.098 82.4 266.698 80.46C267.318 78.52 268.198 76.84 269.338 75.42C270.478 73.98 271.858 72.86 273.478 72.06C275.118 71.24 276.948 70.83 278.968 70.83C280.768 70.83 282.298 71.12 283.558 71.7C284.818 72.26 285.948 73.05 286.948 74.07V57.6H293.398ZM321.355 83.25C321.355 82.17 321.195 81.17 320.875 80.25C320.575 79.31 320.125 78.5 319.525 77.82C318.925 77.12 318.175 76.58 317.275 76.2C316.395 75.8 315.375 75.6 314.215 75.6C311.875 75.6 310.035 76.27 308.695 77.61C307.355 78.95 306.505 80.83 306.145 83.25H321.355ZM305.965 87.21C306.045 88.95 306.315 90.46 306.775 91.74C307.235 93 307.845 94.05 308.605 94.89C309.385 95.73 310.305 96.36 311.365 96.78C312.445 97.18 313.645 97.38 314.965 97.38C316.225 97.38 317.315 97.24 318.235 96.96C319.155 96.66 319.955 96.34 320.635 96C321.315 95.64 321.895 95.32 322.375 95.04C322.855 94.74 323.295 94.59 323.695 94.59C324.215 94.59 324.615 94.79 324.895 95.19L326.725 97.56C325.965 98.46 325.105 99.22 324.145 99.84C323.185 100.46 322.165 100.97 321.085 101.37C320.005 101.75 318.895 102.02 317.755 102.18C316.615 102.36 315.505 102.45 314.425 102.45C312.305 102.45 310.335 102.1 308.515 101.4C306.715 100.68 305.145 99.63 303.805 98.25C302.485 96.87 301.445 95.16 300.685 93.12C299.945 91.08 299.575 88.73 299.575 86.07C299.575 83.95 299.905 81.97 300.565 80.13C301.245 78.29 302.205 76.69 303.445 75.33C304.705 73.97 306.225 72.9 308.005 72.12C309.805 71.32 311.835 70.92 314.095 70.92C315.975 70.92 317.715 71.23 319.315 71.85C320.915 72.45 322.295 73.34 323.455 74.52C324.615 75.7 325.515 77.15 326.155 78.87C326.815 80.57 327.145 82.51 327.145 84.69C327.145 85.69 327.035 86.36 326.815 86.7C326.595 87.04 326.195 87.21 325.615 87.21H305.965ZM357.912 102.48C355.372 102.48 353.412 101.77 352.032 100.35C350.672 98.91 349.992 96.89 349.992 94.29V76.47H346.632C346.272 76.47 345.962 76.36 345.702 76.14C345.442 75.9 345.312 75.55 345.312 75.09V72.48L350.262 71.76L351.672 62.91C351.772 62.57 351.942 62.3 352.182 62.1C352.422 61.88 352.742 61.77 353.142 61.77H356.442V71.82H364.932V76.47H356.442V93.84C356.442 94.94 356.712 95.78 357.252 96.36C357.792 96.94 358.512 97.23 359.412 97.23C359.912 97.23 360.342 97.17 360.702 97.05C361.062 96.91 361.372 96.77 361.632 96.63C361.892 96.47 362.112 96.33 362.292 96.21C362.492 96.07 362.682 96 362.862 96C363.222 96 363.512 96.2 363.732 96.6L365.652 99.75C364.652 100.63 363.472 101.31 362.112 101.79C360.752 102.25 359.352 102.48 357.912 102.48ZM383.012 70.92C385.272 70.92 387.312 71.29 389.132 72.03C390.972 72.77 392.532 73.82 393.812 75.18C395.112 76.54 396.112 78.19 396.812 80.13C397.512 82.07 397.862 84.25 397.862 86.67C397.862 89.09 397.512 91.27 396.812 93.21C396.112 95.15 395.112 96.81 393.812 98.19C392.532 99.55 390.972 100.6 389.132 101.34C387.312 102.08 385.272 102.45 383.012 102.45C380.732 102.45 378.672 102.08 376.832 101.34C375.012 100.6 373.452 99.55 372.152 98.19C370.852 96.81 369.852 95.15 369.152 93.21C368.452 91.27 368.102 89.09 368.102 86.67C368.102 84.25 368.452 82.07 369.152 80.13C369.852 78.19 370.852 76.54 372.152 75.18C373.452 73.82 375.012 72.77 376.832 72.03C378.672 71.29 380.732 70.92 383.012 70.92ZM383.012 97.41C385.772 97.41 387.822 96.49 389.162 94.65C390.522 92.79 391.202 90.14 391.202 86.7C391.202 83.26 390.522 80.61 389.162 78.75C387.822 76.87 385.772 75.93 383.012 75.93C380.212 75.93 378.132 76.87 376.772 78.75C375.412 80.61 374.732 83.26 374.732 86.7C374.732 90.14 375.412 92.79 376.772 94.65C378.132 96.49 380.212 97.41 383.012 97.41ZM423.589 78.93C422.689 77.77 421.699 76.96 420.619 76.5C419.539 76.04 418.369 75.81 417.109 75.81C414.589 75.81 412.619 76.74 411.199 78.6C409.779 80.44 409.069 83.17 409.069 86.79C409.069 88.67 409.229 90.28 409.549 91.62C409.869 92.94 410.329 94.02 410.929 94.86C411.529 95.7 412.259 96.31 413.119 96.69C413.979 97.07 414.949 97.26 416.029 97.26C417.669 97.26 419.079 96.91 420.259 96.21C421.459 95.49 422.569 94.48 423.589 93.18V78.93ZM430.039 57.6V102H426.139C425.279 102 424.729 101.59 424.489 100.77L423.919 97.44C422.639 98.94 421.179 100.15 419.539 101.07C417.919 101.99 416.029 102.45 413.869 102.45C412.149 102.45 410.589 102.11 409.189 101.43C407.789 100.73 406.589 99.72 405.589 98.4C404.589 97.08 403.809 95.45 403.249 93.51C402.709 91.55 402.439 89.31 402.439 86.79C402.439 84.51 402.739 82.4 403.339 80.46C403.959 78.52 404.839 76.84 405.979 75.42C407.119 73.98 408.499 72.86 410.119 72.06C411.759 71.24 413.589 70.83 415.609 70.83C417.409 70.83 418.939 71.12 420.199 71.7C421.459 72.26 422.589 73.05 423.589 74.07V57.6H430.039ZM454.276 88.62C451.976 88.7 450.036 88.89 448.456 89.19C446.876 89.47 445.596 89.84 444.616 90.3C443.636 90.74 442.926 91.27 442.486 91.89C442.066 92.51 441.856 93.19 441.856 93.93C441.856 94.65 441.966 95.27 442.186 95.79C442.426 96.29 442.746 96.71 443.146 97.05C443.566 97.37 444.046 97.61 444.586 97.77C445.146 97.91 445.756 97.98 446.416 97.98C448.096 97.98 449.536 97.67 450.736 97.05C451.956 96.41 453.136 95.49 454.276 94.29V88.62ZM437.176 75.66C440.636 72.44 444.756 70.83 449.536 70.83C451.296 70.83 452.856 71.12 454.216 71.7C455.596 72.26 456.746 73.06 457.666 74.1C458.606 75.14 459.316 76.38 459.796 77.82C460.296 79.24 460.546 80.82 460.546 82.56V102H457.666C457.046 102 456.576 101.91 456.256 101.73C455.936 101.53 455.666 101.14 455.446 100.56L454.816 98.07C454.036 98.77 453.266 99.4 452.506 99.96C451.746 100.5 450.956 100.96 450.136 101.34C449.336 101.72 448.466 102 447.526 102.18C446.606 102.38 445.586 102.48 444.466 102.48C443.226 102.48 442.066 102.31 440.986 101.97C439.926 101.63 439.006 101.12 438.226 100.44C437.446 99.74 436.826 98.88 436.366 97.86C435.926 96.84 435.706 95.64 435.706 94.26C435.706 93.08 436.016 91.93 436.636 90.81C437.276 89.69 438.316 88.69 439.756 87.81C441.216 86.91 443.126 86.17 445.486 85.59C447.866 85.01 450.796 84.68 454.276 84.6V82.56C454.276 80.36 453.806 78.72 452.866 77.64C451.926 76.56 450.546 76.02 448.726 76.02C447.486 76.02 446.446 76.18 445.606 76.5C444.766 76.8 444.036 77.13 443.416 77.49C442.796 77.85 442.246 78.19 441.766 78.51C441.286 78.81 440.776 78.96 440.236 78.96C439.796 78.96 439.416 78.85 439.096 78.63C438.796 78.39 438.546 78.1 438.346 77.76L437.176 75.66ZM486.372 76.95C486.212 77.23 486.032 77.43 485.832 77.55C485.632 77.67 485.382 77.73 485.082 77.73C484.742 77.73 484.372 77.63 483.972 77.43C483.572 77.21 483.102 76.97 482.562 76.71C482.022 76.45 481.382 76.22 480.642 76.02C479.922 75.8 479.072 75.69 478.092 75.69C477.292 75.69 476.562 75.79 475.902 75.99C475.262 76.17 474.712 76.44 474.252 76.8C473.812 77.14 473.472 77.55 473.232 78.03C472.992 78.49 472.872 78.99 472.872 79.53C472.872 80.25 473.092 80.85 473.532 81.33C473.972 81.81 474.552 82.23 475.272 82.59C475.992 82.93 476.812 83.24 477.732 83.52C478.652 83.8 479.592 84.1 480.552 84.42C481.512 84.74 482.452 85.11 483.372 85.53C484.292 85.95 485.112 86.47 485.832 87.09C486.552 87.69 487.132 88.43 487.572 89.31C488.012 90.17 488.232 91.22 488.232 92.46C488.232 93.9 487.972 95.23 487.452 96.45C486.932 97.67 486.172 98.73 485.172 99.63C484.172 100.53 482.922 101.23 481.422 101.73C479.942 102.23 478.242 102.48 476.322 102.48C475.262 102.48 474.232 102.38 473.232 102.18C472.252 102 471.312 101.75 470.412 101.43C469.532 101.09 468.702 100.69 467.922 100.23C467.162 99.77 466.482 99.27 465.882 98.73L467.382 96.27C467.562 95.97 467.782 95.74 468.042 95.58C468.322 95.4 468.662 95.31 469.062 95.31C469.482 95.31 469.892 95.45 470.292 95.73C470.712 95.99 471.192 96.28 471.732 96.6C472.292 96.92 472.962 97.22 473.742 97.5C474.522 97.76 475.492 97.89 476.652 97.89C477.612 97.89 478.442 97.78 479.142 97.56C479.842 97.32 480.422 97 480.882 96.6C481.342 96.2 481.682 95.75 481.902 95.25C482.122 94.73 482.232 94.18 482.232 93.6C482.232 92.82 482.012 92.18 481.572 91.68C481.132 91.18 480.542 90.75 479.802 90.39C479.082 90.03 478.252 89.71 477.312 89.43C476.392 89.15 475.452 88.85 474.492 88.53C473.532 88.21 472.582 87.84 471.642 87.42C470.722 87 469.892 86.47 469.152 85.83C468.432 85.17 467.852 84.38 467.412 83.46C466.972 82.52 466.752 81.38 466.752 80.04C466.752 78.82 466.992 77.66 467.472 76.56C467.972 75.46 468.692 74.49 469.632 73.65C470.592 72.81 471.762 72.15 473.142 71.67C474.542 71.17 476.152 70.92 477.972 70.92C480.032 70.92 481.902 71.25 483.582 71.91C485.262 72.57 486.672 73.47 487.812 74.61L486.372 76.95ZM515.805 57.6V102H509.355V57.6H515.805ZM540.116 88.62C537.816 88.7 535.876 88.89 534.296 89.19C532.716 89.47 531.436 89.84 530.456 90.3C529.476 90.74 528.766 91.27 528.326 91.89C527.906 92.51 527.696 93.19 527.696 93.93C527.696 94.65 527.806 95.27 528.026 95.79C528.266 96.29 528.586 96.71 528.986 97.05C529.406 97.37 529.886 97.61 530.426 97.77C530.986 97.91 531.596 97.98 532.256 97.98C533.936 97.98 535.376 97.67 536.576 97.05C537.796 96.41 538.976 95.49 540.116 94.29V88.62ZM523.016 75.66C526.476 72.44 530.596 70.83 535.376 70.83C537.136 70.83 538.696 71.12 540.056 71.7C541.436 72.26 542.586 73.06 543.506 74.1C544.446 75.14 545.156 76.38 545.636 77.82C546.136 79.24 546.386 80.82 546.386 82.56V102H543.506C542.886 102 542.416 101.91 542.096 101.73C541.776 101.53 541.506 101.14 541.286 100.56L540.656 98.07C539.876 98.77 539.106 99.4 538.346 99.96C537.586 100.5 536.796 100.96 535.976 101.34C535.176 101.72 534.306 102 533.366 102.18C532.446 102.38 531.426 102.48 530.306 102.48C529.066 102.48 527.906 102.31 526.826 101.97C525.766 101.63 524.846 101.12 524.066 100.44C523.286 99.74 522.666 98.88 522.206 97.86C521.766 96.84 521.546 95.64 521.546 94.26C521.546 93.08 521.856 91.93 522.476 90.81C523.116 89.69 524.156 88.69 525.596 87.81C527.056 86.91 528.966 86.17 531.326 85.59C533.706 85.01 536.636 84.68 540.116 84.6V82.56C540.116 80.36 539.646 78.72 538.706 77.64C537.766 76.56 536.386 76.02 534.566 76.02C533.326 76.02 532.286 76.18 531.446 76.5C530.606 76.8 529.876 77.13 529.256 77.49C528.636 77.85 528.086 78.19 527.606 78.51C527.126 78.81 526.616 78.96 526.076 78.96C525.636 78.96 525.256 78.85 524.936 78.63C524.636 78.39 524.386 78.1 524.186 77.76L523.016 75.66ZM572.212 76.95C572.052 77.23 571.872 77.43 571.672 77.55C571.472 77.67 571.222 77.73 570.922 77.73C570.582 77.73 570.212 77.63 569.812 77.43C569.412 77.21 568.942 76.97 568.402 76.71C567.862 76.45 567.222 76.22 566.482 76.02C565.762 75.8 564.912 75.69 563.932 75.69C563.132 75.69 562.402 75.79 561.742 75.99C561.102 76.17 560.552 76.44 560.092 76.8C559.652 77.14 559.312 77.55 559.072 78.03C558.832 78.49 558.712 78.99 558.712 79.53C558.712 80.25 558.932 80.85 559.372 81.33C559.812 81.81 560.392 82.23 561.112 82.59C561.832 82.93 562.652 83.24 563.572 83.52C564.492 83.8 565.432 84.1 566.392 84.42C567.352 84.74 568.292 85.11 569.212 85.53C570.132 85.95 570.952 86.47 571.672 87.09C572.392 87.69 572.972 88.43 573.412 89.31C573.852 90.17 574.072 91.22 574.072 92.46C574.072 93.9 573.812 95.23 573.292 96.45C572.772 97.67 572.012 98.73 571.012 99.63C570.012 100.53 568.762 101.23 567.262 101.73C565.782 102.23 564.082 102.48 562.162 102.48C561.102 102.48 560.072 102.38 559.072 102.18C558.092 102 557.152 101.75 556.252 101.43C555.372 101.09 554.542 100.69 553.762 100.23C553.002 99.77 552.322 99.27 551.722 98.73L553.222 96.27C553.402 95.97 553.622 95.74 553.882 95.58C554.162 95.4 554.502 95.31 554.902 95.31C555.322 95.31 555.732 95.45 556.132 95.73C556.552 95.99 557.032 96.28 557.572 96.6C558.132 96.92 558.802 97.22 559.582 97.5C560.362 97.76 561.332 97.89 562.492 97.89C563.452 97.89 564.282 97.78 564.982 97.56C565.682 97.32 566.262 97 566.722 96.6C567.182 96.2 567.522 95.75 567.742 95.25C567.962 94.73 568.072 94.18 568.072 93.6C568.072 92.82 567.852 92.18 567.412 91.68C566.972 91.18 566.382 90.75 565.642 90.39C564.922 90.03 564.092 89.71 563.152 89.43C562.232 89.15 561.292 88.85 560.332 88.53C559.372 88.21 558.422 87.84 557.482 87.42C556.562 87 555.732 86.47 554.992 85.83C554.272 85.17 553.692 84.38 553.252 83.46C552.812 82.52 552.592 81.38 552.592 80.04C552.592 78.82 552.832 77.66 553.312 76.56C553.812 75.46 554.532 74.49 555.472 73.65C556.432 72.81 557.602 72.15 558.982 71.67C560.382 71.17 561.992 70.92 563.812 70.92C565.872 70.92 567.742 71.25 569.422 71.91C571.102 72.57 572.512 73.47 573.652 74.61L572.212 76.95ZM7.96 132.45C8.62 131.77 9.3 131.16 10 130.62C10.72 130.06 11.48 129.58 12.28 129.18C13.08 128.78 13.93 128.47 14.83 128.25C15.73 128.03 16.71 127.92 17.77 127.92C19.45 127.92 20.92 128.2 22.18 128.76C23.46 129.32 24.53 130.11 25.39 131.13C26.27 132.15 26.93 133.38 27.37 134.82C27.81 136.24 28.03 137.81 28.03 139.53V159H21.61V139.53C21.61 137.47 21.13 135.87 20.17 134.73C19.23 133.59 17.79 133.02 15.85 133.02C14.41 133.02 13.07 133.35 11.83 134.01C10.61 134.67 9.46 135.57 8.38 136.71V159H1.93V128.4H5.83C6.71 128.4 7.27 128.81 7.51 129.63L7.96 132.45ZM48.7928 127.92C51.0528 127.92 53.0928 128.29 54.9128 129.03C56.7528 129.77 58.3128 130.82 59.5928 132.18C60.8928 133.54 61.8928 135.19 62.5928 137.13C63.2928 139.07 63.6428 141.25 63.6428 143.67C63.6428 146.09 63.2928 148.27 62.5928 150.21C61.8928 152.15 60.8928 153.81 59.5928 155.19C58.3128 156.55 56.7528 157.6 54.9128 158.34C53.0928 159.08 51.0528 159.45 48.7928 159.45C46.5128 159.45 44.4528 159.08 42.6128 158.34C40.7928 157.6 39.2328 156.55 37.9328 155.19C36.6328 153.81 35.6328 152.15 34.9328 150.21C34.2328 148.27 33.8828 146.09 33.8828 143.67C33.8828 141.25 34.2328 139.07 34.9328 137.13C35.6328 135.19 36.6328 133.54 37.9328 132.18C39.2328 130.82 40.7928 129.77 42.6128 129.03C44.4528 128.29 46.5128 127.92 48.7928 127.92ZM48.7928 154.41C51.5528 154.41 53.6028 153.49 54.9428 151.65C56.3028 149.79 56.9828 147.14 56.9828 143.7C56.9828 140.26 56.3028 137.61 54.9428 135.75C53.6028 133.87 51.5528 132.93 48.7928 132.93C45.9928 132.93 43.9128 133.87 42.5528 135.75C41.1928 137.61 40.5128 140.26 40.5128 143.7C40.5128 147.14 41.1928 149.79 42.5528 151.65C43.9128 153.49 45.9928 154.41 48.7928 154.41ZM95.9013 128.4L83.6013 159H77.7813L65.4813 128.4H70.7913C71.2913 128.4 71.7013 128.53 72.0213 128.79C72.3613 129.03 72.5813 129.32 72.6813 129.66L79.4613 147.48C79.7413 148.32 79.9913 149.15 80.2113 149.97C80.4313 150.79 80.6213 151.62 80.7813 152.46C80.9413 151.62 81.1313 150.8 81.3513 150C81.5913 149.18 81.8513 148.34 82.1313 147.48L89.0313 129.66C89.1513 129.3 89.3713 129 89.6913 128.76C90.0113 128.52 90.4013 128.4 90.8613 128.4H95.9013ZM119.5 140.25C119.5 139.17 119.34 138.17 119.02 137.25C118.72 136.31 118.27 135.5 117.67 134.82C117.07 134.12 116.32 133.58 115.42 133.2C114.54 132.8 113.52 132.6 112.36 132.6C110.02 132.6 108.18 133.27 106.84 134.61C105.5 135.95 104.65 137.83 104.29 140.25H119.5ZM104.11 144.21C104.19 145.95 104.46 147.46 104.92 148.74C105.38 150 105.99 151.05 106.75 151.89C107.53 152.73 108.45 153.36 109.51 153.78C110.59 154.18 111.79 154.38 113.11 154.38C114.37 154.38 115.46 154.24 116.38 153.96C117.3 153.66 118.1 153.34 118.78 153C119.46 152.64 120.04 152.32 120.52 152.04C121 151.74 121.44 151.59 121.84 151.59C122.36 151.59 122.76 151.79 123.04 152.19L124.87 154.56C124.11 155.46 123.25 156.22 122.29 156.84C121.33 157.46 120.31 157.97 119.23 158.37C118.15 158.75 117.04 159.02 115.9 159.18C114.76 159.36 113.65 159.45 112.57 159.45C110.45 159.45 108.48 159.1 106.66 158.4C104.86 157.68 103.29 156.63 101.95 155.25C100.63 153.87 99.59 152.16 98.83 150.12C98.09 148.08 97.72 145.73 97.72 143.07C97.72 140.95 98.05 138.97 98.71 137.13C99.39 135.29 100.35 133.69 101.59 132.33C102.85 130.97 104.37 129.9 106.15 129.12C107.95 128.32 109.98 127.92 112.24 127.92C114.12 127.92 115.86 128.23 117.46 128.85C119.06 129.45 120.44 130.34 121.6 131.52C122.76 132.7 123.66 134.15 124.3 135.87C124.96 137.57 125.29 139.51 125.29 141.69C125.29 142.69 125.18 143.36 124.96 143.7C124.74 144.04 124.34 144.21 123.76 144.21H104.11ZM150.835 135.93C149.935 134.77 148.945 133.96 147.865 133.5C146.785 133.04 145.615 132.81 144.355 132.81C141.835 132.81 139.865 133.74 138.445 135.6C137.025 137.44 136.315 140.17 136.315 143.79C136.315 145.67 136.475 147.28 136.795 148.62C137.115 149.94 137.575 151.02 138.175 151.86C138.775 152.7 139.505 153.31 140.365 153.69C141.225 154.07 142.195 154.26 143.275 154.26C144.915 154.26 146.325 153.91 147.505 153.21C148.705 152.49 149.815 151.48 150.835 150.18V135.93ZM157.285 114.6V159H153.385C152.525 159 151.975 158.59 151.735 157.77L151.165 154.44C149.885 155.94 148.425 157.15 146.785 158.07C145.165 158.99 143.275 159.45 141.115 159.45C139.395 159.45 137.835 159.11 136.435 158.43C135.035 157.73 133.835 156.72 132.835 155.4C131.835 154.08 131.055 152.45 130.495 150.51C129.955 148.55 129.685 146.31 129.685 143.79C129.685 141.51 129.985 139.4 130.585 137.46C131.205 135.52 132.085 133.84 133.225 132.42C134.365 130.98 135.745 129.86 137.365 129.06C139.005 128.24 140.835 127.83 142.855 127.83C144.655 127.83 146.185 128.12 147.445 128.7C148.705 129.26 149.835 130.05 150.835 131.07V114.6H157.285ZM181.522 145.62C179.222 145.7 177.282 145.89 175.702 146.19C174.122 146.47 172.842 146.84 171.862 147.3C170.882 147.74 170.172 148.27 169.732 148.89C169.312 149.51 169.102 150.19 169.102 150.93C169.102 151.65 169.212 152.27 169.432 152.79C169.672 153.29 169.992 153.71 170.392 154.05C170.812 154.37 171.292 154.61 171.832 154.77C172.392 154.91 173.002 154.98 173.662 154.98C175.342 154.98 176.782 154.67 177.982 154.05C179.202 153.41 180.382 152.49 181.522 151.29V145.62ZM164.422 132.66C167.882 129.44 172.002 127.83 176.782 127.83C178.542 127.83 180.102 128.12 181.462 128.7C182.842 129.26 183.992 130.06 184.912 131.1C185.852 132.14 186.562 133.38 187.042 134.82C187.542 136.24 187.792 137.82 187.792 139.56V159H184.912C184.292 159 183.822 158.91 183.502 158.73C183.182 158.53 182.912 158.14 182.692 157.56L182.062 155.07C181.282 155.77 180.512 156.4 179.752 156.96C178.992 157.5 178.202 157.96 177.382 158.34C176.582 158.72 175.712 159 174.772 159.18C173.852 159.38 172.832 159.48 171.712 159.48C170.472 159.48 169.312 159.31 168.232 158.97C167.172 158.63 166.252 158.12 165.472 157.44C164.692 156.74 164.072 155.88 163.612 154.86C163.172 153.84 162.952 152.64 162.952 151.26C162.952 150.08 163.262 148.93 163.882 147.81C164.522 146.69 165.562 145.69 167.002 144.81C168.462 143.91 170.372 143.17 172.732 142.59C175.112 142.01 178.042 141.68 181.522 141.6V139.56C181.522 137.36 181.052 135.72 180.112 134.64C179.172 133.56 177.792 133.02 175.972 133.02C174.732 133.02 173.692 133.18 172.852 133.5C172.012 133.8 171.282 134.13 170.662 134.49C170.042 134.85 169.492 135.19 169.012 135.51C168.532 135.81 168.022 135.96 167.482 135.96C167.042 135.96 166.662 135.85 166.342 135.63C166.042 135.39 165.792 135.1 165.592 134.76L164.422 132.66ZM214.878 135.93C213.978 134.77 212.988 133.96 211.908 133.5C210.828 133.04 209.658 132.81 208.398 132.81C205.878 132.81 203.908 133.74 202.488 135.6C201.068 137.44 200.358 140.17 200.358 143.79C200.358 145.67 200.518 147.28 200.838 148.62C201.158 149.94 201.618 151.02 202.218 151.86C202.818 152.7 203.548 153.31 204.408 153.69C205.268 154.07 206.238 154.26 207.318 154.26C208.958 154.26 210.368 153.91 211.548 153.21C212.748 152.49 213.858 151.48 214.878 150.18V135.93ZM221.328 114.6V159H217.428C216.568 159 216.018 158.59 215.778 157.77L215.208 154.44C213.928 155.94 212.468 157.15 210.828 158.07C209.208 158.99 207.318 159.45 205.158 159.45C203.438 159.45 201.878 159.11 200.478 158.43C199.078 157.73 197.878 156.72 196.878 155.4C195.878 154.08 195.098 152.45 194.538 150.51C193.998 148.55 193.728 146.31 193.728 143.79C193.728 141.51 194.028 139.4 194.628 137.46C195.248 135.52 196.128 133.84 197.268 132.42C198.408 130.98 199.788 129.86 201.408 129.06C203.048 128.24 204.878 127.83 206.898 127.83C208.698 127.83 210.228 128.12 211.488 128.7C212.748 129.26 213.878 130.05 214.878 131.07V114.6H221.328ZM249.285 140.25C249.285 139.17 249.125 138.17 248.805 137.25C248.505 136.31 248.055 135.5 247.455 134.82C246.855 134.12 246.105 133.58 245.205 133.2C244.325 132.8 243.305 132.6 242.145 132.6C239.805 132.6 237.965 133.27 236.625 134.61C235.285 135.95 234.435 137.83 234.075 140.25H249.285ZM233.895 144.21C233.975 145.95 234.245 147.46 234.705 148.74C235.165 150 235.775 151.05 236.535 151.89C237.315 152.73 238.235 153.36 239.295 153.78C240.375 154.18 241.575 154.38 242.895 154.38C244.155 154.38 245.245 154.24 246.165 153.96C247.085 153.66 247.885 153.34 248.565 153C249.245 152.64 249.825 152.32 250.305 152.04C250.785 151.74 251.225 151.59 251.625 151.59C252.145 151.59 252.545 151.79 252.825 152.19L254.655 154.56C253.895 155.46 253.035 156.22 252.075 156.84C251.115 157.46 250.095 157.97 249.015 158.37C247.935 158.75 246.825 159.02 245.685 159.18C244.545 159.36 243.435 159.45 242.355 159.45C240.235 159.45 238.265 159.1 236.445 158.4C234.645 157.68 233.075 156.63 231.735 155.25C230.415 153.87 229.375 152.16 228.615 150.12C227.875 148.08 227.505 145.73 227.505 143.07C227.505 140.95 227.835 138.97 228.495 137.13C229.175 135.29 230.135 133.69 231.375 132.33C232.635 130.97 234.155 129.9 235.935 129.12C237.735 128.32 239.765 127.92 242.025 127.92C243.905 127.92 245.645 128.23 247.245 128.85C248.845 129.45 250.225 130.34 251.385 131.52C252.545 132.7 253.445 134.15 254.085 135.87C254.745 137.57 255.075 139.51 255.075 141.69C255.075 142.69 254.965 143.36 254.745 143.7C254.525 144.04 254.125 144.21 253.545 144.21H233.895ZM279.36 133.95C279.2 134.23 279.02 134.43 278.82 134.55C278.62 134.67 278.37 134.73 278.07 134.73C277.73 134.73 277.36 134.63 276.96 134.43C276.56 134.21 276.09 133.97 275.55 133.71C275.01 133.45 274.37 133.22 273.63 133.02C272.91 132.8 272.06 132.69 271.08 132.69C270.28 132.69 269.55 132.79 268.89 132.99C268.25 133.17 267.7 133.44 267.24 133.8C266.8 134.14 266.46 134.55 266.22 135.03C265.98 135.49 265.86 135.99 265.86 136.53C265.86 137.25 266.08 137.85 266.52 138.33C266.96 138.81 267.54 139.23 268.26 139.59C268.98 139.93 269.8 140.24 270.72 140.52C271.64 140.8 272.58 141.1 273.54 141.42C274.5 141.74 275.44 142.11 276.36 142.53C277.28 142.95 278.1 143.47 278.82 144.09C279.54 144.69 280.12 145.43 280.56 146.31C281 147.17 281.22 148.22 281.22 149.46C281.22 150.9 280.96 152.23 280.44 153.45C279.92 154.67 279.16 155.73 278.16 156.63C277.16 157.53 275.91 158.23 274.41 158.73C272.93 159.23 271.23 159.48 269.31 159.48C268.25 159.48 267.22 159.38 266.22 159.18C265.24 159 264.3 158.75 263.4 158.43C262.52 158.09 261.69 157.69 260.91 157.23C260.15 156.77 259.47 156.27 258.87 155.73L260.37 153.27C260.55 152.97 260.77 152.74 261.03 152.58C261.31 152.4 261.65 152.31 262.05 152.31C262.47 152.31 262.88 152.45 263.28 152.73C263.7 152.99 264.18 153.28 264.72 153.6C265.28 153.92 265.95 154.22 266.73 154.5C267.51 154.76 268.48 154.89 269.64 154.89C270.6 154.89 271.43 154.78 272.13 154.56C272.83 154.32 273.41 154 273.87 153.6C274.33 153.2 274.67 152.75 274.89 152.25C275.11 151.73 275.22 151.18 275.22 150.6C275.22 149.82 275 149.18 274.56 148.68C274.12 148.18 273.53 147.75 272.79 147.39C272.07 147.03 271.24 146.71 270.3 146.43C269.38 146.15 268.44 145.85 267.48 145.53C266.52 145.21 265.57 144.84 264.63 144.42C263.71 144 262.88 143.47 262.14 142.83C261.42 142.17 260.84 141.38 260.4 140.46C259.96 139.52 259.74 138.38 259.74 137.04C259.74 135.82 259.98 134.66 260.46 133.56C260.96 132.46 261.68 131.49 262.62 130.65C263.58 129.81 264.75 129.15 266.13 128.67C267.53 128.17 269.14 127.92 270.96 127.92C273.02 127.92 274.89 128.25 276.57 128.91C278.25 129.57 279.66 130.47 280.8 131.61L279.36 133.95ZM284.753 119.67C285.413 119.07 286.133 118.51 286.913 117.99C287.693 117.47 288.533 117.01 289.433 116.61C290.353 116.21 291.343 115.9 292.403 115.68C293.483 115.44 294.643 115.32 295.883 115.32C297.543 115.32 299.063 115.56 300.443 116.04C301.843 116.5 303.043 117.17 304.043 118.05C305.063 118.91 305.853 119.96 306.413 121.2C306.973 122.42 307.253 123.79 307.253 125.31C307.253 126.83 307.033 128.15 306.593 129.27C306.153 130.37 305.593 131.33 304.913 132.15C304.233 132.97 303.493 133.69 302.693 134.31C301.893 134.91 301.133 135.48 300.413 136.02C299.713 136.54 299.103 137.07 298.583 137.61C298.083 138.13 297.783 138.71 297.683 139.35L297.053 143.85H292.673L292.223 138.9C292.123 137.96 292.273 137.15 292.673 136.47C293.073 135.79 293.603 135.15 294.263 134.55C294.943 133.95 295.683 133.38 296.483 132.84C297.303 132.28 298.063 131.66 298.763 130.98C299.463 130.3 300.053 129.54 300.533 128.7C301.013 127.86 301.253 126.85 301.253 125.67C301.253 124.89 301.103 124.19 300.803 123.57C300.503 122.93 300.083 122.39 299.543 121.95C299.003 121.51 298.373 121.17 297.653 120.93C296.933 120.69 296.153 120.57 295.313 120.57C294.133 120.57 293.133 120.71 292.313 120.99C291.493 121.27 290.793 121.58 290.213 121.92C289.633 122.24 289.153 122.54 288.773 122.82C288.393 123.08 288.073 123.21 287.813 123.21C287.193 123.21 286.733 122.94 286.433 122.4L284.753 119.67ZM290.513 155.28C290.513 154.7 290.613 154.16 290.813 153.66C291.033 153.14 291.323 152.69 291.683 152.31C292.063 151.93 292.503 151.63 293.003 151.41C293.523 151.19 294.073 151.08 294.653 151.08C295.233 151.08 295.773 151.19 296.273 151.41C296.793 151.63 297.243 151.93 297.623 152.31C298.003 152.69 298.303 153.14 298.523 153.66C298.743 154.16 298.853 154.7 298.853 155.28C298.853 155.88 298.743 156.43 298.523 156.93C298.303 157.43 298.003 157.87 297.623 158.25C297.243 158.63 296.793 158.92 296.273 159.12C295.773 159.34 295.233 159.45 294.653 159.45C294.073 159.45 293.523 159.34 293.003 159.12C292.503 158.92 292.063 158.63 291.683 158.25C291.323 157.87 291.033 157.43 290.813 156.93C290.613 156.43 290.513 155.88 290.513 155.28Z" fill="black"/>
</svg>
